G75*
%MOIN*%
%OFA0B0*%
%FSLAX25Y25*%
%IPPOS*%
%LPD*%
%AMOC8*
5,1,8,0,0,1.08239X$1,22.5*
%
%ADD10C,0.00800*%
%ADD11C,0.07400*%
%ADD12C,0.02500*%
%ADD13C,0.02400*%
%ADD14C,0.01000*%
%ADD15C,0.00600*%
D10*
X0037058Y0031650D02*
X0039392Y0031650D01*
X0037408Y0033983D01*
X0038108Y0035850D02*
X0038179Y0035848D01*
X0038249Y0035843D01*
X0038319Y0035833D01*
X0038389Y0035820D01*
X0038457Y0035804D01*
X0038525Y0035784D01*
X0038592Y0035760D01*
X0038657Y0035733D01*
X0038721Y0035703D01*
X0038783Y0035669D01*
X0038843Y0035632D01*
X0038901Y0035592D01*
X0038958Y0035549D01*
X0039011Y0035503D01*
X0039062Y0035454D01*
X0039111Y0035403D01*
X0039157Y0035349D01*
X0039200Y0035293D01*
X0039240Y0035235D01*
X0039277Y0035175D01*
X0039310Y0035112D01*
X0039341Y0035049D01*
X0039368Y0034983D01*
X0039391Y0034917D01*
X0037408Y0033983D02*
X0037362Y0034030D01*
X0037319Y0034078D01*
X0037279Y0034130D01*
X0037241Y0034183D01*
X0037207Y0034239D01*
X0037177Y0034296D01*
X0037149Y0034356D01*
X0037125Y0034416D01*
X0037105Y0034478D01*
X0037088Y0034541D01*
X0037075Y0034605D01*
X0037066Y0034670D01*
X0037060Y0034735D01*
X0037058Y0034800D01*
X0037060Y0034863D01*
X0037066Y0034927D01*
X0037075Y0034989D01*
X0037089Y0035051D01*
X0037106Y0035112D01*
X0037126Y0035172D01*
X0037151Y0035231D01*
X0037178Y0035288D01*
X0037209Y0035343D01*
X0037244Y0035396D01*
X0037281Y0035448D01*
X0037322Y0035496D01*
X0037366Y0035542D01*
X0037412Y0035586D01*
X0037460Y0035627D01*
X0037512Y0035664D01*
X0037565Y0035699D01*
X0037620Y0035730D01*
X0037677Y0035757D01*
X0037736Y0035782D01*
X0037796Y0035802D01*
X0037857Y0035819D01*
X0037919Y0035833D01*
X0037981Y0035842D01*
X0038045Y0035848D01*
X0038108Y0035850D01*
X0043892Y0033750D02*
X0043890Y0033638D01*
X0043885Y0033526D01*
X0043876Y0033414D01*
X0043863Y0033303D01*
X0043847Y0033192D01*
X0043827Y0033081D01*
X0043803Y0032972D01*
X0043776Y0032863D01*
X0043746Y0032755D01*
X0043712Y0032648D01*
X0043675Y0032542D01*
X0043634Y0032438D01*
X0043590Y0032335D01*
X0043542Y0032233D01*
X0043658Y0032583D02*
X0041792Y0034917D01*
X0041909Y0035267D02*
X0041929Y0035320D01*
X0041952Y0035371D01*
X0041979Y0035420D01*
X0042009Y0035468D01*
X0042042Y0035514D01*
X0042077Y0035557D01*
X0042116Y0035598D01*
X0042157Y0035637D01*
X0042201Y0035673D01*
X0042247Y0035705D01*
X0042294Y0035735D01*
X0042344Y0035761D01*
X0042396Y0035785D01*
X0042448Y0035804D01*
X0042502Y0035821D01*
X0042557Y0035833D01*
X0042613Y0035843D01*
X0042669Y0035848D01*
X0042725Y0035850D01*
X0042781Y0035848D01*
X0042837Y0035843D01*
X0042893Y0035833D01*
X0042948Y0035821D01*
X0043002Y0035804D01*
X0043054Y0035785D01*
X0043106Y0035761D01*
X0043156Y0035735D01*
X0043203Y0035705D01*
X0043249Y0035672D01*
X0043293Y0035637D01*
X0043334Y0035598D01*
X0043373Y0035557D01*
X0043408Y0035514D01*
X0043441Y0035468D01*
X0043471Y0035420D01*
X0043498Y0035371D01*
X0043521Y0035320D01*
X0043541Y0035267D01*
X0041909Y0035267D02*
X0041861Y0035165D01*
X0041817Y0035062D01*
X0041776Y0034958D01*
X0041739Y0034852D01*
X0041705Y0034745D01*
X0041675Y0034637D01*
X0041648Y0034528D01*
X0041624Y0034419D01*
X0041604Y0034308D01*
X0041588Y0034197D01*
X0041575Y0034086D01*
X0041566Y0033974D01*
X0041561Y0033862D01*
X0041559Y0033750D01*
X0043892Y0033750D02*
X0043890Y0033862D01*
X0043885Y0033974D01*
X0043876Y0034086D01*
X0043863Y0034197D01*
X0043847Y0034308D01*
X0043827Y0034419D01*
X0043803Y0034528D01*
X0043776Y0034637D01*
X0043746Y0034745D01*
X0043712Y0034852D01*
X0043675Y0034958D01*
X0043634Y0035062D01*
X0043590Y0035165D01*
X0043542Y0035267D01*
X0041559Y0033750D02*
X0041561Y0033638D01*
X0041566Y0033526D01*
X0041575Y0033414D01*
X0041588Y0033303D01*
X0041604Y0033192D01*
X0041624Y0033081D01*
X0041648Y0032972D01*
X0041675Y0032863D01*
X0041705Y0032755D01*
X0041739Y0032648D01*
X0041776Y0032542D01*
X0041817Y0032438D01*
X0041861Y0032335D01*
X0041909Y0032233D01*
X0042725Y0031650D02*
X0042781Y0031652D01*
X0042837Y0031657D01*
X0042893Y0031667D01*
X0042948Y0031679D01*
X0043002Y0031696D01*
X0043054Y0031715D01*
X0043106Y0031739D01*
X0043156Y0031765D01*
X0043203Y0031795D01*
X0043249Y0031827D01*
X0043293Y0031863D01*
X0043334Y0031902D01*
X0043373Y0031943D01*
X0043408Y0031986D01*
X0043441Y0032032D01*
X0043471Y0032080D01*
X0043498Y0032129D01*
X0043521Y0032180D01*
X0043541Y0032233D01*
X0042725Y0031650D02*
X0042669Y0031652D01*
X0042613Y0031657D01*
X0042557Y0031667D01*
X0042502Y0031679D01*
X0042448Y0031696D01*
X0042396Y0031715D01*
X0042344Y0031739D01*
X0042294Y0031765D01*
X0042247Y0031795D01*
X0042201Y0031827D01*
X0042157Y0031863D01*
X0042116Y0031902D01*
X0042077Y0031943D01*
X0042042Y0031986D01*
X0042009Y0032032D01*
X0041979Y0032080D01*
X0041952Y0032129D01*
X0041929Y0032180D01*
X0041909Y0032233D01*
X0045825Y0031650D02*
X0048625Y0035850D01*
X0045825Y0035850D02*
X0048625Y0031650D01*
X0139058Y0031650D02*
X0141392Y0031650D01*
X0139408Y0033983D01*
X0140108Y0035850D02*
X0140179Y0035848D01*
X0140249Y0035843D01*
X0140319Y0035833D01*
X0140389Y0035820D01*
X0140457Y0035804D01*
X0140525Y0035784D01*
X0140592Y0035760D01*
X0140657Y0035733D01*
X0140721Y0035703D01*
X0140783Y0035669D01*
X0140843Y0035632D01*
X0140901Y0035592D01*
X0140958Y0035549D01*
X0141011Y0035503D01*
X0141062Y0035454D01*
X0141111Y0035403D01*
X0141157Y0035349D01*
X0141200Y0035293D01*
X0141240Y0035235D01*
X0141277Y0035175D01*
X0141310Y0035112D01*
X0141341Y0035049D01*
X0141368Y0034983D01*
X0141391Y0034917D01*
X0139408Y0033983D02*
X0139362Y0034030D01*
X0139319Y0034078D01*
X0139279Y0034130D01*
X0139241Y0034183D01*
X0139207Y0034239D01*
X0139177Y0034296D01*
X0139149Y0034356D01*
X0139125Y0034416D01*
X0139105Y0034478D01*
X0139088Y0034541D01*
X0139075Y0034605D01*
X0139066Y0034670D01*
X0139060Y0034735D01*
X0139058Y0034800D01*
X0139060Y0034863D01*
X0139066Y0034927D01*
X0139075Y0034989D01*
X0139089Y0035051D01*
X0139106Y0035112D01*
X0139126Y0035172D01*
X0139151Y0035231D01*
X0139178Y0035288D01*
X0139209Y0035343D01*
X0139244Y0035396D01*
X0139281Y0035448D01*
X0139322Y0035496D01*
X0139366Y0035542D01*
X0139412Y0035586D01*
X0139460Y0035627D01*
X0139512Y0035664D01*
X0139565Y0035699D01*
X0139620Y0035730D01*
X0139677Y0035757D01*
X0139736Y0035782D01*
X0139796Y0035802D01*
X0139857Y0035819D01*
X0139919Y0035833D01*
X0139981Y0035842D01*
X0140045Y0035848D01*
X0140108Y0035850D01*
X0145892Y0033750D02*
X0145890Y0033638D01*
X0145885Y0033526D01*
X0145876Y0033414D01*
X0145863Y0033303D01*
X0145847Y0033192D01*
X0145827Y0033081D01*
X0145803Y0032972D01*
X0145776Y0032863D01*
X0145746Y0032755D01*
X0145712Y0032648D01*
X0145675Y0032542D01*
X0145634Y0032438D01*
X0145590Y0032335D01*
X0145542Y0032233D01*
X0145658Y0032583D02*
X0143792Y0034917D01*
X0143909Y0035267D02*
X0143929Y0035320D01*
X0143952Y0035371D01*
X0143979Y0035420D01*
X0144009Y0035468D01*
X0144042Y0035514D01*
X0144077Y0035557D01*
X0144116Y0035598D01*
X0144157Y0035637D01*
X0144201Y0035673D01*
X0144247Y0035705D01*
X0144294Y0035735D01*
X0144344Y0035761D01*
X0144396Y0035785D01*
X0144448Y0035804D01*
X0144502Y0035821D01*
X0144557Y0035833D01*
X0144613Y0035843D01*
X0144669Y0035848D01*
X0144725Y0035850D01*
X0144781Y0035848D01*
X0144837Y0035843D01*
X0144893Y0035833D01*
X0144948Y0035821D01*
X0145002Y0035804D01*
X0145054Y0035785D01*
X0145106Y0035761D01*
X0145156Y0035735D01*
X0145203Y0035705D01*
X0145249Y0035672D01*
X0145293Y0035637D01*
X0145334Y0035598D01*
X0145373Y0035557D01*
X0145408Y0035514D01*
X0145441Y0035468D01*
X0145471Y0035420D01*
X0145498Y0035371D01*
X0145521Y0035320D01*
X0145541Y0035267D01*
X0143909Y0035267D02*
X0143861Y0035165D01*
X0143817Y0035062D01*
X0143776Y0034958D01*
X0143739Y0034852D01*
X0143705Y0034745D01*
X0143675Y0034637D01*
X0143648Y0034528D01*
X0143624Y0034419D01*
X0143604Y0034308D01*
X0143588Y0034197D01*
X0143575Y0034086D01*
X0143566Y0033974D01*
X0143561Y0033862D01*
X0143559Y0033750D01*
X0145892Y0033750D02*
X0145890Y0033862D01*
X0145885Y0033974D01*
X0145876Y0034086D01*
X0145863Y0034197D01*
X0145847Y0034308D01*
X0145827Y0034419D01*
X0145803Y0034528D01*
X0145776Y0034637D01*
X0145746Y0034745D01*
X0145712Y0034852D01*
X0145675Y0034958D01*
X0145634Y0035062D01*
X0145590Y0035165D01*
X0145542Y0035267D01*
X0143559Y0033750D02*
X0143561Y0033638D01*
X0143566Y0033526D01*
X0143575Y0033414D01*
X0143588Y0033303D01*
X0143604Y0033192D01*
X0143624Y0033081D01*
X0143648Y0032972D01*
X0143675Y0032863D01*
X0143705Y0032755D01*
X0143739Y0032648D01*
X0143776Y0032542D01*
X0143817Y0032438D01*
X0143861Y0032335D01*
X0143909Y0032233D01*
X0144725Y0031650D02*
X0144781Y0031652D01*
X0144837Y0031657D01*
X0144893Y0031667D01*
X0144948Y0031679D01*
X0145002Y0031696D01*
X0145054Y0031715D01*
X0145106Y0031739D01*
X0145156Y0031765D01*
X0145203Y0031795D01*
X0145249Y0031827D01*
X0145293Y0031863D01*
X0145334Y0031902D01*
X0145373Y0031943D01*
X0145408Y0031986D01*
X0145441Y0032032D01*
X0145471Y0032080D01*
X0145498Y0032129D01*
X0145521Y0032180D01*
X0145541Y0032233D01*
X0144725Y0031650D02*
X0144669Y0031652D01*
X0144613Y0031657D01*
X0144557Y0031667D01*
X0144502Y0031679D01*
X0144448Y0031696D01*
X0144396Y0031715D01*
X0144344Y0031739D01*
X0144294Y0031765D01*
X0144247Y0031795D01*
X0144201Y0031827D01*
X0144157Y0031863D01*
X0144116Y0031902D01*
X0144077Y0031943D01*
X0144042Y0031986D01*
X0144009Y0032032D01*
X0143979Y0032080D01*
X0143952Y0032129D01*
X0143929Y0032180D01*
X0143909Y0032233D01*
X0147825Y0031650D02*
X0150625Y0035850D01*
X0147825Y0035850D02*
X0150625Y0031650D01*
X0241058Y0031650D02*
X0243392Y0031650D01*
X0241408Y0033983D01*
X0242108Y0035850D02*
X0242179Y0035848D01*
X0242249Y0035843D01*
X0242319Y0035833D01*
X0242389Y0035820D01*
X0242457Y0035804D01*
X0242525Y0035784D01*
X0242592Y0035760D01*
X0242657Y0035733D01*
X0242721Y0035703D01*
X0242783Y0035669D01*
X0242843Y0035632D01*
X0242901Y0035592D01*
X0242958Y0035549D01*
X0243011Y0035503D01*
X0243062Y0035454D01*
X0243111Y0035403D01*
X0243157Y0035349D01*
X0243200Y0035293D01*
X0243240Y0035235D01*
X0243277Y0035175D01*
X0243310Y0035112D01*
X0243341Y0035049D01*
X0243368Y0034983D01*
X0243391Y0034917D01*
X0241408Y0033983D02*
X0241362Y0034030D01*
X0241319Y0034078D01*
X0241279Y0034130D01*
X0241241Y0034183D01*
X0241207Y0034239D01*
X0241177Y0034296D01*
X0241149Y0034356D01*
X0241125Y0034416D01*
X0241105Y0034478D01*
X0241088Y0034541D01*
X0241075Y0034605D01*
X0241066Y0034670D01*
X0241060Y0034735D01*
X0241058Y0034800D01*
X0241060Y0034863D01*
X0241066Y0034927D01*
X0241075Y0034989D01*
X0241089Y0035051D01*
X0241106Y0035112D01*
X0241126Y0035172D01*
X0241151Y0035231D01*
X0241178Y0035288D01*
X0241209Y0035343D01*
X0241244Y0035396D01*
X0241281Y0035448D01*
X0241322Y0035496D01*
X0241366Y0035542D01*
X0241412Y0035586D01*
X0241460Y0035627D01*
X0241512Y0035664D01*
X0241565Y0035699D01*
X0241620Y0035730D01*
X0241677Y0035757D01*
X0241736Y0035782D01*
X0241796Y0035802D01*
X0241857Y0035819D01*
X0241919Y0035833D01*
X0241981Y0035842D01*
X0242045Y0035848D01*
X0242108Y0035850D01*
X0247892Y0033750D02*
X0247890Y0033638D01*
X0247885Y0033526D01*
X0247876Y0033414D01*
X0247863Y0033303D01*
X0247847Y0033192D01*
X0247827Y0033081D01*
X0247803Y0032972D01*
X0247776Y0032863D01*
X0247746Y0032755D01*
X0247712Y0032648D01*
X0247675Y0032542D01*
X0247634Y0032438D01*
X0247590Y0032335D01*
X0247542Y0032233D01*
X0247658Y0032583D02*
X0245792Y0034917D01*
X0245909Y0035267D02*
X0245929Y0035320D01*
X0245952Y0035371D01*
X0245979Y0035420D01*
X0246009Y0035468D01*
X0246042Y0035514D01*
X0246077Y0035557D01*
X0246116Y0035598D01*
X0246157Y0035637D01*
X0246201Y0035673D01*
X0246247Y0035705D01*
X0246294Y0035735D01*
X0246344Y0035761D01*
X0246396Y0035785D01*
X0246448Y0035804D01*
X0246502Y0035821D01*
X0246557Y0035833D01*
X0246613Y0035843D01*
X0246669Y0035848D01*
X0246725Y0035850D01*
X0246781Y0035848D01*
X0246837Y0035843D01*
X0246893Y0035833D01*
X0246948Y0035821D01*
X0247002Y0035804D01*
X0247054Y0035785D01*
X0247106Y0035761D01*
X0247156Y0035735D01*
X0247203Y0035705D01*
X0247249Y0035672D01*
X0247293Y0035637D01*
X0247334Y0035598D01*
X0247373Y0035557D01*
X0247408Y0035514D01*
X0247441Y0035468D01*
X0247471Y0035420D01*
X0247498Y0035371D01*
X0247521Y0035320D01*
X0247541Y0035267D01*
X0245909Y0035267D02*
X0245861Y0035165D01*
X0245817Y0035062D01*
X0245776Y0034958D01*
X0245739Y0034852D01*
X0245705Y0034745D01*
X0245675Y0034637D01*
X0245648Y0034528D01*
X0245624Y0034419D01*
X0245604Y0034308D01*
X0245588Y0034197D01*
X0245575Y0034086D01*
X0245566Y0033974D01*
X0245561Y0033862D01*
X0245559Y0033750D01*
X0247892Y0033750D02*
X0247890Y0033862D01*
X0247885Y0033974D01*
X0247876Y0034086D01*
X0247863Y0034197D01*
X0247847Y0034308D01*
X0247827Y0034419D01*
X0247803Y0034528D01*
X0247776Y0034637D01*
X0247746Y0034745D01*
X0247712Y0034852D01*
X0247675Y0034958D01*
X0247634Y0035062D01*
X0247590Y0035165D01*
X0247542Y0035267D01*
X0245559Y0033750D02*
X0245561Y0033638D01*
X0245566Y0033526D01*
X0245575Y0033414D01*
X0245588Y0033303D01*
X0245604Y0033192D01*
X0245624Y0033081D01*
X0245648Y0032972D01*
X0245675Y0032863D01*
X0245705Y0032755D01*
X0245739Y0032648D01*
X0245776Y0032542D01*
X0245817Y0032438D01*
X0245861Y0032335D01*
X0245909Y0032233D01*
X0246725Y0031650D02*
X0246781Y0031652D01*
X0246837Y0031657D01*
X0246893Y0031667D01*
X0246948Y0031679D01*
X0247002Y0031696D01*
X0247054Y0031715D01*
X0247106Y0031739D01*
X0247156Y0031765D01*
X0247203Y0031795D01*
X0247249Y0031827D01*
X0247293Y0031863D01*
X0247334Y0031902D01*
X0247373Y0031943D01*
X0247408Y0031986D01*
X0247441Y0032032D01*
X0247471Y0032080D01*
X0247498Y0032129D01*
X0247521Y0032180D01*
X0247541Y0032233D01*
X0246725Y0031650D02*
X0246669Y0031652D01*
X0246613Y0031657D01*
X0246557Y0031667D01*
X0246502Y0031679D01*
X0246448Y0031696D01*
X0246396Y0031715D01*
X0246344Y0031739D01*
X0246294Y0031765D01*
X0246247Y0031795D01*
X0246201Y0031827D01*
X0246157Y0031863D01*
X0246116Y0031902D01*
X0246077Y0031943D01*
X0246042Y0031986D01*
X0246009Y0032032D01*
X0245979Y0032080D01*
X0245952Y0032129D01*
X0245929Y0032180D01*
X0245909Y0032233D01*
X0249825Y0031650D02*
X0252625Y0035850D01*
X0249825Y0035850D02*
X0252625Y0031650D01*
X0252625Y0133650D02*
X0249825Y0137850D01*
X0245559Y0135750D02*
X0245561Y0135638D01*
X0245566Y0135526D01*
X0245575Y0135414D01*
X0245588Y0135303D01*
X0245604Y0135192D01*
X0245624Y0135081D01*
X0245648Y0134972D01*
X0245675Y0134863D01*
X0245705Y0134755D01*
X0245739Y0134648D01*
X0245776Y0134542D01*
X0245817Y0134438D01*
X0245861Y0134335D01*
X0245909Y0134233D01*
X0246725Y0133650D02*
X0246781Y0133652D01*
X0246837Y0133657D01*
X0246893Y0133667D01*
X0246948Y0133679D01*
X0247002Y0133696D01*
X0247054Y0133715D01*
X0247106Y0133739D01*
X0247156Y0133765D01*
X0247203Y0133795D01*
X0247249Y0133827D01*
X0247293Y0133863D01*
X0247334Y0133902D01*
X0247373Y0133943D01*
X0247408Y0133986D01*
X0247441Y0134032D01*
X0247471Y0134080D01*
X0247498Y0134129D01*
X0247521Y0134180D01*
X0247541Y0134233D01*
X0247658Y0134583D02*
X0245792Y0136917D01*
X0245909Y0137267D02*
X0245929Y0137320D01*
X0245952Y0137371D01*
X0245979Y0137420D01*
X0246009Y0137468D01*
X0246042Y0137514D01*
X0246077Y0137557D01*
X0246116Y0137598D01*
X0246157Y0137637D01*
X0246201Y0137673D01*
X0246247Y0137705D01*
X0246294Y0137735D01*
X0246344Y0137761D01*
X0246396Y0137785D01*
X0246448Y0137804D01*
X0246502Y0137821D01*
X0246557Y0137833D01*
X0246613Y0137843D01*
X0246669Y0137848D01*
X0246725Y0137850D01*
X0246781Y0137848D01*
X0246837Y0137843D01*
X0246893Y0137833D01*
X0246948Y0137821D01*
X0247002Y0137804D01*
X0247054Y0137785D01*
X0247106Y0137761D01*
X0247156Y0137735D01*
X0247203Y0137705D01*
X0247249Y0137672D01*
X0247293Y0137637D01*
X0247334Y0137598D01*
X0247373Y0137557D01*
X0247408Y0137514D01*
X0247441Y0137468D01*
X0247471Y0137420D01*
X0247498Y0137371D01*
X0247521Y0137320D01*
X0247541Y0137267D01*
X0245909Y0137267D02*
X0245861Y0137165D01*
X0245817Y0137062D01*
X0245776Y0136958D01*
X0245739Y0136852D01*
X0245705Y0136745D01*
X0245675Y0136637D01*
X0245648Y0136528D01*
X0245624Y0136419D01*
X0245604Y0136308D01*
X0245588Y0136197D01*
X0245575Y0136086D01*
X0245566Y0135974D01*
X0245561Y0135862D01*
X0245559Y0135750D01*
X0247892Y0135750D02*
X0247890Y0135862D01*
X0247885Y0135974D01*
X0247876Y0136086D01*
X0247863Y0136197D01*
X0247847Y0136308D01*
X0247827Y0136419D01*
X0247803Y0136528D01*
X0247776Y0136637D01*
X0247746Y0136745D01*
X0247712Y0136852D01*
X0247675Y0136958D01*
X0247634Y0137062D01*
X0247590Y0137165D01*
X0247542Y0137267D01*
X0245909Y0134233D02*
X0245929Y0134180D01*
X0245952Y0134129D01*
X0245979Y0134080D01*
X0246009Y0134032D01*
X0246042Y0133986D01*
X0246077Y0133943D01*
X0246116Y0133902D01*
X0246157Y0133863D01*
X0246201Y0133827D01*
X0246247Y0133795D01*
X0246294Y0133765D01*
X0246344Y0133739D01*
X0246396Y0133715D01*
X0246448Y0133696D01*
X0246502Y0133679D01*
X0246557Y0133667D01*
X0246613Y0133657D01*
X0246669Y0133652D01*
X0246725Y0133650D01*
X0249825Y0133650D02*
X0252625Y0137850D01*
X0247892Y0135750D02*
X0247890Y0135638D01*
X0247885Y0135526D01*
X0247876Y0135414D01*
X0247863Y0135303D01*
X0247847Y0135192D01*
X0247827Y0135081D01*
X0247803Y0134972D01*
X0247776Y0134863D01*
X0247746Y0134755D01*
X0247712Y0134648D01*
X0247675Y0134542D01*
X0247634Y0134438D01*
X0247590Y0134335D01*
X0247542Y0134233D01*
X0243392Y0133650D02*
X0241058Y0133650D01*
X0243392Y0133650D02*
X0241408Y0135983D01*
X0242108Y0137850D02*
X0242179Y0137848D01*
X0242249Y0137843D01*
X0242319Y0137833D01*
X0242389Y0137820D01*
X0242457Y0137804D01*
X0242525Y0137784D01*
X0242592Y0137760D01*
X0242657Y0137733D01*
X0242721Y0137703D01*
X0242783Y0137669D01*
X0242843Y0137632D01*
X0242901Y0137592D01*
X0242958Y0137549D01*
X0243011Y0137503D01*
X0243062Y0137454D01*
X0243111Y0137403D01*
X0243157Y0137349D01*
X0243200Y0137293D01*
X0243240Y0137235D01*
X0243277Y0137175D01*
X0243310Y0137112D01*
X0243341Y0137049D01*
X0243368Y0136983D01*
X0243391Y0136917D01*
X0241408Y0135983D02*
X0241362Y0136030D01*
X0241319Y0136078D01*
X0241279Y0136130D01*
X0241241Y0136183D01*
X0241207Y0136239D01*
X0241177Y0136296D01*
X0241149Y0136356D01*
X0241125Y0136416D01*
X0241105Y0136478D01*
X0241088Y0136541D01*
X0241075Y0136605D01*
X0241066Y0136670D01*
X0241060Y0136735D01*
X0241058Y0136800D01*
X0241060Y0136863D01*
X0241066Y0136927D01*
X0241075Y0136989D01*
X0241089Y0137051D01*
X0241106Y0137112D01*
X0241126Y0137172D01*
X0241151Y0137231D01*
X0241178Y0137288D01*
X0241209Y0137343D01*
X0241244Y0137396D01*
X0241281Y0137448D01*
X0241322Y0137496D01*
X0241366Y0137542D01*
X0241412Y0137586D01*
X0241460Y0137627D01*
X0241512Y0137664D01*
X0241565Y0137699D01*
X0241620Y0137730D01*
X0241677Y0137757D01*
X0241736Y0137782D01*
X0241796Y0137802D01*
X0241857Y0137819D01*
X0241919Y0137833D01*
X0241981Y0137842D01*
X0242045Y0137848D01*
X0242108Y0137850D01*
X0150625Y0137850D02*
X0147825Y0133650D01*
X0143909Y0134233D02*
X0143861Y0134335D01*
X0143817Y0134438D01*
X0143776Y0134542D01*
X0143739Y0134648D01*
X0143705Y0134755D01*
X0143675Y0134863D01*
X0143648Y0134972D01*
X0143624Y0135081D01*
X0143604Y0135192D01*
X0143588Y0135303D01*
X0143575Y0135414D01*
X0143566Y0135526D01*
X0143561Y0135638D01*
X0143559Y0135750D01*
X0145892Y0135750D02*
X0145890Y0135862D01*
X0145885Y0135974D01*
X0145876Y0136086D01*
X0145863Y0136197D01*
X0145847Y0136308D01*
X0145827Y0136419D01*
X0145803Y0136528D01*
X0145776Y0136637D01*
X0145746Y0136745D01*
X0145712Y0136852D01*
X0145675Y0136958D01*
X0145634Y0137062D01*
X0145590Y0137165D01*
X0145542Y0137267D01*
X0145541Y0137267D02*
X0145521Y0137320D01*
X0145498Y0137371D01*
X0145471Y0137420D01*
X0145441Y0137468D01*
X0145408Y0137514D01*
X0145373Y0137557D01*
X0145334Y0137598D01*
X0145293Y0137637D01*
X0145249Y0137672D01*
X0145203Y0137705D01*
X0145156Y0137735D01*
X0145106Y0137761D01*
X0145054Y0137785D01*
X0145002Y0137804D01*
X0144948Y0137821D01*
X0144893Y0137833D01*
X0144837Y0137843D01*
X0144781Y0137848D01*
X0144725Y0137850D01*
X0144669Y0137848D01*
X0144613Y0137843D01*
X0144557Y0137833D01*
X0144502Y0137821D01*
X0144448Y0137804D01*
X0144396Y0137785D01*
X0144344Y0137761D01*
X0144294Y0137735D01*
X0144247Y0137705D01*
X0144201Y0137673D01*
X0144157Y0137637D01*
X0144116Y0137598D01*
X0144077Y0137557D01*
X0144042Y0137514D01*
X0144009Y0137468D01*
X0143979Y0137420D01*
X0143952Y0137371D01*
X0143929Y0137320D01*
X0143909Y0137267D01*
X0143792Y0136917D02*
X0145658Y0134583D01*
X0144725Y0133650D02*
X0144669Y0133652D01*
X0144613Y0133657D01*
X0144557Y0133667D01*
X0144502Y0133679D01*
X0144448Y0133696D01*
X0144396Y0133715D01*
X0144344Y0133739D01*
X0144294Y0133765D01*
X0144247Y0133795D01*
X0144201Y0133827D01*
X0144157Y0133863D01*
X0144116Y0133902D01*
X0144077Y0133943D01*
X0144042Y0133986D01*
X0144009Y0134032D01*
X0143979Y0134080D01*
X0143952Y0134129D01*
X0143929Y0134180D01*
X0143909Y0134233D01*
X0144725Y0133650D02*
X0144781Y0133652D01*
X0144837Y0133657D01*
X0144893Y0133667D01*
X0144948Y0133679D01*
X0145002Y0133696D01*
X0145054Y0133715D01*
X0145106Y0133739D01*
X0145156Y0133765D01*
X0145203Y0133795D01*
X0145249Y0133827D01*
X0145293Y0133863D01*
X0145334Y0133902D01*
X0145373Y0133943D01*
X0145408Y0133986D01*
X0145441Y0134032D01*
X0145471Y0134080D01*
X0145498Y0134129D01*
X0145521Y0134180D01*
X0145541Y0134233D01*
X0143559Y0135750D02*
X0143561Y0135862D01*
X0143566Y0135974D01*
X0143575Y0136086D01*
X0143588Y0136197D01*
X0143604Y0136308D01*
X0143624Y0136419D01*
X0143648Y0136528D01*
X0143675Y0136637D01*
X0143705Y0136745D01*
X0143739Y0136852D01*
X0143776Y0136958D01*
X0143817Y0137062D01*
X0143861Y0137165D01*
X0143909Y0137267D01*
X0145892Y0135750D02*
X0145890Y0135638D01*
X0145885Y0135526D01*
X0145876Y0135414D01*
X0145863Y0135303D01*
X0145847Y0135192D01*
X0145827Y0135081D01*
X0145803Y0134972D01*
X0145776Y0134863D01*
X0145746Y0134755D01*
X0145712Y0134648D01*
X0145675Y0134542D01*
X0145634Y0134438D01*
X0145590Y0134335D01*
X0145542Y0134233D01*
X0141392Y0133650D02*
X0139058Y0133650D01*
X0141392Y0133650D02*
X0139408Y0135983D01*
X0140108Y0137850D02*
X0140179Y0137848D01*
X0140249Y0137843D01*
X0140319Y0137833D01*
X0140389Y0137820D01*
X0140457Y0137804D01*
X0140525Y0137784D01*
X0140592Y0137760D01*
X0140657Y0137733D01*
X0140721Y0137703D01*
X0140783Y0137669D01*
X0140843Y0137632D01*
X0140901Y0137592D01*
X0140958Y0137549D01*
X0141011Y0137503D01*
X0141062Y0137454D01*
X0141111Y0137403D01*
X0141157Y0137349D01*
X0141200Y0137293D01*
X0141240Y0137235D01*
X0141277Y0137175D01*
X0141310Y0137112D01*
X0141341Y0137049D01*
X0141368Y0136983D01*
X0141391Y0136917D01*
X0139408Y0135983D02*
X0139362Y0136030D01*
X0139319Y0136078D01*
X0139279Y0136130D01*
X0139241Y0136183D01*
X0139207Y0136239D01*
X0139177Y0136296D01*
X0139149Y0136356D01*
X0139125Y0136416D01*
X0139105Y0136478D01*
X0139088Y0136541D01*
X0139075Y0136605D01*
X0139066Y0136670D01*
X0139060Y0136735D01*
X0139058Y0136800D01*
X0139060Y0136863D01*
X0139066Y0136927D01*
X0139075Y0136989D01*
X0139089Y0137051D01*
X0139106Y0137112D01*
X0139126Y0137172D01*
X0139151Y0137231D01*
X0139178Y0137288D01*
X0139209Y0137343D01*
X0139244Y0137396D01*
X0139281Y0137448D01*
X0139322Y0137496D01*
X0139366Y0137542D01*
X0139412Y0137586D01*
X0139460Y0137627D01*
X0139512Y0137664D01*
X0139565Y0137699D01*
X0139620Y0137730D01*
X0139677Y0137757D01*
X0139736Y0137782D01*
X0139796Y0137802D01*
X0139857Y0137819D01*
X0139919Y0137833D01*
X0139981Y0137842D01*
X0140045Y0137848D01*
X0140108Y0137850D01*
X0147825Y0137850D02*
X0150625Y0133650D01*
X0048625Y0133650D02*
X0045825Y0137850D01*
X0041559Y0135750D02*
X0041561Y0135638D01*
X0041566Y0135526D01*
X0041575Y0135414D01*
X0041588Y0135303D01*
X0041604Y0135192D01*
X0041624Y0135081D01*
X0041648Y0134972D01*
X0041675Y0134863D01*
X0041705Y0134755D01*
X0041739Y0134648D01*
X0041776Y0134542D01*
X0041817Y0134438D01*
X0041861Y0134335D01*
X0041909Y0134233D01*
X0042725Y0133650D02*
X0042781Y0133652D01*
X0042837Y0133657D01*
X0042893Y0133667D01*
X0042948Y0133679D01*
X0043002Y0133696D01*
X0043054Y0133715D01*
X0043106Y0133739D01*
X0043156Y0133765D01*
X0043203Y0133795D01*
X0043249Y0133827D01*
X0043293Y0133863D01*
X0043334Y0133902D01*
X0043373Y0133943D01*
X0043408Y0133986D01*
X0043441Y0134032D01*
X0043471Y0134080D01*
X0043498Y0134129D01*
X0043521Y0134180D01*
X0043541Y0134233D01*
X0043658Y0134583D02*
X0041792Y0136917D01*
X0041909Y0137267D02*
X0041929Y0137320D01*
X0041952Y0137371D01*
X0041979Y0137420D01*
X0042009Y0137468D01*
X0042042Y0137514D01*
X0042077Y0137557D01*
X0042116Y0137598D01*
X0042157Y0137637D01*
X0042201Y0137673D01*
X0042247Y0137705D01*
X0042294Y0137735D01*
X0042344Y0137761D01*
X0042396Y0137785D01*
X0042448Y0137804D01*
X0042502Y0137821D01*
X0042557Y0137833D01*
X0042613Y0137843D01*
X0042669Y0137848D01*
X0042725Y0137850D01*
X0042781Y0137848D01*
X0042837Y0137843D01*
X0042893Y0137833D01*
X0042948Y0137821D01*
X0043002Y0137804D01*
X0043054Y0137785D01*
X0043106Y0137761D01*
X0043156Y0137735D01*
X0043203Y0137705D01*
X0043249Y0137672D01*
X0043293Y0137637D01*
X0043334Y0137598D01*
X0043373Y0137557D01*
X0043408Y0137514D01*
X0043441Y0137468D01*
X0043471Y0137420D01*
X0043498Y0137371D01*
X0043521Y0137320D01*
X0043541Y0137267D01*
X0041909Y0137267D02*
X0041861Y0137165D01*
X0041817Y0137062D01*
X0041776Y0136958D01*
X0041739Y0136852D01*
X0041705Y0136745D01*
X0041675Y0136637D01*
X0041648Y0136528D01*
X0041624Y0136419D01*
X0041604Y0136308D01*
X0041588Y0136197D01*
X0041575Y0136086D01*
X0041566Y0135974D01*
X0041561Y0135862D01*
X0041559Y0135750D01*
X0043892Y0135750D02*
X0043890Y0135862D01*
X0043885Y0135974D01*
X0043876Y0136086D01*
X0043863Y0136197D01*
X0043847Y0136308D01*
X0043827Y0136419D01*
X0043803Y0136528D01*
X0043776Y0136637D01*
X0043746Y0136745D01*
X0043712Y0136852D01*
X0043675Y0136958D01*
X0043634Y0137062D01*
X0043590Y0137165D01*
X0043542Y0137267D01*
X0041909Y0134233D02*
X0041929Y0134180D01*
X0041952Y0134129D01*
X0041979Y0134080D01*
X0042009Y0134032D01*
X0042042Y0133986D01*
X0042077Y0133943D01*
X0042116Y0133902D01*
X0042157Y0133863D01*
X0042201Y0133827D01*
X0042247Y0133795D01*
X0042294Y0133765D01*
X0042344Y0133739D01*
X0042396Y0133715D01*
X0042448Y0133696D01*
X0042502Y0133679D01*
X0042557Y0133667D01*
X0042613Y0133657D01*
X0042669Y0133652D01*
X0042725Y0133650D01*
X0045825Y0133650D02*
X0048625Y0137850D01*
X0043892Y0135750D02*
X0043890Y0135638D01*
X0043885Y0135526D01*
X0043876Y0135414D01*
X0043863Y0135303D01*
X0043847Y0135192D01*
X0043827Y0135081D01*
X0043803Y0134972D01*
X0043776Y0134863D01*
X0043746Y0134755D01*
X0043712Y0134648D01*
X0043675Y0134542D01*
X0043634Y0134438D01*
X0043590Y0134335D01*
X0043542Y0134233D01*
X0039392Y0133650D02*
X0037058Y0133650D01*
X0039392Y0133650D02*
X0037408Y0135983D01*
X0038108Y0137850D02*
X0038179Y0137848D01*
X0038249Y0137843D01*
X0038319Y0137833D01*
X0038389Y0137820D01*
X0038457Y0137804D01*
X0038525Y0137784D01*
X0038592Y0137760D01*
X0038657Y0137733D01*
X0038721Y0137703D01*
X0038783Y0137669D01*
X0038843Y0137632D01*
X0038901Y0137592D01*
X0038958Y0137549D01*
X0039011Y0137503D01*
X0039062Y0137454D01*
X0039111Y0137403D01*
X0039157Y0137349D01*
X0039200Y0137293D01*
X0039240Y0137235D01*
X0039277Y0137175D01*
X0039310Y0137112D01*
X0039341Y0137049D01*
X0039368Y0136983D01*
X0039391Y0136917D01*
X0037408Y0135983D02*
X0037362Y0136030D01*
X0037319Y0136078D01*
X0037279Y0136130D01*
X0037241Y0136183D01*
X0037207Y0136239D01*
X0037177Y0136296D01*
X0037149Y0136356D01*
X0037125Y0136416D01*
X0037105Y0136478D01*
X0037088Y0136541D01*
X0037075Y0136605D01*
X0037066Y0136670D01*
X0037060Y0136735D01*
X0037058Y0136800D01*
X0037060Y0136863D01*
X0037066Y0136927D01*
X0037075Y0136989D01*
X0037089Y0137051D01*
X0037106Y0137112D01*
X0037126Y0137172D01*
X0037151Y0137231D01*
X0037178Y0137288D01*
X0037209Y0137343D01*
X0037244Y0137396D01*
X0037281Y0137448D01*
X0037322Y0137496D01*
X0037366Y0137542D01*
X0037412Y0137586D01*
X0037460Y0137627D01*
X0037512Y0137664D01*
X0037565Y0137699D01*
X0037620Y0137730D01*
X0037677Y0137757D01*
X0037736Y0137782D01*
X0037796Y0137802D01*
X0037857Y0137819D01*
X0037919Y0137833D01*
X0037981Y0137842D01*
X0038045Y0137848D01*
X0038108Y0137850D01*
X0037058Y0235650D02*
X0039392Y0235650D01*
X0037408Y0237983D01*
X0038108Y0239850D02*
X0038179Y0239848D01*
X0038249Y0239843D01*
X0038319Y0239833D01*
X0038389Y0239820D01*
X0038457Y0239804D01*
X0038525Y0239784D01*
X0038592Y0239760D01*
X0038657Y0239733D01*
X0038721Y0239703D01*
X0038783Y0239669D01*
X0038843Y0239632D01*
X0038901Y0239592D01*
X0038958Y0239549D01*
X0039011Y0239503D01*
X0039062Y0239454D01*
X0039111Y0239403D01*
X0039157Y0239349D01*
X0039200Y0239293D01*
X0039240Y0239235D01*
X0039277Y0239175D01*
X0039310Y0239112D01*
X0039341Y0239049D01*
X0039368Y0238983D01*
X0039391Y0238917D01*
X0037408Y0237983D02*
X0037362Y0238030D01*
X0037319Y0238078D01*
X0037279Y0238130D01*
X0037241Y0238183D01*
X0037207Y0238239D01*
X0037177Y0238296D01*
X0037149Y0238356D01*
X0037125Y0238416D01*
X0037105Y0238478D01*
X0037088Y0238541D01*
X0037075Y0238605D01*
X0037066Y0238670D01*
X0037060Y0238735D01*
X0037058Y0238800D01*
X0037060Y0238863D01*
X0037066Y0238927D01*
X0037075Y0238989D01*
X0037089Y0239051D01*
X0037106Y0239112D01*
X0037126Y0239172D01*
X0037151Y0239231D01*
X0037178Y0239288D01*
X0037209Y0239343D01*
X0037244Y0239396D01*
X0037281Y0239448D01*
X0037322Y0239496D01*
X0037366Y0239542D01*
X0037412Y0239586D01*
X0037460Y0239627D01*
X0037512Y0239664D01*
X0037565Y0239699D01*
X0037620Y0239730D01*
X0037677Y0239757D01*
X0037736Y0239782D01*
X0037796Y0239802D01*
X0037857Y0239819D01*
X0037919Y0239833D01*
X0037981Y0239842D01*
X0038045Y0239848D01*
X0038108Y0239850D01*
X0043892Y0237750D02*
X0043890Y0237638D01*
X0043885Y0237526D01*
X0043876Y0237414D01*
X0043863Y0237303D01*
X0043847Y0237192D01*
X0043827Y0237081D01*
X0043803Y0236972D01*
X0043776Y0236863D01*
X0043746Y0236755D01*
X0043712Y0236648D01*
X0043675Y0236542D01*
X0043634Y0236438D01*
X0043590Y0236335D01*
X0043542Y0236233D01*
X0043658Y0236583D02*
X0041792Y0238917D01*
X0041909Y0239267D02*
X0041929Y0239320D01*
X0041952Y0239371D01*
X0041979Y0239420D01*
X0042009Y0239468D01*
X0042042Y0239514D01*
X0042077Y0239557D01*
X0042116Y0239598D01*
X0042157Y0239637D01*
X0042201Y0239673D01*
X0042247Y0239705D01*
X0042294Y0239735D01*
X0042344Y0239761D01*
X0042396Y0239785D01*
X0042448Y0239804D01*
X0042502Y0239821D01*
X0042557Y0239833D01*
X0042613Y0239843D01*
X0042669Y0239848D01*
X0042725Y0239850D01*
X0042781Y0239848D01*
X0042837Y0239843D01*
X0042893Y0239833D01*
X0042948Y0239821D01*
X0043002Y0239804D01*
X0043054Y0239785D01*
X0043106Y0239761D01*
X0043156Y0239735D01*
X0043203Y0239705D01*
X0043249Y0239672D01*
X0043293Y0239637D01*
X0043334Y0239598D01*
X0043373Y0239557D01*
X0043408Y0239514D01*
X0043441Y0239468D01*
X0043471Y0239420D01*
X0043498Y0239371D01*
X0043521Y0239320D01*
X0043541Y0239267D01*
X0041909Y0239267D02*
X0041861Y0239165D01*
X0041817Y0239062D01*
X0041776Y0238958D01*
X0041739Y0238852D01*
X0041705Y0238745D01*
X0041675Y0238637D01*
X0041648Y0238528D01*
X0041624Y0238419D01*
X0041604Y0238308D01*
X0041588Y0238197D01*
X0041575Y0238086D01*
X0041566Y0237974D01*
X0041561Y0237862D01*
X0041559Y0237750D01*
X0043892Y0237750D02*
X0043890Y0237862D01*
X0043885Y0237974D01*
X0043876Y0238086D01*
X0043863Y0238197D01*
X0043847Y0238308D01*
X0043827Y0238419D01*
X0043803Y0238528D01*
X0043776Y0238637D01*
X0043746Y0238745D01*
X0043712Y0238852D01*
X0043675Y0238958D01*
X0043634Y0239062D01*
X0043590Y0239165D01*
X0043542Y0239267D01*
X0041559Y0237750D02*
X0041561Y0237638D01*
X0041566Y0237526D01*
X0041575Y0237414D01*
X0041588Y0237303D01*
X0041604Y0237192D01*
X0041624Y0237081D01*
X0041648Y0236972D01*
X0041675Y0236863D01*
X0041705Y0236755D01*
X0041739Y0236648D01*
X0041776Y0236542D01*
X0041817Y0236438D01*
X0041861Y0236335D01*
X0041909Y0236233D01*
X0042725Y0235650D02*
X0042781Y0235652D01*
X0042837Y0235657D01*
X0042893Y0235667D01*
X0042948Y0235679D01*
X0043002Y0235696D01*
X0043054Y0235715D01*
X0043106Y0235739D01*
X0043156Y0235765D01*
X0043203Y0235795D01*
X0043249Y0235827D01*
X0043293Y0235863D01*
X0043334Y0235902D01*
X0043373Y0235943D01*
X0043408Y0235986D01*
X0043441Y0236032D01*
X0043471Y0236080D01*
X0043498Y0236129D01*
X0043521Y0236180D01*
X0043541Y0236233D01*
X0042725Y0235650D02*
X0042669Y0235652D01*
X0042613Y0235657D01*
X0042557Y0235667D01*
X0042502Y0235679D01*
X0042448Y0235696D01*
X0042396Y0235715D01*
X0042344Y0235739D01*
X0042294Y0235765D01*
X0042247Y0235795D01*
X0042201Y0235827D01*
X0042157Y0235863D01*
X0042116Y0235902D01*
X0042077Y0235943D01*
X0042042Y0235986D01*
X0042009Y0236032D01*
X0041979Y0236080D01*
X0041952Y0236129D01*
X0041929Y0236180D01*
X0041909Y0236233D01*
X0045825Y0235650D02*
X0048625Y0239850D01*
X0045825Y0239850D02*
X0048625Y0235650D01*
X0139058Y0235650D02*
X0141392Y0235650D01*
X0139408Y0237983D01*
X0140108Y0239850D02*
X0140179Y0239848D01*
X0140249Y0239843D01*
X0140319Y0239833D01*
X0140389Y0239820D01*
X0140457Y0239804D01*
X0140525Y0239784D01*
X0140592Y0239760D01*
X0140657Y0239733D01*
X0140721Y0239703D01*
X0140783Y0239669D01*
X0140843Y0239632D01*
X0140901Y0239592D01*
X0140958Y0239549D01*
X0141011Y0239503D01*
X0141062Y0239454D01*
X0141111Y0239403D01*
X0141157Y0239349D01*
X0141200Y0239293D01*
X0141240Y0239235D01*
X0141277Y0239175D01*
X0141310Y0239112D01*
X0141341Y0239049D01*
X0141368Y0238983D01*
X0141391Y0238917D01*
X0139408Y0237983D02*
X0139362Y0238030D01*
X0139319Y0238078D01*
X0139279Y0238130D01*
X0139241Y0238183D01*
X0139207Y0238239D01*
X0139177Y0238296D01*
X0139149Y0238356D01*
X0139125Y0238416D01*
X0139105Y0238478D01*
X0139088Y0238541D01*
X0139075Y0238605D01*
X0139066Y0238670D01*
X0139060Y0238735D01*
X0139058Y0238800D01*
X0139060Y0238863D01*
X0139066Y0238927D01*
X0139075Y0238989D01*
X0139089Y0239051D01*
X0139106Y0239112D01*
X0139126Y0239172D01*
X0139151Y0239231D01*
X0139178Y0239288D01*
X0139209Y0239343D01*
X0139244Y0239396D01*
X0139281Y0239448D01*
X0139322Y0239496D01*
X0139366Y0239542D01*
X0139412Y0239586D01*
X0139460Y0239627D01*
X0139512Y0239664D01*
X0139565Y0239699D01*
X0139620Y0239730D01*
X0139677Y0239757D01*
X0139736Y0239782D01*
X0139796Y0239802D01*
X0139857Y0239819D01*
X0139919Y0239833D01*
X0139981Y0239842D01*
X0140045Y0239848D01*
X0140108Y0239850D01*
X0145892Y0237750D02*
X0145890Y0237638D01*
X0145885Y0237526D01*
X0145876Y0237414D01*
X0145863Y0237303D01*
X0145847Y0237192D01*
X0145827Y0237081D01*
X0145803Y0236972D01*
X0145776Y0236863D01*
X0145746Y0236755D01*
X0145712Y0236648D01*
X0145675Y0236542D01*
X0145634Y0236438D01*
X0145590Y0236335D01*
X0145542Y0236233D01*
X0145658Y0236583D02*
X0143792Y0238917D01*
X0143909Y0239267D02*
X0143929Y0239320D01*
X0143952Y0239371D01*
X0143979Y0239420D01*
X0144009Y0239468D01*
X0144042Y0239514D01*
X0144077Y0239557D01*
X0144116Y0239598D01*
X0144157Y0239637D01*
X0144201Y0239673D01*
X0144247Y0239705D01*
X0144294Y0239735D01*
X0144344Y0239761D01*
X0144396Y0239785D01*
X0144448Y0239804D01*
X0144502Y0239821D01*
X0144557Y0239833D01*
X0144613Y0239843D01*
X0144669Y0239848D01*
X0144725Y0239850D01*
X0144781Y0239848D01*
X0144837Y0239843D01*
X0144893Y0239833D01*
X0144948Y0239821D01*
X0145002Y0239804D01*
X0145054Y0239785D01*
X0145106Y0239761D01*
X0145156Y0239735D01*
X0145203Y0239705D01*
X0145249Y0239672D01*
X0145293Y0239637D01*
X0145334Y0239598D01*
X0145373Y0239557D01*
X0145408Y0239514D01*
X0145441Y0239468D01*
X0145471Y0239420D01*
X0145498Y0239371D01*
X0145521Y0239320D01*
X0145541Y0239267D01*
X0143909Y0239267D02*
X0143861Y0239165D01*
X0143817Y0239062D01*
X0143776Y0238958D01*
X0143739Y0238852D01*
X0143705Y0238745D01*
X0143675Y0238637D01*
X0143648Y0238528D01*
X0143624Y0238419D01*
X0143604Y0238308D01*
X0143588Y0238197D01*
X0143575Y0238086D01*
X0143566Y0237974D01*
X0143561Y0237862D01*
X0143559Y0237750D01*
X0145892Y0237750D02*
X0145890Y0237862D01*
X0145885Y0237974D01*
X0145876Y0238086D01*
X0145863Y0238197D01*
X0145847Y0238308D01*
X0145827Y0238419D01*
X0145803Y0238528D01*
X0145776Y0238637D01*
X0145746Y0238745D01*
X0145712Y0238852D01*
X0145675Y0238958D01*
X0145634Y0239062D01*
X0145590Y0239165D01*
X0145542Y0239267D01*
X0143559Y0237750D02*
X0143561Y0237638D01*
X0143566Y0237526D01*
X0143575Y0237414D01*
X0143588Y0237303D01*
X0143604Y0237192D01*
X0143624Y0237081D01*
X0143648Y0236972D01*
X0143675Y0236863D01*
X0143705Y0236755D01*
X0143739Y0236648D01*
X0143776Y0236542D01*
X0143817Y0236438D01*
X0143861Y0236335D01*
X0143909Y0236233D01*
X0144725Y0235650D02*
X0144781Y0235652D01*
X0144837Y0235657D01*
X0144893Y0235667D01*
X0144948Y0235679D01*
X0145002Y0235696D01*
X0145054Y0235715D01*
X0145106Y0235739D01*
X0145156Y0235765D01*
X0145203Y0235795D01*
X0145249Y0235827D01*
X0145293Y0235863D01*
X0145334Y0235902D01*
X0145373Y0235943D01*
X0145408Y0235986D01*
X0145441Y0236032D01*
X0145471Y0236080D01*
X0145498Y0236129D01*
X0145521Y0236180D01*
X0145541Y0236233D01*
X0144725Y0235650D02*
X0144669Y0235652D01*
X0144613Y0235657D01*
X0144557Y0235667D01*
X0144502Y0235679D01*
X0144448Y0235696D01*
X0144396Y0235715D01*
X0144344Y0235739D01*
X0144294Y0235765D01*
X0144247Y0235795D01*
X0144201Y0235827D01*
X0144157Y0235863D01*
X0144116Y0235902D01*
X0144077Y0235943D01*
X0144042Y0235986D01*
X0144009Y0236032D01*
X0143979Y0236080D01*
X0143952Y0236129D01*
X0143929Y0236180D01*
X0143909Y0236233D01*
X0147825Y0235650D02*
X0150625Y0239850D01*
X0147825Y0239850D02*
X0150625Y0235650D01*
X0241058Y0235650D02*
X0243392Y0235650D01*
X0241408Y0237983D01*
X0242108Y0239850D02*
X0242179Y0239848D01*
X0242249Y0239843D01*
X0242319Y0239833D01*
X0242389Y0239820D01*
X0242457Y0239804D01*
X0242525Y0239784D01*
X0242592Y0239760D01*
X0242657Y0239733D01*
X0242721Y0239703D01*
X0242783Y0239669D01*
X0242843Y0239632D01*
X0242901Y0239592D01*
X0242958Y0239549D01*
X0243011Y0239503D01*
X0243062Y0239454D01*
X0243111Y0239403D01*
X0243157Y0239349D01*
X0243200Y0239293D01*
X0243240Y0239235D01*
X0243277Y0239175D01*
X0243310Y0239112D01*
X0243341Y0239049D01*
X0243368Y0238983D01*
X0243391Y0238917D01*
X0241408Y0237983D02*
X0241362Y0238030D01*
X0241319Y0238078D01*
X0241279Y0238130D01*
X0241241Y0238183D01*
X0241207Y0238239D01*
X0241177Y0238296D01*
X0241149Y0238356D01*
X0241125Y0238416D01*
X0241105Y0238478D01*
X0241088Y0238541D01*
X0241075Y0238605D01*
X0241066Y0238670D01*
X0241060Y0238735D01*
X0241058Y0238800D01*
X0241060Y0238863D01*
X0241066Y0238927D01*
X0241075Y0238989D01*
X0241089Y0239051D01*
X0241106Y0239112D01*
X0241126Y0239172D01*
X0241151Y0239231D01*
X0241178Y0239288D01*
X0241209Y0239343D01*
X0241244Y0239396D01*
X0241281Y0239448D01*
X0241322Y0239496D01*
X0241366Y0239542D01*
X0241412Y0239586D01*
X0241460Y0239627D01*
X0241512Y0239664D01*
X0241565Y0239699D01*
X0241620Y0239730D01*
X0241677Y0239757D01*
X0241736Y0239782D01*
X0241796Y0239802D01*
X0241857Y0239819D01*
X0241919Y0239833D01*
X0241981Y0239842D01*
X0242045Y0239848D01*
X0242108Y0239850D01*
X0247892Y0237750D02*
X0247890Y0237638D01*
X0247885Y0237526D01*
X0247876Y0237414D01*
X0247863Y0237303D01*
X0247847Y0237192D01*
X0247827Y0237081D01*
X0247803Y0236972D01*
X0247776Y0236863D01*
X0247746Y0236755D01*
X0247712Y0236648D01*
X0247675Y0236542D01*
X0247634Y0236438D01*
X0247590Y0236335D01*
X0247542Y0236233D01*
X0247658Y0236583D02*
X0245792Y0238917D01*
X0245909Y0239267D02*
X0245929Y0239320D01*
X0245952Y0239371D01*
X0245979Y0239420D01*
X0246009Y0239468D01*
X0246042Y0239514D01*
X0246077Y0239557D01*
X0246116Y0239598D01*
X0246157Y0239637D01*
X0246201Y0239673D01*
X0246247Y0239705D01*
X0246294Y0239735D01*
X0246344Y0239761D01*
X0246396Y0239785D01*
X0246448Y0239804D01*
X0246502Y0239821D01*
X0246557Y0239833D01*
X0246613Y0239843D01*
X0246669Y0239848D01*
X0246725Y0239850D01*
X0246781Y0239848D01*
X0246837Y0239843D01*
X0246893Y0239833D01*
X0246948Y0239821D01*
X0247002Y0239804D01*
X0247054Y0239785D01*
X0247106Y0239761D01*
X0247156Y0239735D01*
X0247203Y0239705D01*
X0247249Y0239672D01*
X0247293Y0239637D01*
X0247334Y0239598D01*
X0247373Y0239557D01*
X0247408Y0239514D01*
X0247441Y0239468D01*
X0247471Y0239420D01*
X0247498Y0239371D01*
X0247521Y0239320D01*
X0247541Y0239267D01*
X0245909Y0239267D02*
X0245861Y0239165D01*
X0245817Y0239062D01*
X0245776Y0238958D01*
X0245739Y0238852D01*
X0245705Y0238745D01*
X0245675Y0238637D01*
X0245648Y0238528D01*
X0245624Y0238419D01*
X0245604Y0238308D01*
X0245588Y0238197D01*
X0245575Y0238086D01*
X0245566Y0237974D01*
X0245561Y0237862D01*
X0245559Y0237750D01*
X0247892Y0237750D02*
X0247890Y0237862D01*
X0247885Y0237974D01*
X0247876Y0238086D01*
X0247863Y0238197D01*
X0247847Y0238308D01*
X0247827Y0238419D01*
X0247803Y0238528D01*
X0247776Y0238637D01*
X0247746Y0238745D01*
X0247712Y0238852D01*
X0247675Y0238958D01*
X0247634Y0239062D01*
X0247590Y0239165D01*
X0247542Y0239267D01*
X0245559Y0237750D02*
X0245561Y0237638D01*
X0245566Y0237526D01*
X0245575Y0237414D01*
X0245588Y0237303D01*
X0245604Y0237192D01*
X0245624Y0237081D01*
X0245648Y0236972D01*
X0245675Y0236863D01*
X0245705Y0236755D01*
X0245739Y0236648D01*
X0245776Y0236542D01*
X0245817Y0236438D01*
X0245861Y0236335D01*
X0245909Y0236233D01*
X0246725Y0235650D02*
X0246781Y0235652D01*
X0246837Y0235657D01*
X0246893Y0235667D01*
X0246948Y0235679D01*
X0247002Y0235696D01*
X0247054Y0235715D01*
X0247106Y0235739D01*
X0247156Y0235765D01*
X0247203Y0235795D01*
X0247249Y0235827D01*
X0247293Y0235863D01*
X0247334Y0235902D01*
X0247373Y0235943D01*
X0247408Y0235986D01*
X0247441Y0236032D01*
X0247471Y0236080D01*
X0247498Y0236129D01*
X0247521Y0236180D01*
X0247541Y0236233D01*
X0246725Y0235650D02*
X0246669Y0235652D01*
X0246613Y0235657D01*
X0246557Y0235667D01*
X0246502Y0235679D01*
X0246448Y0235696D01*
X0246396Y0235715D01*
X0246344Y0235739D01*
X0246294Y0235765D01*
X0246247Y0235795D01*
X0246201Y0235827D01*
X0246157Y0235863D01*
X0246116Y0235902D01*
X0246077Y0235943D01*
X0246042Y0235986D01*
X0246009Y0236032D01*
X0245979Y0236080D01*
X0245952Y0236129D01*
X0245929Y0236180D01*
X0245909Y0236233D01*
X0249825Y0235650D02*
X0252625Y0239850D01*
X0249825Y0239850D02*
X0252625Y0235650D01*
D11*
X0272342Y0237750D03*
X0282342Y0237750D03*
X0292342Y0237750D03*
X0302342Y0237750D03*
X0200342Y0237750D03*
X0190342Y0237750D03*
X0180342Y0237750D03*
X0170342Y0237750D03*
X0098342Y0237750D03*
X0088342Y0237750D03*
X0078342Y0237750D03*
X0068342Y0237750D03*
X0068342Y0135750D03*
X0078342Y0135750D03*
X0088342Y0135750D03*
X0098342Y0135750D03*
X0170342Y0135750D03*
X0180342Y0135750D03*
X0190342Y0135750D03*
X0200342Y0135750D03*
X0272342Y0135750D03*
X0282342Y0135750D03*
X0292342Y0135750D03*
X0302342Y0135750D03*
X0302342Y0033750D03*
X0292342Y0033750D03*
X0282342Y0033750D03*
X0272342Y0033750D03*
X0200342Y0033750D03*
X0190342Y0033750D03*
X0180342Y0033750D03*
X0170342Y0033750D03*
X0098342Y0033750D03*
X0088342Y0033750D03*
X0078342Y0033750D03*
X0068342Y0033750D03*
D12*
X0129842Y0032250D03*
X0138342Y0125750D03*
X0129842Y0134250D03*
X0036342Y0125750D03*
X0036342Y0227750D03*
X0129842Y0236250D03*
X0138342Y0227750D03*
X0231842Y0236250D03*
X0240342Y0227750D03*
X0333842Y0236250D03*
X0240342Y0329750D03*
X0138342Y0329750D03*
X0036342Y0329750D03*
X0231842Y0134250D03*
X0240342Y0125750D03*
X0333842Y0134250D03*
X0333842Y0032250D03*
X0231842Y0032250D03*
D13*
X0195342Y0051750D03*
X0185342Y0051750D03*
X0185342Y0063750D03*
X0176342Y0070550D03*
X0171842Y0072750D03*
X0175842Y0075750D03*
X0176842Y0079750D03*
X0169342Y0084750D03*
X0162842Y0080750D03*
X0161342Y0084750D03*
X0168842Y0065250D03*
X0192892Y0075700D03*
X0197342Y0080750D03*
X0200342Y0083750D03*
X0208842Y0084750D03*
X0215342Y0093750D03*
X0209342Y0072750D03*
X0201342Y0072750D03*
X0192842Y0088750D03*
X0183842Y0105750D03*
X0185342Y0153750D03*
X0195342Y0153750D03*
X0185342Y0165750D03*
X0176342Y0172550D03*
X0171842Y0174750D03*
X0175842Y0177750D03*
X0176842Y0181750D03*
X0169342Y0186750D03*
X0162842Y0182750D03*
X0161342Y0186750D03*
X0168842Y0167250D03*
X0192892Y0177700D03*
X0197342Y0182750D03*
X0200342Y0185750D03*
X0208842Y0186750D03*
X0215342Y0195750D03*
X0209342Y0174750D03*
X0201342Y0174750D03*
X0192842Y0190750D03*
X0183842Y0207750D03*
X0185342Y0255750D03*
X0195342Y0255750D03*
X0185342Y0267750D03*
X0176342Y0274550D03*
X0171842Y0276750D03*
X0175842Y0279750D03*
X0176842Y0283750D03*
X0169342Y0288750D03*
X0162842Y0284750D03*
X0161342Y0288750D03*
X0168842Y0269250D03*
X0192892Y0279700D03*
X0197342Y0284750D03*
X0200342Y0287750D03*
X0208842Y0288750D03*
X0215342Y0297750D03*
X0192842Y0292750D03*
X0201342Y0276750D03*
X0209342Y0276750D03*
X0183842Y0309750D03*
X0113342Y0297750D03*
X0106842Y0288750D03*
X0098342Y0287750D03*
X0095342Y0284750D03*
X0090892Y0279700D03*
X0099342Y0276750D03*
X0107342Y0276750D03*
X0090842Y0292750D03*
X0074842Y0283750D03*
X0073842Y0279750D03*
X0069842Y0276750D03*
X0074342Y0274550D03*
X0066842Y0269250D03*
X0083342Y0267750D03*
X0083342Y0255750D03*
X0093342Y0255750D03*
X0067342Y0288750D03*
X0060842Y0284750D03*
X0059342Y0288750D03*
X0081842Y0309750D03*
X0081842Y0207750D03*
X0090842Y0190750D03*
X0098342Y0185750D03*
X0095342Y0182750D03*
X0090892Y0177700D03*
X0099342Y0174750D03*
X0107342Y0174750D03*
X0106842Y0186750D03*
X0113342Y0195750D03*
X0083342Y0165750D03*
X0074342Y0172550D03*
X0069842Y0174750D03*
X0073842Y0177750D03*
X0074842Y0181750D03*
X0067342Y0186750D03*
X0060842Y0182750D03*
X0059342Y0186750D03*
X0066842Y0167250D03*
X0083342Y0153750D03*
X0093342Y0153750D03*
X0081842Y0105750D03*
X0090842Y0088750D03*
X0098342Y0083750D03*
X0095342Y0080750D03*
X0090892Y0075700D03*
X0099342Y0072750D03*
X0107342Y0072750D03*
X0106842Y0084750D03*
X0113342Y0093750D03*
X0083342Y0063750D03*
X0074342Y0070550D03*
X0069842Y0072750D03*
X0073842Y0075750D03*
X0074842Y0079750D03*
X0067342Y0084750D03*
X0060842Y0080750D03*
X0059342Y0084750D03*
X0066842Y0065250D03*
X0083342Y0051750D03*
X0093342Y0051750D03*
X0263342Y0084750D03*
X0264842Y0080750D03*
X0271342Y0084750D03*
X0278842Y0079750D03*
X0277842Y0075750D03*
X0273842Y0072750D03*
X0278342Y0070550D03*
X0270842Y0065250D03*
X0287342Y0063750D03*
X0287342Y0051750D03*
X0297342Y0051750D03*
X0303342Y0072750D03*
X0311342Y0072750D03*
X0302342Y0083750D03*
X0299342Y0080750D03*
X0294892Y0075700D03*
X0294842Y0088750D03*
X0310842Y0084750D03*
X0317342Y0093750D03*
X0285842Y0105750D03*
X0287342Y0153750D03*
X0297342Y0153750D03*
X0287342Y0165750D03*
X0278342Y0172550D03*
X0273842Y0174750D03*
X0277842Y0177750D03*
X0278842Y0181750D03*
X0271342Y0186750D03*
X0264842Y0182750D03*
X0263342Y0186750D03*
X0270842Y0167250D03*
X0294892Y0177700D03*
X0299342Y0182750D03*
X0302342Y0185750D03*
X0310842Y0186750D03*
X0317342Y0195750D03*
X0311342Y0174750D03*
X0303342Y0174750D03*
X0294842Y0190750D03*
X0285842Y0207750D03*
X0287342Y0255750D03*
X0297342Y0255750D03*
X0287342Y0267750D03*
X0278342Y0274550D03*
X0273842Y0276750D03*
X0277842Y0279750D03*
X0278842Y0283750D03*
X0271342Y0288750D03*
X0264842Y0284750D03*
X0263342Y0288750D03*
X0270842Y0269250D03*
X0294892Y0279700D03*
X0299342Y0284750D03*
X0302342Y0287750D03*
X0310842Y0288750D03*
X0317342Y0297750D03*
X0311342Y0276750D03*
X0303342Y0276750D03*
X0294842Y0292750D03*
X0285842Y0309750D03*
D14*
X0287842Y0307649D02*
X0288300Y0308107D01*
X0288742Y0309173D01*
X0288742Y0310327D01*
X0288300Y0311393D01*
X0287485Y0312208D01*
X0286419Y0312650D01*
X0285265Y0312650D01*
X0284199Y0312208D01*
X0283383Y0311393D01*
X0282942Y0310327D01*
X0282942Y0309173D01*
X0283383Y0308107D01*
X0283842Y0307649D01*
X0283842Y0288467D01*
X0278925Y0283550D01*
X0278813Y0283550D01*
X0277913Y0282650D01*
X0277265Y0282650D01*
X0276199Y0282208D01*
X0275383Y0281393D01*
X0274942Y0280327D01*
X0274942Y0279433D01*
X0274419Y0279650D01*
X0273265Y0279650D01*
X0272199Y0279208D01*
X0271383Y0278393D01*
X0271279Y0278141D01*
X0267042Y0282378D01*
X0267042Y0282849D01*
X0267300Y0283107D01*
X0267742Y0284173D01*
X0267742Y0285327D01*
X0267300Y0286393D01*
X0266485Y0287208D01*
X0265419Y0287650D01*
X0264265Y0287650D01*
X0263199Y0287208D01*
X0262383Y0286393D01*
X0261942Y0285327D01*
X0261942Y0284173D01*
X0262383Y0283107D01*
X0262642Y0282849D01*
X0262642Y0280556D01*
X0277648Y0265550D01*
X0285441Y0265550D01*
X0285699Y0265291D01*
X0286765Y0264850D01*
X0287131Y0264850D01*
X0288142Y0263839D01*
X0288142Y0246661D01*
X0284275Y0242794D01*
X0283416Y0243150D01*
X0281268Y0243150D01*
X0279283Y0242328D01*
X0277764Y0240809D01*
X0277232Y0239526D01*
X0277161Y0239746D01*
X0276789Y0240475D01*
X0276308Y0241138D01*
X0275729Y0241716D01*
X0275067Y0242197D01*
X0274338Y0242569D01*
X0273559Y0242822D01*
X0272842Y0242936D01*
X0272842Y0238250D01*
X0271842Y0238250D01*
X0271842Y0242936D01*
X0271124Y0242822D01*
X0270346Y0242569D01*
X0269616Y0242197D01*
X0268954Y0241716D01*
X0268375Y0241138D01*
X0267894Y0240475D01*
X0267523Y0239746D01*
X0267270Y0238968D01*
X0267156Y0238250D01*
X0271842Y0238250D01*
X0271842Y0237250D01*
X0267156Y0237250D01*
X0267270Y0236532D01*
X0267523Y0235754D01*
X0267894Y0235025D01*
X0268021Y0234850D01*
X0254607Y0234850D01*
X0254855Y0236091D01*
X0253749Y0237750D01*
X0254855Y0239409D01*
X0254514Y0241115D01*
X0253066Y0242080D01*
X0251360Y0241739D01*
X0251225Y0241536D01*
X0251090Y0241739D01*
X0249384Y0242080D01*
X0248406Y0241428D01*
X0247675Y0241950D01*
X0245775Y0241950D01*
X0244478Y0241024D01*
X0244182Y0241353D01*
X0243088Y0241841D01*
X0242978Y0241950D01*
X0242108Y0241950D01*
X0241264Y0241950D01*
X0241239Y0241950D01*
X0241203Y0241915D01*
X0239803Y0241106D01*
X0239803Y0241106D01*
X0239442Y0240481D01*
X0239442Y0317633D01*
X0240030Y0316615D01*
X0240030Y0316615D01*
X0242569Y0314484D01*
X0242569Y0314484D01*
X0245684Y0313350D01*
X0248999Y0313350D01*
X0252114Y0314484D01*
X0252114Y0314484D01*
X0254654Y0316615D01*
X0256311Y0319485D01*
X0256311Y0319485D01*
X0256887Y0322750D01*
X0256311Y0326015D01*
X0254654Y0328885D01*
X0252551Y0330650D01*
X0322133Y0330650D01*
X0320030Y0328885D01*
X0318372Y0326015D01*
X0318372Y0326015D01*
X0317797Y0322750D01*
X0318372Y0319485D01*
X0320030Y0316615D01*
X0320030Y0316615D01*
X0322569Y0314484D01*
X0322569Y0314484D01*
X0325684Y0313350D01*
X0328999Y0313350D01*
X0332114Y0314484D01*
X0332114Y0314484D01*
X0334654Y0316615D01*
X0335242Y0317633D01*
X0335242Y0238863D01*
X0334429Y0239200D01*
X0333255Y0239200D01*
X0332171Y0238751D01*
X0331341Y0237921D01*
X0330892Y0236837D01*
X0330892Y0235663D01*
X0331229Y0234850D01*
X0306985Y0234850D01*
X0307742Y0236676D01*
X0307742Y0238824D01*
X0306920Y0240809D01*
X0305401Y0242328D01*
X0304342Y0242766D01*
X0304342Y0269678D01*
X0299470Y0274550D01*
X0310770Y0285850D01*
X0311419Y0285850D01*
X0312485Y0286291D01*
X0313300Y0287107D01*
X0313742Y0288173D01*
X0313742Y0289327D01*
X0313300Y0290393D01*
X0312485Y0291208D01*
X0311419Y0291650D01*
X0310265Y0291650D01*
X0309199Y0291208D01*
X0308383Y0290393D01*
X0307942Y0289327D01*
X0307942Y0288678D01*
X0295813Y0276550D01*
X0280970Y0276550D01*
X0287170Y0282750D01*
X0297241Y0282750D01*
X0297699Y0282291D01*
X0298765Y0281850D01*
X0299919Y0281850D01*
X0300985Y0282291D01*
X0301800Y0283107D01*
X0302242Y0284173D01*
X0302242Y0285327D01*
X0301800Y0286393D01*
X0300985Y0287208D01*
X0299919Y0287650D01*
X0298765Y0287650D01*
X0297699Y0287208D01*
X0297241Y0286750D01*
X0287781Y0286750D01*
X0287842Y0286810D01*
X0287842Y0307649D01*
X0287842Y0307335D02*
X0335242Y0307335D01*
X0335242Y0308333D02*
X0288394Y0308333D01*
X0288742Y0309332D02*
X0335242Y0309332D01*
X0335242Y0310330D02*
X0288740Y0310330D01*
X0288327Y0311329D02*
X0335242Y0311329D01*
X0335242Y0312327D02*
X0287198Y0312327D01*
X0284486Y0312327D02*
X0239442Y0312327D01*
X0239442Y0311329D02*
X0283357Y0311329D01*
X0282943Y0310330D02*
X0239442Y0310330D01*
X0239442Y0309332D02*
X0282942Y0309332D01*
X0283290Y0308333D02*
X0239442Y0308333D01*
X0239442Y0307335D02*
X0283842Y0307335D01*
X0283842Y0306336D02*
X0239442Y0306336D01*
X0239442Y0305338D02*
X0283842Y0305338D01*
X0283842Y0304339D02*
X0239442Y0304339D01*
X0239442Y0303341D02*
X0283842Y0303341D01*
X0283842Y0302342D02*
X0239442Y0302342D01*
X0239442Y0301344D02*
X0283842Y0301344D01*
X0283842Y0300345D02*
X0239442Y0300345D01*
X0239442Y0299347D02*
X0283842Y0299347D01*
X0283842Y0298348D02*
X0239442Y0298348D01*
X0239442Y0297350D02*
X0283842Y0297350D01*
X0283842Y0296351D02*
X0239442Y0296351D01*
X0239442Y0295353D02*
X0283842Y0295353D01*
X0283842Y0294354D02*
X0239442Y0294354D01*
X0239442Y0293355D02*
X0283842Y0293355D01*
X0283842Y0292357D02*
X0239442Y0292357D01*
X0239442Y0291358D02*
X0283842Y0291358D01*
X0283842Y0290360D02*
X0239442Y0290360D01*
X0239442Y0289361D02*
X0283842Y0289361D01*
X0283738Y0288363D02*
X0239442Y0288363D01*
X0239442Y0287364D02*
X0263576Y0287364D01*
X0262372Y0286366D02*
X0239442Y0286366D01*
X0239442Y0285367D02*
X0261959Y0285367D01*
X0261942Y0284369D02*
X0239442Y0284369D01*
X0239442Y0283370D02*
X0262274Y0283370D01*
X0262642Y0282372D02*
X0239442Y0282372D01*
X0239442Y0281373D02*
X0262642Y0281373D01*
X0262823Y0280375D02*
X0239442Y0280375D01*
X0239442Y0279376D02*
X0263821Y0279376D01*
X0264820Y0278378D02*
X0239442Y0278378D01*
X0239442Y0277379D02*
X0265818Y0277379D01*
X0266817Y0276381D02*
X0239442Y0276381D01*
X0239442Y0275382D02*
X0267815Y0275382D01*
X0268814Y0274384D02*
X0239442Y0274384D01*
X0239442Y0273385D02*
X0269812Y0273385D01*
X0270811Y0272387D02*
X0239442Y0272387D01*
X0239442Y0271388D02*
X0271809Y0271388D01*
X0272808Y0270390D02*
X0239442Y0270390D01*
X0239442Y0269391D02*
X0273806Y0269391D01*
X0274805Y0268393D02*
X0239442Y0268393D01*
X0239442Y0267394D02*
X0275803Y0267394D01*
X0276802Y0266396D02*
X0239442Y0266396D01*
X0239442Y0265397D02*
X0285593Y0265397D01*
X0287582Y0264399D02*
X0239442Y0264399D01*
X0239442Y0263400D02*
X0288142Y0263400D01*
X0288142Y0262402D02*
X0239442Y0262402D01*
X0239442Y0261403D02*
X0288142Y0261403D01*
X0288142Y0260405D02*
X0239442Y0260405D01*
X0239442Y0259406D02*
X0288142Y0259406D01*
X0288142Y0258408D02*
X0239442Y0258408D01*
X0239442Y0257409D02*
X0288142Y0257409D01*
X0288142Y0256411D02*
X0239442Y0256411D01*
X0239442Y0255412D02*
X0288142Y0255412D01*
X0288142Y0254414D02*
X0239442Y0254414D01*
X0239442Y0253415D02*
X0288142Y0253415D01*
X0288142Y0252417D02*
X0239442Y0252417D01*
X0239442Y0251418D02*
X0288142Y0251418D01*
X0288142Y0250420D02*
X0239442Y0250420D01*
X0239442Y0249421D02*
X0288142Y0249421D01*
X0288142Y0248422D02*
X0239442Y0248422D01*
X0239442Y0247424D02*
X0288142Y0247424D01*
X0287906Y0246425D02*
X0239442Y0246425D01*
X0239442Y0245427D02*
X0286907Y0245427D01*
X0285909Y0244428D02*
X0239442Y0244428D01*
X0239442Y0243430D02*
X0284910Y0243430D01*
X0279533Y0242431D02*
X0274608Y0242431D01*
X0276013Y0241433D02*
X0278388Y0241433D01*
X0277609Y0240434D02*
X0276810Y0240434D01*
X0272842Y0240434D02*
X0271842Y0240434D01*
X0271842Y0239436D02*
X0272842Y0239436D01*
X0272842Y0238437D02*
X0271842Y0238437D01*
X0271842Y0237439D02*
X0253956Y0237439D01*
X0254207Y0238437D02*
X0267186Y0238437D01*
X0267422Y0239436D02*
X0254850Y0239436D01*
X0254650Y0240434D02*
X0267873Y0240434D01*
X0268671Y0241433D02*
X0254037Y0241433D01*
X0248414Y0241433D02*
X0248399Y0241433D01*
X0245052Y0241433D02*
X0244003Y0241433D01*
X0244182Y0241353D02*
X0244182Y0241353D01*
X0244182Y0241353D01*
X0240369Y0241433D02*
X0239442Y0241433D01*
X0239442Y0242431D02*
X0270076Y0242431D01*
X0271842Y0242431D02*
X0272842Y0242431D01*
X0272842Y0241433D02*
X0271842Y0241433D01*
X0267300Y0236440D02*
X0254622Y0236440D01*
X0254725Y0235442D02*
X0267682Y0235442D01*
X0255479Y0225457D02*
X0319205Y0225457D01*
X0319782Y0226455D02*
X0254902Y0226455D01*
X0254654Y0226885D02*
X0254654Y0226885D01*
X0252551Y0228650D01*
X0322133Y0228650D01*
X0320030Y0226885D01*
X0318372Y0224015D01*
X0318372Y0224015D01*
X0317797Y0220750D01*
X0318372Y0217485D01*
X0320030Y0214615D01*
X0320030Y0214615D01*
X0322569Y0212484D01*
X0322569Y0212484D01*
X0325684Y0211350D01*
X0328999Y0211350D01*
X0332114Y0212484D01*
X0332114Y0212484D01*
X0334654Y0214615D01*
X0335242Y0215633D01*
X0335242Y0136863D01*
X0334429Y0137200D01*
X0333255Y0137200D01*
X0332171Y0136751D01*
X0331341Y0135921D01*
X0330892Y0134837D01*
X0330892Y0133663D01*
X0331229Y0132850D01*
X0306985Y0132850D01*
X0307742Y0134676D01*
X0307742Y0136824D01*
X0306920Y0138809D01*
X0305401Y0140328D01*
X0304342Y0140766D01*
X0304342Y0167678D01*
X0299470Y0172550D01*
X0310770Y0183850D01*
X0311419Y0183850D01*
X0312485Y0184291D01*
X0313300Y0185107D01*
X0313742Y0186173D01*
X0313742Y0187327D01*
X0313300Y0188393D01*
X0312485Y0189208D01*
X0311419Y0189650D01*
X0310265Y0189650D01*
X0309199Y0189208D01*
X0308383Y0188393D01*
X0307942Y0187327D01*
X0307942Y0186678D01*
X0295813Y0174550D01*
X0280970Y0174550D01*
X0287170Y0180750D01*
X0297241Y0180750D01*
X0297699Y0180291D01*
X0298765Y0179850D01*
X0299919Y0179850D01*
X0300985Y0180291D01*
X0301800Y0181107D01*
X0302242Y0182173D01*
X0302242Y0183327D01*
X0301800Y0184393D01*
X0300985Y0185208D01*
X0299919Y0185650D01*
X0298765Y0185650D01*
X0297699Y0185208D01*
X0297241Y0184750D01*
X0287781Y0184750D01*
X0287842Y0184810D01*
X0287842Y0205649D01*
X0288300Y0206107D01*
X0288742Y0207173D01*
X0288742Y0208327D01*
X0288300Y0209393D01*
X0287485Y0210208D01*
X0286419Y0210650D01*
X0285265Y0210650D01*
X0284199Y0210208D01*
X0283383Y0209393D01*
X0282942Y0208327D01*
X0282942Y0207173D01*
X0283383Y0206107D01*
X0283842Y0205649D01*
X0283842Y0186467D01*
X0278925Y0181550D01*
X0278813Y0181550D01*
X0277913Y0180650D01*
X0277265Y0180650D01*
X0276199Y0180208D01*
X0275383Y0179393D01*
X0274942Y0178327D01*
X0274942Y0177433D01*
X0274419Y0177650D01*
X0273265Y0177650D01*
X0272199Y0177208D01*
X0271383Y0176393D01*
X0271279Y0176141D01*
X0267042Y0180378D01*
X0267042Y0180849D01*
X0267300Y0181107D01*
X0267742Y0182173D01*
X0267742Y0183327D01*
X0267300Y0184393D01*
X0266485Y0185208D01*
X0265419Y0185650D01*
X0264265Y0185650D01*
X0263199Y0185208D01*
X0262383Y0184393D01*
X0261942Y0183327D01*
X0261942Y0182173D01*
X0262383Y0181107D01*
X0262642Y0180849D01*
X0262642Y0178556D01*
X0277648Y0163550D01*
X0285441Y0163550D01*
X0285699Y0163291D01*
X0286765Y0162850D01*
X0287131Y0162850D01*
X0288142Y0161839D01*
X0288142Y0144661D01*
X0284275Y0140794D01*
X0283416Y0141150D01*
X0281268Y0141150D01*
X0279283Y0140328D01*
X0277764Y0138809D01*
X0277232Y0137526D01*
X0277161Y0137746D01*
X0276789Y0138475D01*
X0276308Y0139138D01*
X0275729Y0139716D01*
X0275067Y0140197D01*
X0274338Y0140569D01*
X0273559Y0140822D01*
X0272842Y0140936D01*
X0272842Y0136250D01*
X0271842Y0136250D01*
X0271842Y0140936D01*
X0271124Y0140822D01*
X0270346Y0140569D01*
X0269616Y0140197D01*
X0268954Y0139716D01*
X0268375Y0139138D01*
X0267894Y0138475D01*
X0267523Y0137746D01*
X0267270Y0136968D01*
X0267156Y0136250D01*
X0271842Y0136250D01*
X0271842Y0135250D01*
X0267156Y0135250D01*
X0267270Y0134532D01*
X0267523Y0133754D01*
X0267894Y0133025D01*
X0268021Y0132850D01*
X0254607Y0132850D01*
X0254855Y0134091D01*
X0253749Y0135750D01*
X0254855Y0137409D01*
X0254514Y0139115D01*
X0253066Y0140080D01*
X0251360Y0139739D01*
X0251225Y0139536D01*
X0251090Y0139739D01*
X0249384Y0140080D01*
X0248406Y0139428D01*
X0247675Y0139950D01*
X0245775Y0139950D01*
X0244478Y0139024D01*
X0244182Y0139353D01*
X0243088Y0139841D01*
X0242978Y0139950D01*
X0242108Y0139950D01*
X0241264Y0139950D01*
X0241239Y0139950D01*
X0241203Y0139915D01*
X0239803Y0139106D01*
X0239803Y0139106D01*
X0239442Y0138481D01*
X0239442Y0215633D01*
X0240030Y0214615D01*
X0240030Y0214615D01*
X0242569Y0212484D01*
X0242569Y0212484D01*
X0245684Y0211350D01*
X0248999Y0211350D01*
X0252114Y0212484D01*
X0252114Y0212484D01*
X0254654Y0214615D01*
X0256311Y0217485D01*
X0256311Y0217485D01*
X0256887Y0220750D01*
X0256311Y0224015D01*
X0254654Y0226885D01*
X0253976Y0227454D02*
X0320707Y0227454D01*
X0320030Y0226885D02*
X0320030Y0226885D01*
X0320030Y0226885D01*
X0321897Y0228452D02*
X0252786Y0228452D01*
X0256055Y0224458D02*
X0318629Y0224458D01*
X0318275Y0223460D02*
X0256409Y0223460D01*
X0256311Y0224015D02*
X0256311Y0224015D01*
X0256585Y0222461D02*
X0318099Y0222461D01*
X0317922Y0221463D02*
X0256761Y0221463D01*
X0256887Y0220750D02*
X0256887Y0220750D01*
X0256836Y0220464D02*
X0317847Y0220464D01*
X0317797Y0220750D02*
X0317797Y0220750D01*
X0318023Y0219466D02*
X0256660Y0219466D01*
X0256484Y0218467D02*
X0318199Y0218467D01*
X0318372Y0217485D02*
X0318372Y0217485D01*
X0318382Y0217469D02*
X0256301Y0217469D01*
X0255725Y0216470D02*
X0318959Y0216470D01*
X0319535Y0215472D02*
X0255148Y0215472D01*
X0254654Y0214615D02*
X0254654Y0214615D01*
X0254654Y0214615D01*
X0254485Y0214473D02*
X0320198Y0214473D01*
X0321388Y0213475D02*
X0253295Y0213475D01*
X0252093Y0212476D02*
X0322590Y0212476D01*
X0325334Y0211478D02*
X0249350Y0211478D01*
X0245334Y0211478D02*
X0239442Y0211478D01*
X0239442Y0212476D02*
X0242590Y0212476D01*
X0241388Y0213475D02*
X0239442Y0213475D01*
X0239442Y0214473D02*
X0240198Y0214473D01*
X0239535Y0215472D02*
X0239442Y0215472D01*
X0239442Y0210479D02*
X0284852Y0210479D01*
X0283471Y0209481D02*
X0239442Y0209481D01*
X0239442Y0208482D02*
X0283006Y0208482D01*
X0282942Y0207484D02*
X0239442Y0207484D01*
X0239442Y0206485D02*
X0283227Y0206485D01*
X0283842Y0205487D02*
X0239442Y0205487D01*
X0239442Y0204488D02*
X0283842Y0204488D01*
X0283842Y0203489D02*
X0239442Y0203489D01*
X0239442Y0202491D02*
X0283842Y0202491D01*
X0283842Y0201492D02*
X0239442Y0201492D01*
X0239442Y0200494D02*
X0283842Y0200494D01*
X0283842Y0199495D02*
X0239442Y0199495D01*
X0239442Y0198497D02*
X0283842Y0198497D01*
X0283842Y0197498D02*
X0239442Y0197498D01*
X0239442Y0196500D02*
X0283842Y0196500D01*
X0283842Y0195501D02*
X0239442Y0195501D01*
X0239442Y0194503D02*
X0283842Y0194503D01*
X0283842Y0193504D02*
X0239442Y0193504D01*
X0239442Y0192506D02*
X0283842Y0192506D01*
X0283842Y0191507D02*
X0239442Y0191507D01*
X0239442Y0190509D02*
X0283842Y0190509D01*
X0283842Y0189510D02*
X0239442Y0189510D01*
X0239442Y0188512D02*
X0283842Y0188512D01*
X0283842Y0187513D02*
X0239442Y0187513D01*
X0239442Y0186515D02*
X0283842Y0186515D01*
X0282891Y0185516D02*
X0265741Y0185516D01*
X0267175Y0184518D02*
X0281892Y0184518D01*
X0280894Y0183519D02*
X0267662Y0183519D01*
X0267742Y0182521D02*
X0279895Y0182521D01*
X0278786Y0181522D02*
X0267472Y0181522D01*
X0267042Y0180524D02*
X0276960Y0180524D01*
X0275516Y0179525D02*
X0267895Y0179525D01*
X0268894Y0178527D02*
X0275025Y0178527D01*
X0274942Y0177528D02*
X0274713Y0177528D01*
X0272971Y0177528D02*
X0269892Y0177528D01*
X0270891Y0176530D02*
X0271520Y0176530D01*
X0267664Y0173534D02*
X0239442Y0173534D01*
X0239442Y0172536D02*
X0268662Y0172536D01*
X0269661Y0171537D02*
X0239442Y0171537D01*
X0239442Y0170539D02*
X0270659Y0170539D01*
X0271658Y0169540D02*
X0239442Y0169540D01*
X0239442Y0168542D02*
X0272656Y0168542D01*
X0273655Y0167543D02*
X0239442Y0167543D01*
X0239442Y0166545D02*
X0274653Y0166545D01*
X0275652Y0165546D02*
X0239442Y0165546D01*
X0239442Y0164548D02*
X0276650Y0164548D01*
X0278559Y0165750D02*
X0264842Y0179467D01*
X0264842Y0182750D01*
X0262211Y0181522D02*
X0239442Y0181522D01*
X0239442Y0180524D02*
X0262642Y0180524D01*
X0262642Y0179525D02*
X0239442Y0179525D01*
X0239442Y0178527D02*
X0262671Y0178527D01*
X0263669Y0177528D02*
X0239442Y0177528D01*
X0239442Y0176530D02*
X0264668Y0176530D01*
X0265667Y0175531D02*
X0239442Y0175531D01*
X0239442Y0174533D02*
X0266665Y0174533D01*
X0261942Y0182521D02*
X0239442Y0182521D01*
X0239442Y0183519D02*
X0262022Y0183519D01*
X0262508Y0184518D02*
X0239442Y0184518D01*
X0239442Y0185516D02*
X0263942Y0185516D01*
X0281951Y0175531D02*
X0296795Y0175531D01*
X0297793Y0176530D02*
X0282950Y0176530D01*
X0283948Y0177528D02*
X0298792Y0177528D01*
X0299790Y0178527D02*
X0284947Y0178527D01*
X0285945Y0179525D02*
X0300789Y0179525D01*
X0300336Y0180350D02*
X0302342Y0182356D01*
X0302342Y0185750D01*
X0301675Y0184518D02*
X0305781Y0184518D01*
X0306780Y0185516D02*
X0300241Y0185516D01*
X0298442Y0185516D02*
X0287842Y0185516D01*
X0287842Y0186515D02*
X0307778Y0186515D01*
X0308019Y0187513D02*
X0287842Y0187513D01*
X0287842Y0188512D02*
X0308502Y0188512D01*
X0309928Y0189510D02*
X0287842Y0189510D01*
X0287842Y0190509D02*
X0335242Y0190509D01*
X0335242Y0191507D02*
X0287842Y0191507D01*
X0287842Y0192506D02*
X0335242Y0192506D01*
X0335242Y0193504D02*
X0287842Y0193504D01*
X0287842Y0194503D02*
X0335242Y0194503D01*
X0335242Y0195501D02*
X0287842Y0195501D01*
X0287842Y0196500D02*
X0335242Y0196500D01*
X0335242Y0197498D02*
X0287842Y0197498D01*
X0287842Y0198497D02*
X0335242Y0198497D01*
X0335242Y0199495D02*
X0287842Y0199495D01*
X0287842Y0200494D02*
X0335242Y0200494D01*
X0335242Y0201492D02*
X0287842Y0201492D01*
X0287842Y0202491D02*
X0335242Y0202491D01*
X0335242Y0203489D02*
X0287842Y0203489D01*
X0287842Y0204488D02*
X0335242Y0204488D01*
X0335242Y0205487D02*
X0287842Y0205487D01*
X0288457Y0206485D02*
X0335242Y0206485D01*
X0335242Y0207484D02*
X0288742Y0207484D01*
X0288678Y0208482D02*
X0335242Y0208482D01*
X0335242Y0209481D02*
X0288212Y0209481D01*
X0286831Y0210479D02*
X0335242Y0210479D01*
X0335242Y0211478D02*
X0329350Y0211478D01*
X0332093Y0212476D02*
X0335242Y0212476D01*
X0335242Y0213475D02*
X0333295Y0213475D01*
X0334485Y0214473D02*
X0335242Y0214473D01*
X0334654Y0214615D02*
X0334654Y0214615D01*
X0334654Y0214615D01*
X0335148Y0215472D02*
X0335242Y0215472D01*
X0330983Y0235442D02*
X0307231Y0235442D01*
X0307644Y0236440D02*
X0330892Y0236440D01*
X0331141Y0237439D02*
X0307742Y0237439D01*
X0307742Y0238437D02*
X0331857Y0238437D01*
X0335242Y0239436D02*
X0307488Y0239436D01*
X0307075Y0240434D02*
X0335242Y0240434D01*
X0335242Y0241433D02*
X0306296Y0241433D01*
X0305151Y0242431D02*
X0335242Y0242431D01*
X0335242Y0243430D02*
X0304342Y0243430D01*
X0304342Y0244428D02*
X0335242Y0244428D01*
X0335242Y0245427D02*
X0304342Y0245427D01*
X0304342Y0246425D02*
X0335242Y0246425D01*
X0335242Y0247424D02*
X0304342Y0247424D01*
X0304342Y0248422D02*
X0335242Y0248422D01*
X0335242Y0249421D02*
X0304342Y0249421D01*
X0304342Y0250420D02*
X0335242Y0250420D01*
X0335242Y0251418D02*
X0304342Y0251418D01*
X0304342Y0252417D02*
X0335242Y0252417D01*
X0335242Y0253415D02*
X0304342Y0253415D01*
X0304342Y0254414D02*
X0335242Y0254414D01*
X0335242Y0255412D02*
X0304342Y0255412D01*
X0304342Y0256411D02*
X0335242Y0256411D01*
X0335242Y0257409D02*
X0304342Y0257409D01*
X0304342Y0258408D02*
X0335242Y0258408D01*
X0335242Y0259406D02*
X0304342Y0259406D01*
X0304342Y0260405D02*
X0335242Y0260405D01*
X0335242Y0261403D02*
X0304342Y0261403D01*
X0304342Y0262402D02*
X0335242Y0262402D01*
X0335242Y0263400D02*
X0304342Y0263400D01*
X0304342Y0264399D02*
X0335242Y0264399D01*
X0335242Y0265397D02*
X0304342Y0265397D01*
X0304342Y0266396D02*
X0335242Y0266396D01*
X0335242Y0267394D02*
X0304342Y0267394D01*
X0304342Y0268393D02*
X0335242Y0268393D01*
X0335242Y0269391D02*
X0304342Y0269391D01*
X0303630Y0270390D02*
X0335242Y0270390D01*
X0335242Y0271388D02*
X0302632Y0271388D01*
X0301633Y0272387D02*
X0335242Y0272387D01*
X0335242Y0273385D02*
X0300635Y0273385D01*
X0299636Y0274384D02*
X0335242Y0274384D01*
X0335242Y0275382D02*
X0300303Y0275382D01*
X0301301Y0276381D02*
X0335242Y0276381D01*
X0335242Y0277379D02*
X0302300Y0277379D01*
X0303298Y0278378D02*
X0335242Y0278378D01*
X0335242Y0279376D02*
X0304297Y0279376D01*
X0305295Y0280375D02*
X0335242Y0280375D01*
X0335242Y0281373D02*
X0306294Y0281373D01*
X0307292Y0282372D02*
X0335242Y0282372D01*
X0335242Y0283370D02*
X0308291Y0283370D01*
X0309289Y0284369D02*
X0335242Y0284369D01*
X0335242Y0285367D02*
X0310288Y0285367D01*
X0312559Y0286366D02*
X0335242Y0286366D01*
X0335242Y0287364D02*
X0313407Y0287364D01*
X0313742Y0288363D02*
X0335242Y0288363D01*
X0335242Y0289361D02*
X0313727Y0289361D01*
X0313314Y0290360D02*
X0335242Y0290360D01*
X0335242Y0291358D02*
X0312122Y0291358D01*
X0309561Y0291358D02*
X0287842Y0291358D01*
X0287842Y0290360D02*
X0308370Y0290360D01*
X0307956Y0289361D02*
X0287842Y0289361D01*
X0287842Y0288363D02*
X0307626Y0288363D01*
X0306628Y0287364D02*
X0300608Y0287364D01*
X0301811Y0286366D02*
X0305629Y0286366D01*
X0304631Y0285367D02*
X0302225Y0285367D01*
X0302242Y0284369D02*
X0303632Y0284369D01*
X0302342Y0284356D02*
X0302342Y0287750D01*
X0302342Y0284356D02*
X0300336Y0282350D01*
X0297542Y0282350D01*
X0294892Y0279700D01*
X0296643Y0277379D02*
X0281800Y0277379D01*
X0282798Y0278378D02*
X0297641Y0278378D01*
X0298640Y0279376D02*
X0283797Y0279376D01*
X0284795Y0280375D02*
X0299638Y0280375D01*
X0300637Y0281373D02*
X0285794Y0281373D01*
X0286792Y0282372D02*
X0297619Y0282372D01*
X0301065Y0282372D02*
X0301635Y0282372D01*
X0301909Y0283370D02*
X0302634Y0283370D01*
X0298076Y0287364D02*
X0287842Y0287364D01*
X0287842Y0292357D02*
X0335242Y0292357D01*
X0335242Y0293355D02*
X0287842Y0293355D01*
X0287842Y0294354D02*
X0335242Y0294354D01*
X0335242Y0295353D02*
X0287842Y0295353D01*
X0287842Y0296351D02*
X0335242Y0296351D01*
X0335242Y0297350D02*
X0287842Y0297350D01*
X0287842Y0298348D02*
X0335242Y0298348D01*
X0335242Y0299347D02*
X0287842Y0299347D01*
X0287842Y0300345D02*
X0335242Y0300345D01*
X0335242Y0301344D02*
X0287842Y0301344D01*
X0287842Y0302342D02*
X0335242Y0302342D01*
X0335242Y0303341D02*
X0287842Y0303341D01*
X0287842Y0304339D02*
X0335242Y0304339D01*
X0335242Y0305338D02*
X0287842Y0305338D01*
X0287842Y0306336D02*
X0335242Y0306336D01*
X0335242Y0313326D02*
X0239442Y0313326D01*
X0239442Y0314324D02*
X0243008Y0314324D01*
X0241569Y0315323D02*
X0239442Y0315323D01*
X0239442Y0316321D02*
X0240379Y0316321D01*
X0239623Y0317320D02*
X0239442Y0317320D01*
X0233242Y0317320D02*
X0233061Y0317320D01*
X0233242Y0317633D02*
X0233242Y0238863D01*
X0232429Y0239200D01*
X0231255Y0239200D01*
X0230171Y0238751D01*
X0229341Y0237921D01*
X0228892Y0236837D01*
X0228892Y0235663D01*
X0229229Y0234850D01*
X0204985Y0234850D01*
X0205742Y0236676D01*
X0205742Y0238824D01*
X0204920Y0240809D01*
X0203401Y0242328D01*
X0202342Y0242766D01*
X0202342Y0269678D01*
X0197470Y0274550D01*
X0208770Y0285850D01*
X0209419Y0285850D01*
X0210485Y0286291D01*
X0211300Y0287107D01*
X0211742Y0288173D01*
X0211742Y0289327D01*
X0211300Y0290393D01*
X0210485Y0291208D01*
X0209419Y0291650D01*
X0208265Y0291650D01*
X0207199Y0291208D01*
X0206383Y0290393D01*
X0205942Y0289327D01*
X0205942Y0288678D01*
X0193813Y0276550D01*
X0178970Y0276550D01*
X0185170Y0282750D01*
X0195241Y0282750D01*
X0195699Y0282291D01*
X0196765Y0281850D01*
X0197919Y0281850D01*
X0198985Y0282291D01*
X0199800Y0283107D01*
X0200242Y0284173D01*
X0200242Y0285327D01*
X0199800Y0286393D01*
X0198985Y0287208D01*
X0197919Y0287650D01*
X0196765Y0287650D01*
X0195699Y0287208D01*
X0195241Y0286750D01*
X0185781Y0286750D01*
X0185842Y0286810D01*
X0185842Y0307649D01*
X0186300Y0308107D01*
X0186742Y0309173D01*
X0186742Y0310327D01*
X0186300Y0311393D01*
X0185485Y0312208D01*
X0184419Y0312650D01*
X0183265Y0312650D01*
X0182199Y0312208D01*
X0181383Y0311393D01*
X0180942Y0310327D01*
X0180942Y0309173D01*
X0181383Y0308107D01*
X0181842Y0307649D01*
X0181842Y0288467D01*
X0176925Y0283550D01*
X0176813Y0283550D01*
X0175913Y0282650D01*
X0175265Y0282650D01*
X0174199Y0282208D01*
X0173383Y0281393D01*
X0172942Y0280327D01*
X0172942Y0279433D01*
X0172419Y0279650D01*
X0171265Y0279650D01*
X0170199Y0279208D01*
X0169383Y0278393D01*
X0169279Y0278141D01*
X0165042Y0282378D01*
X0165042Y0282849D01*
X0165300Y0283107D01*
X0165742Y0284173D01*
X0165742Y0285327D01*
X0165300Y0286393D01*
X0164485Y0287208D01*
X0163419Y0287650D01*
X0162265Y0287650D01*
X0161199Y0287208D01*
X0160383Y0286393D01*
X0159942Y0285327D01*
X0159942Y0284173D01*
X0160383Y0283107D01*
X0160642Y0282849D01*
X0160642Y0280556D01*
X0175648Y0265550D01*
X0183441Y0265550D01*
X0183699Y0265291D01*
X0184765Y0264850D01*
X0185131Y0264850D01*
X0186142Y0263839D01*
X0186142Y0246661D01*
X0182275Y0242794D01*
X0181416Y0243150D01*
X0179268Y0243150D01*
X0177283Y0242328D01*
X0175764Y0240809D01*
X0175232Y0239526D01*
X0175161Y0239746D01*
X0174789Y0240475D01*
X0174308Y0241138D01*
X0173729Y0241716D01*
X0173067Y0242197D01*
X0172338Y0242569D01*
X0171559Y0242822D01*
X0170842Y0242936D01*
X0170842Y0238250D01*
X0169842Y0238250D01*
X0169842Y0242936D01*
X0169124Y0242822D01*
X0168346Y0242569D01*
X0167616Y0242197D01*
X0166954Y0241716D01*
X0166375Y0241138D01*
X0165894Y0240475D01*
X0165523Y0239746D01*
X0165270Y0238968D01*
X0165156Y0238250D01*
X0169842Y0238250D01*
X0169842Y0237250D01*
X0165156Y0237250D01*
X0165270Y0236532D01*
X0165523Y0235754D01*
X0165894Y0235025D01*
X0166021Y0234850D01*
X0152607Y0234850D01*
X0152855Y0236091D01*
X0151749Y0237750D01*
X0152855Y0239409D01*
X0152514Y0241115D01*
X0151066Y0242080D01*
X0149360Y0241739D01*
X0149225Y0241536D01*
X0149090Y0241739D01*
X0147384Y0242080D01*
X0146406Y0241428D01*
X0145675Y0241950D01*
X0143775Y0241950D01*
X0142478Y0241024D01*
X0142182Y0241353D01*
X0141088Y0241841D01*
X0140978Y0241950D01*
X0140842Y0241950D01*
X0140108Y0241950D01*
X0139239Y0241950D01*
X0139203Y0241915D01*
X0137803Y0241106D01*
X0137803Y0241106D01*
X0137442Y0240481D01*
X0137442Y0317633D01*
X0138030Y0316615D01*
X0138030Y0316615D01*
X0140569Y0314484D01*
X0140569Y0314484D01*
X0143684Y0313350D01*
X0146999Y0313350D01*
X0150114Y0314484D01*
X0150114Y0314484D01*
X0152654Y0316615D01*
X0154311Y0319485D01*
X0154311Y0319485D01*
X0154887Y0322750D01*
X0154311Y0326015D01*
X0152654Y0328885D01*
X0150551Y0330650D01*
X0220133Y0330650D01*
X0218030Y0328885D01*
X0216372Y0326015D01*
X0216372Y0326015D01*
X0215797Y0322750D01*
X0216372Y0319485D01*
X0218030Y0316615D01*
X0220569Y0314484D01*
X0220569Y0314484D01*
X0223684Y0313350D01*
X0226999Y0313350D01*
X0230114Y0314484D01*
X0230114Y0314484D01*
X0232654Y0316615D01*
X0233242Y0317633D01*
X0232654Y0316615D02*
X0232654Y0316615D01*
X0232654Y0316615D01*
X0232304Y0316321D02*
X0233242Y0316321D01*
X0233242Y0315323D02*
X0231114Y0315323D01*
X0229676Y0314324D02*
X0233242Y0314324D01*
X0233242Y0313326D02*
X0137442Y0313326D01*
X0137442Y0314324D02*
X0141008Y0314324D01*
X0139569Y0315323D02*
X0137442Y0315323D01*
X0137442Y0316321D02*
X0138379Y0316321D01*
X0137623Y0317320D02*
X0137442Y0317320D01*
X0137442Y0312327D02*
X0182486Y0312327D01*
X0181357Y0311329D02*
X0137442Y0311329D01*
X0137442Y0310330D02*
X0180943Y0310330D01*
X0180942Y0309332D02*
X0137442Y0309332D01*
X0137442Y0308333D02*
X0181290Y0308333D01*
X0181842Y0307335D02*
X0137442Y0307335D01*
X0137442Y0306336D02*
X0181842Y0306336D01*
X0181842Y0305338D02*
X0137442Y0305338D01*
X0137442Y0304339D02*
X0181842Y0304339D01*
X0181842Y0303341D02*
X0137442Y0303341D01*
X0137442Y0302342D02*
X0181842Y0302342D01*
X0181842Y0301344D02*
X0137442Y0301344D01*
X0137442Y0300345D02*
X0181842Y0300345D01*
X0181842Y0299347D02*
X0137442Y0299347D01*
X0137442Y0298348D02*
X0181842Y0298348D01*
X0181842Y0297350D02*
X0137442Y0297350D01*
X0137442Y0296351D02*
X0181842Y0296351D01*
X0181842Y0295353D02*
X0137442Y0295353D01*
X0137442Y0294354D02*
X0181842Y0294354D01*
X0181842Y0293355D02*
X0137442Y0293355D01*
X0137442Y0292357D02*
X0181842Y0292357D01*
X0181842Y0291358D02*
X0137442Y0291358D01*
X0137442Y0290360D02*
X0181842Y0290360D01*
X0181842Y0289361D02*
X0137442Y0289361D01*
X0137442Y0288363D02*
X0181738Y0288363D01*
X0180739Y0287364D02*
X0164108Y0287364D01*
X0165311Y0286366D02*
X0179741Y0286366D01*
X0178742Y0285367D02*
X0165725Y0285367D01*
X0165742Y0284369D02*
X0177744Y0284369D01*
X0176634Y0283370D02*
X0165409Y0283370D01*
X0165048Y0282372D02*
X0174594Y0282372D01*
X0173375Y0281373D02*
X0166047Y0281373D01*
X0167045Y0280375D02*
X0172962Y0280375D01*
X0170604Y0279376D02*
X0168044Y0279376D01*
X0169042Y0278378D02*
X0169377Y0278378D01*
X0165815Y0275382D02*
X0137442Y0275382D01*
X0137442Y0274384D02*
X0166814Y0274384D01*
X0167812Y0273385D02*
X0137442Y0273385D01*
X0137442Y0272387D02*
X0168811Y0272387D01*
X0169809Y0271388D02*
X0137442Y0271388D01*
X0137442Y0270390D02*
X0170808Y0270390D01*
X0171806Y0269391D02*
X0137442Y0269391D01*
X0137442Y0268393D02*
X0172805Y0268393D01*
X0173803Y0267394D02*
X0137442Y0267394D01*
X0137442Y0266396D02*
X0174802Y0266396D01*
X0176559Y0267750D02*
X0162842Y0281467D01*
X0162842Y0284750D01*
X0161576Y0287364D02*
X0137442Y0287364D01*
X0137442Y0286366D02*
X0160372Y0286366D01*
X0159959Y0285367D02*
X0137442Y0285367D01*
X0137442Y0284369D02*
X0159942Y0284369D01*
X0160274Y0283370D02*
X0137442Y0283370D01*
X0137442Y0282372D02*
X0160642Y0282372D01*
X0160642Y0281373D02*
X0137442Y0281373D01*
X0137442Y0280375D02*
X0160823Y0280375D01*
X0161821Y0279376D02*
X0137442Y0279376D01*
X0137442Y0278378D02*
X0162820Y0278378D01*
X0163818Y0277379D02*
X0137442Y0277379D01*
X0137442Y0276381D02*
X0164817Y0276381D01*
X0176559Y0267750D02*
X0185342Y0267750D01*
X0188342Y0264750D01*
X0188342Y0245750D01*
X0180342Y0237750D01*
X0176388Y0241433D02*
X0174013Y0241433D01*
X0174810Y0240434D02*
X0175609Y0240434D01*
X0177533Y0242431D02*
X0172608Y0242431D01*
X0170842Y0242431D02*
X0169842Y0242431D01*
X0169842Y0241433D02*
X0170842Y0241433D01*
X0170842Y0240434D02*
X0169842Y0240434D01*
X0169842Y0239436D02*
X0170842Y0239436D01*
X0170842Y0238437D02*
X0169842Y0238437D01*
X0169842Y0237439D02*
X0151956Y0237439D01*
X0152207Y0238437D02*
X0165186Y0238437D01*
X0165422Y0239436D02*
X0152850Y0239436D01*
X0152650Y0240434D02*
X0165873Y0240434D01*
X0166671Y0241433D02*
X0152037Y0241433D01*
X0146414Y0241433D02*
X0146399Y0241433D01*
X0143052Y0241433D02*
X0142003Y0241433D01*
X0142182Y0241353D02*
X0142182Y0241353D01*
X0140842Y0241950D02*
X0140842Y0241950D01*
X0140842Y0241950D01*
X0138369Y0241433D02*
X0137442Y0241433D01*
X0137803Y0241106D02*
X0137803Y0241106D01*
X0137442Y0242431D02*
X0168076Y0242431D01*
X0165300Y0236440D02*
X0152622Y0236440D01*
X0152725Y0235442D02*
X0165682Y0235442D01*
X0152654Y0226885D02*
X0154311Y0224015D01*
X0154311Y0224015D01*
X0154887Y0220750D01*
X0154887Y0220750D01*
X0154311Y0217485D01*
X0154311Y0217485D01*
X0152654Y0214615D01*
X0152654Y0214615D01*
X0152654Y0214615D01*
X0150114Y0212484D01*
X0150114Y0212484D01*
X0146999Y0211350D01*
X0143684Y0211350D01*
X0140569Y0212484D01*
X0140569Y0212484D01*
X0138030Y0214615D01*
X0138030Y0214615D01*
X0137442Y0215633D01*
X0137442Y0138481D01*
X0137803Y0139106D01*
X0137803Y0139106D01*
X0139203Y0139915D01*
X0139239Y0139950D01*
X0140108Y0139950D01*
X0140842Y0139950D01*
X0140842Y0139950D01*
X0140842Y0139950D01*
X0140978Y0139950D01*
X0141088Y0139841D01*
X0142182Y0139353D01*
X0142182Y0139353D01*
X0142182Y0139353D01*
X0142478Y0139024D01*
X0143775Y0139950D01*
X0145675Y0139950D01*
X0146406Y0139428D01*
X0147384Y0140080D01*
X0149090Y0139739D01*
X0149225Y0139536D01*
X0149360Y0139739D01*
X0151066Y0140080D01*
X0152514Y0139115D01*
X0152855Y0137409D01*
X0151749Y0135750D01*
X0152855Y0134091D01*
X0152607Y0132850D01*
X0166021Y0132850D01*
X0165894Y0133025D01*
X0165523Y0133754D01*
X0165270Y0134532D01*
X0165156Y0135250D01*
X0169842Y0135250D01*
X0169842Y0136250D01*
X0169842Y0140936D01*
X0169124Y0140822D01*
X0168346Y0140569D01*
X0167616Y0140197D01*
X0166954Y0139716D01*
X0166375Y0139138D01*
X0165894Y0138475D01*
X0165523Y0137746D01*
X0165270Y0136968D01*
X0165156Y0136250D01*
X0169842Y0136250D01*
X0170842Y0136250D01*
X0170842Y0140936D01*
X0171559Y0140822D01*
X0172338Y0140569D01*
X0173067Y0140197D01*
X0173729Y0139716D01*
X0174308Y0139138D01*
X0174789Y0138475D01*
X0175161Y0137746D01*
X0175232Y0137526D01*
X0175764Y0138809D01*
X0177283Y0140328D01*
X0179268Y0141150D01*
X0181416Y0141150D01*
X0182275Y0140794D01*
X0186142Y0144661D01*
X0186142Y0161839D01*
X0185131Y0162850D01*
X0184765Y0162850D01*
X0183699Y0163291D01*
X0183441Y0163550D01*
X0175648Y0163550D01*
X0160642Y0178556D01*
X0160642Y0180849D01*
X0160383Y0181107D01*
X0159942Y0182173D01*
X0159942Y0183327D01*
X0160383Y0184393D01*
X0161199Y0185208D01*
X0162265Y0185650D01*
X0163419Y0185650D01*
X0164485Y0185208D01*
X0165300Y0184393D01*
X0165742Y0183327D01*
X0165742Y0182173D01*
X0165300Y0181107D01*
X0165042Y0180849D01*
X0165042Y0180378D01*
X0169279Y0176141D01*
X0169383Y0176393D01*
X0170199Y0177208D01*
X0171265Y0177650D01*
X0172419Y0177650D01*
X0172942Y0177433D01*
X0172942Y0178327D01*
X0173383Y0179393D01*
X0174199Y0180208D01*
X0175265Y0180650D01*
X0175913Y0180650D01*
X0176813Y0181550D01*
X0176925Y0181550D01*
X0181842Y0186467D01*
X0181842Y0205649D01*
X0181383Y0206107D01*
X0180942Y0207173D01*
X0180942Y0208327D01*
X0181383Y0209393D01*
X0182199Y0210208D01*
X0183265Y0210650D01*
X0184419Y0210650D01*
X0185485Y0210208D01*
X0186300Y0209393D01*
X0186742Y0208327D01*
X0186742Y0207173D01*
X0186300Y0206107D01*
X0185842Y0205649D01*
X0185842Y0184810D01*
X0185781Y0184750D01*
X0195241Y0184750D01*
X0195699Y0185208D01*
X0196765Y0185650D01*
X0197919Y0185650D01*
X0198985Y0185208D01*
X0199800Y0184393D01*
X0200242Y0183327D01*
X0200242Y0182173D01*
X0199800Y0181107D01*
X0198985Y0180291D01*
X0197919Y0179850D01*
X0196765Y0179850D01*
X0195699Y0180291D01*
X0195241Y0180750D01*
X0185170Y0180750D01*
X0178970Y0174550D01*
X0193813Y0174550D01*
X0205942Y0186678D01*
X0205942Y0187327D01*
X0206383Y0188393D01*
X0207199Y0189208D01*
X0208265Y0189650D01*
X0209419Y0189650D01*
X0210485Y0189208D01*
X0211300Y0188393D01*
X0211742Y0187327D01*
X0211742Y0186173D01*
X0211300Y0185107D01*
X0210485Y0184291D01*
X0209419Y0183850D01*
X0208770Y0183850D01*
X0197470Y0172550D01*
X0202342Y0167678D01*
X0202342Y0140766D01*
X0203401Y0140328D01*
X0204920Y0138809D01*
X0205742Y0136824D01*
X0205742Y0134676D01*
X0204985Y0132850D01*
X0229229Y0132850D01*
X0228892Y0133663D01*
X0228892Y0134837D01*
X0229341Y0135921D01*
X0230171Y0136751D01*
X0231255Y0137200D01*
X0232429Y0137200D01*
X0233242Y0136863D01*
X0233242Y0215633D01*
X0232654Y0214615D01*
X0232654Y0214615D01*
X0232654Y0214615D01*
X0230114Y0212484D01*
X0230114Y0212484D01*
X0226999Y0211350D01*
X0223684Y0211350D01*
X0220569Y0212484D01*
X0220569Y0212484D01*
X0218030Y0214615D01*
X0218030Y0214615D01*
X0216372Y0217485D01*
X0216372Y0217485D01*
X0215797Y0220750D01*
X0215797Y0220750D01*
X0216372Y0224015D01*
X0216372Y0224015D01*
X0218030Y0226885D01*
X0218030Y0226885D01*
X0218030Y0226885D01*
X0220133Y0228650D01*
X0150551Y0228650D01*
X0152654Y0226885D01*
X0152654Y0226885D01*
X0152902Y0226455D02*
X0217782Y0226455D01*
X0217205Y0225457D02*
X0153479Y0225457D01*
X0154055Y0224458D02*
X0216629Y0224458D01*
X0216275Y0223460D02*
X0154409Y0223460D01*
X0154585Y0222461D02*
X0216099Y0222461D01*
X0215922Y0221463D02*
X0154761Y0221463D01*
X0154836Y0220464D02*
X0215847Y0220464D01*
X0216023Y0219466D02*
X0154660Y0219466D01*
X0154484Y0218467D02*
X0216199Y0218467D01*
X0216382Y0217469D02*
X0154301Y0217469D01*
X0153725Y0216470D02*
X0216959Y0216470D01*
X0217535Y0215472D02*
X0153148Y0215472D01*
X0152485Y0214473D02*
X0218198Y0214473D01*
X0219388Y0213475D02*
X0151295Y0213475D01*
X0150093Y0212476D02*
X0220590Y0212476D01*
X0223334Y0211478D02*
X0147350Y0211478D01*
X0143334Y0211478D02*
X0137442Y0211478D01*
X0137442Y0212476D02*
X0140590Y0212476D01*
X0139388Y0213475D02*
X0137442Y0213475D01*
X0137442Y0214473D02*
X0138198Y0214473D01*
X0137535Y0215472D02*
X0137442Y0215472D01*
X0137442Y0210479D02*
X0182852Y0210479D01*
X0181471Y0209481D02*
X0137442Y0209481D01*
X0137442Y0208482D02*
X0181006Y0208482D01*
X0180942Y0207484D02*
X0137442Y0207484D01*
X0137442Y0206485D02*
X0181227Y0206485D01*
X0181842Y0205487D02*
X0137442Y0205487D01*
X0137442Y0204488D02*
X0181842Y0204488D01*
X0181842Y0203489D02*
X0137442Y0203489D01*
X0137442Y0202491D02*
X0181842Y0202491D01*
X0181842Y0201492D02*
X0137442Y0201492D01*
X0137442Y0200494D02*
X0181842Y0200494D01*
X0181842Y0199495D02*
X0137442Y0199495D01*
X0137442Y0198497D02*
X0181842Y0198497D01*
X0181842Y0197498D02*
X0137442Y0197498D01*
X0137442Y0196500D02*
X0181842Y0196500D01*
X0181842Y0195501D02*
X0137442Y0195501D01*
X0137442Y0194503D02*
X0181842Y0194503D01*
X0181842Y0193504D02*
X0137442Y0193504D01*
X0137442Y0192506D02*
X0181842Y0192506D01*
X0181842Y0191507D02*
X0137442Y0191507D01*
X0137442Y0190509D02*
X0181842Y0190509D01*
X0181842Y0189510D02*
X0137442Y0189510D01*
X0137442Y0188512D02*
X0181842Y0188512D01*
X0181842Y0187513D02*
X0137442Y0187513D01*
X0137442Y0186515D02*
X0181842Y0186515D01*
X0180891Y0185516D02*
X0163741Y0185516D01*
X0165175Y0184518D02*
X0179892Y0184518D01*
X0178894Y0183519D02*
X0165662Y0183519D01*
X0165742Y0182521D02*
X0177895Y0182521D01*
X0176786Y0181522D02*
X0165472Y0181522D01*
X0165042Y0180524D02*
X0174960Y0180524D01*
X0173516Y0179525D02*
X0165895Y0179525D01*
X0166894Y0178527D02*
X0173025Y0178527D01*
X0172942Y0177528D02*
X0172713Y0177528D01*
X0170971Y0177528D02*
X0167892Y0177528D01*
X0168891Y0176530D02*
X0169520Y0176530D01*
X0165664Y0173534D02*
X0137442Y0173534D01*
X0137442Y0172536D02*
X0166662Y0172536D01*
X0167661Y0171537D02*
X0137442Y0171537D01*
X0137442Y0170539D02*
X0168659Y0170539D01*
X0169658Y0169540D02*
X0137442Y0169540D01*
X0137442Y0168542D02*
X0170656Y0168542D01*
X0171655Y0167543D02*
X0137442Y0167543D01*
X0137442Y0166545D02*
X0172653Y0166545D01*
X0173652Y0165546D02*
X0137442Y0165546D01*
X0137442Y0164548D02*
X0174650Y0164548D01*
X0176559Y0165750D02*
X0162842Y0179467D01*
X0162842Y0182750D01*
X0160211Y0181522D02*
X0137442Y0181522D01*
X0137442Y0180524D02*
X0160642Y0180524D01*
X0160642Y0179525D02*
X0137442Y0179525D01*
X0137442Y0178527D02*
X0160671Y0178527D01*
X0161669Y0177528D02*
X0137442Y0177528D01*
X0137442Y0176530D02*
X0162668Y0176530D01*
X0163667Y0175531D02*
X0137442Y0175531D01*
X0137442Y0174533D02*
X0164665Y0174533D01*
X0159942Y0182521D02*
X0137442Y0182521D01*
X0137442Y0183519D02*
X0160022Y0183519D01*
X0160508Y0184518D02*
X0137442Y0184518D01*
X0137442Y0185516D02*
X0161942Y0185516D01*
X0179951Y0175531D02*
X0194795Y0175531D01*
X0195793Y0176530D02*
X0180950Y0176530D01*
X0181948Y0177528D02*
X0196792Y0177528D01*
X0197790Y0178527D02*
X0182947Y0178527D01*
X0183945Y0179525D02*
X0198789Y0179525D01*
X0198336Y0180350D02*
X0200342Y0182356D01*
X0200342Y0185750D01*
X0199675Y0184518D02*
X0203781Y0184518D01*
X0204780Y0185516D02*
X0198241Y0185516D01*
X0196442Y0185516D02*
X0185842Y0185516D01*
X0185842Y0186515D02*
X0205778Y0186515D01*
X0206019Y0187513D02*
X0185842Y0187513D01*
X0185842Y0188512D02*
X0206502Y0188512D01*
X0207928Y0189510D02*
X0185842Y0189510D01*
X0185842Y0190509D02*
X0233242Y0190509D01*
X0233242Y0191507D02*
X0185842Y0191507D01*
X0185842Y0192506D02*
X0233242Y0192506D01*
X0233242Y0193504D02*
X0185842Y0193504D01*
X0185842Y0194503D02*
X0233242Y0194503D01*
X0233242Y0195501D02*
X0185842Y0195501D01*
X0185842Y0196500D02*
X0233242Y0196500D01*
X0233242Y0197498D02*
X0185842Y0197498D01*
X0185842Y0198497D02*
X0233242Y0198497D01*
X0233242Y0199495D02*
X0185842Y0199495D01*
X0185842Y0200494D02*
X0233242Y0200494D01*
X0233242Y0201492D02*
X0185842Y0201492D01*
X0185842Y0202491D02*
X0233242Y0202491D01*
X0233242Y0203489D02*
X0185842Y0203489D01*
X0185842Y0204488D02*
X0233242Y0204488D01*
X0233242Y0205487D02*
X0185842Y0205487D01*
X0186457Y0206485D02*
X0233242Y0206485D01*
X0233242Y0207484D02*
X0186742Y0207484D01*
X0186678Y0208482D02*
X0233242Y0208482D01*
X0233242Y0209481D02*
X0186212Y0209481D01*
X0184831Y0210479D02*
X0233242Y0210479D01*
X0233242Y0211478D02*
X0227350Y0211478D01*
X0230093Y0212476D02*
X0233242Y0212476D01*
X0233242Y0213475D02*
X0231295Y0213475D01*
X0232485Y0214473D02*
X0233242Y0214473D01*
X0233242Y0215472D02*
X0233148Y0215472D01*
X0219897Y0228452D02*
X0150786Y0228452D01*
X0151976Y0227454D02*
X0218707Y0227454D01*
X0228983Y0235442D02*
X0205231Y0235442D01*
X0205644Y0236440D02*
X0228892Y0236440D01*
X0229141Y0237439D02*
X0205742Y0237439D01*
X0205742Y0238437D02*
X0229857Y0238437D01*
X0233242Y0239436D02*
X0205488Y0239436D01*
X0205075Y0240434D02*
X0233242Y0240434D01*
X0233242Y0241433D02*
X0204296Y0241433D01*
X0203151Y0242431D02*
X0233242Y0242431D01*
X0233242Y0243430D02*
X0202342Y0243430D01*
X0202342Y0244428D02*
X0233242Y0244428D01*
X0233242Y0245427D02*
X0202342Y0245427D01*
X0202342Y0246425D02*
X0233242Y0246425D01*
X0233242Y0247424D02*
X0202342Y0247424D01*
X0202342Y0248422D02*
X0233242Y0248422D01*
X0233242Y0249421D02*
X0202342Y0249421D01*
X0202342Y0250420D02*
X0233242Y0250420D01*
X0233242Y0251418D02*
X0202342Y0251418D01*
X0202342Y0252417D02*
X0233242Y0252417D01*
X0233242Y0253415D02*
X0202342Y0253415D01*
X0202342Y0254414D02*
X0233242Y0254414D01*
X0233242Y0255412D02*
X0202342Y0255412D01*
X0202342Y0256411D02*
X0233242Y0256411D01*
X0233242Y0257409D02*
X0202342Y0257409D01*
X0202342Y0258408D02*
X0233242Y0258408D01*
X0233242Y0259406D02*
X0202342Y0259406D01*
X0202342Y0260405D02*
X0233242Y0260405D01*
X0233242Y0261403D02*
X0202342Y0261403D01*
X0202342Y0262402D02*
X0233242Y0262402D01*
X0233242Y0263400D02*
X0202342Y0263400D01*
X0202342Y0264399D02*
X0233242Y0264399D01*
X0233242Y0265397D02*
X0202342Y0265397D01*
X0202342Y0266396D02*
X0233242Y0266396D01*
X0233242Y0267394D02*
X0202342Y0267394D01*
X0202342Y0268393D02*
X0233242Y0268393D01*
X0233242Y0269391D02*
X0202342Y0269391D01*
X0201630Y0270390D02*
X0233242Y0270390D01*
X0233242Y0271388D02*
X0200632Y0271388D01*
X0199633Y0272387D02*
X0233242Y0272387D01*
X0233242Y0273385D02*
X0198635Y0273385D01*
X0197636Y0274384D02*
X0233242Y0274384D01*
X0233242Y0275382D02*
X0198303Y0275382D01*
X0199301Y0276381D02*
X0233242Y0276381D01*
X0233242Y0277379D02*
X0200300Y0277379D01*
X0201298Y0278378D02*
X0233242Y0278378D01*
X0233242Y0279376D02*
X0202297Y0279376D01*
X0203295Y0280375D02*
X0233242Y0280375D01*
X0233242Y0281373D02*
X0204294Y0281373D01*
X0205292Y0282372D02*
X0233242Y0282372D01*
X0233242Y0283370D02*
X0206291Y0283370D01*
X0207289Y0284369D02*
X0233242Y0284369D01*
X0233242Y0285367D02*
X0208288Y0285367D01*
X0210559Y0286366D02*
X0233242Y0286366D01*
X0233242Y0287364D02*
X0211407Y0287364D01*
X0211742Y0288363D02*
X0233242Y0288363D01*
X0233242Y0289361D02*
X0211727Y0289361D01*
X0211314Y0290360D02*
X0233242Y0290360D01*
X0233242Y0291358D02*
X0210122Y0291358D01*
X0207561Y0291358D02*
X0185842Y0291358D01*
X0185842Y0290360D02*
X0206370Y0290360D01*
X0205956Y0289361D02*
X0185842Y0289361D01*
X0185842Y0288363D02*
X0205626Y0288363D01*
X0204628Y0287364D02*
X0198608Y0287364D01*
X0199811Y0286366D02*
X0203629Y0286366D01*
X0202631Y0285367D02*
X0200225Y0285367D01*
X0200242Y0284369D02*
X0201632Y0284369D01*
X0200342Y0284356D02*
X0200342Y0287750D01*
X0200342Y0284356D02*
X0198336Y0282350D01*
X0195542Y0282350D01*
X0192892Y0279700D01*
X0194643Y0277379D02*
X0179800Y0277379D01*
X0180798Y0278378D02*
X0195641Y0278378D01*
X0196640Y0279376D02*
X0181797Y0279376D01*
X0182795Y0280375D02*
X0197638Y0280375D01*
X0198637Y0281373D02*
X0183794Y0281373D01*
X0184792Y0282372D02*
X0195619Y0282372D01*
X0199065Y0282372D02*
X0199635Y0282372D01*
X0199909Y0283370D02*
X0200634Y0283370D01*
X0196076Y0287364D02*
X0185842Y0287364D01*
X0185842Y0292357D02*
X0233242Y0292357D01*
X0233242Y0293355D02*
X0185842Y0293355D01*
X0185842Y0294354D02*
X0233242Y0294354D01*
X0233242Y0295353D02*
X0185842Y0295353D01*
X0185842Y0296351D02*
X0233242Y0296351D01*
X0233242Y0297350D02*
X0185842Y0297350D01*
X0185842Y0298348D02*
X0233242Y0298348D01*
X0233242Y0299347D02*
X0185842Y0299347D01*
X0185842Y0300345D02*
X0233242Y0300345D01*
X0233242Y0301344D02*
X0185842Y0301344D01*
X0185842Y0302342D02*
X0233242Y0302342D01*
X0233242Y0303341D02*
X0185842Y0303341D01*
X0185842Y0304339D02*
X0233242Y0304339D01*
X0233242Y0305338D02*
X0185842Y0305338D01*
X0185842Y0306336D02*
X0233242Y0306336D01*
X0233242Y0307335D02*
X0185842Y0307335D01*
X0186394Y0308333D02*
X0233242Y0308333D01*
X0233242Y0309332D02*
X0186742Y0309332D01*
X0186740Y0310330D02*
X0233242Y0310330D01*
X0233242Y0311329D02*
X0186327Y0311329D01*
X0185198Y0312327D02*
X0233242Y0312327D01*
X0221008Y0314324D02*
X0149676Y0314324D01*
X0151114Y0315323D02*
X0219569Y0315323D01*
X0218379Y0316321D02*
X0152304Y0316321D01*
X0152654Y0316615D02*
X0152654Y0316615D01*
X0152654Y0316615D01*
X0153061Y0317320D02*
X0217623Y0317320D01*
X0217046Y0318318D02*
X0153637Y0318318D01*
X0154214Y0319317D02*
X0216470Y0319317D01*
X0216226Y0320315D02*
X0154457Y0320315D01*
X0154634Y0321314D02*
X0216050Y0321314D01*
X0215874Y0322312D02*
X0154810Y0322312D01*
X0154887Y0322750D02*
X0154887Y0322750D01*
X0154788Y0323311D02*
X0215896Y0323311D01*
X0215797Y0322750D02*
X0215797Y0322750D01*
X0216072Y0324309D02*
X0154612Y0324309D01*
X0154436Y0325308D02*
X0216248Y0325308D01*
X0216541Y0326306D02*
X0154143Y0326306D01*
X0154311Y0326015D02*
X0154311Y0326015D01*
X0153566Y0327305D02*
X0217117Y0327305D01*
X0217694Y0328303D02*
X0152990Y0328303D01*
X0152157Y0329302D02*
X0218526Y0329302D01*
X0218030Y0328885D02*
X0218030Y0328885D01*
X0218030Y0328885D01*
X0219716Y0330300D02*
X0150967Y0330300D01*
X0131242Y0317633D02*
X0130654Y0316615D01*
X0130654Y0316615D01*
X0128114Y0314484D01*
X0124999Y0313350D01*
X0124999Y0313350D01*
X0121684Y0313350D01*
X0118569Y0314484D01*
X0118569Y0314484D01*
X0116030Y0316615D01*
X0116030Y0316615D01*
X0114372Y0319485D01*
X0114372Y0319485D01*
X0113797Y0322750D01*
X0113797Y0322750D01*
X0114372Y0326015D01*
X0114372Y0326015D01*
X0116030Y0328885D01*
X0116030Y0328885D01*
X0116030Y0328885D01*
X0118133Y0330650D01*
X0048551Y0330650D01*
X0050654Y0328885D01*
X0050654Y0328885D01*
X0052311Y0326015D01*
X0052311Y0326015D01*
X0052887Y0322750D01*
X0052887Y0322750D01*
X0052311Y0319485D01*
X0052311Y0319485D01*
X0050654Y0316615D01*
X0050654Y0316615D01*
X0050654Y0316615D01*
X0048114Y0314484D01*
X0048114Y0314484D01*
X0044999Y0313350D01*
X0041684Y0313350D01*
X0038569Y0314484D01*
X0038569Y0314484D01*
X0036030Y0316615D01*
X0036030Y0316615D01*
X0035442Y0317633D01*
X0035442Y0240481D01*
X0035803Y0241106D01*
X0035803Y0241106D01*
X0037203Y0241915D01*
X0037239Y0241950D01*
X0038108Y0241950D01*
X0038842Y0241950D01*
X0038978Y0241950D01*
X0039088Y0241841D01*
X0040182Y0241353D01*
X0040182Y0241353D01*
X0040478Y0241024D01*
X0041775Y0241950D01*
X0043675Y0241950D01*
X0044406Y0241428D01*
X0045384Y0242080D01*
X0047090Y0241739D01*
X0047225Y0241536D01*
X0047360Y0241739D01*
X0049066Y0242080D01*
X0050514Y0241115D01*
X0050855Y0239409D01*
X0049749Y0237750D01*
X0050855Y0236091D01*
X0050607Y0234850D01*
X0064021Y0234850D01*
X0063894Y0235025D01*
X0063523Y0235754D01*
X0063270Y0236532D01*
X0063156Y0237250D01*
X0067842Y0237250D01*
X0067842Y0238250D01*
X0067842Y0242936D01*
X0067124Y0242822D01*
X0066346Y0242569D01*
X0065616Y0242197D01*
X0064954Y0241716D01*
X0064375Y0241138D01*
X0063894Y0240475D01*
X0063523Y0239746D01*
X0063270Y0238968D01*
X0063156Y0238250D01*
X0067842Y0238250D01*
X0068842Y0238250D01*
X0068842Y0242936D01*
X0069559Y0242822D01*
X0070338Y0242569D01*
X0071067Y0242197D01*
X0071729Y0241716D01*
X0072308Y0241138D01*
X0072789Y0240475D01*
X0073161Y0239746D01*
X0073232Y0239526D01*
X0073764Y0240809D01*
X0075283Y0242328D01*
X0077268Y0243150D01*
X0079416Y0243150D01*
X0080275Y0242794D01*
X0084142Y0246661D01*
X0084142Y0263839D01*
X0083131Y0264850D01*
X0082765Y0264850D01*
X0081699Y0265291D01*
X0081441Y0265550D01*
X0073648Y0265550D01*
X0058642Y0280556D01*
X0058642Y0282849D01*
X0058383Y0283107D01*
X0057942Y0284173D01*
X0057942Y0285327D01*
X0058383Y0286393D01*
X0059199Y0287208D01*
X0060265Y0287650D01*
X0061419Y0287650D01*
X0062485Y0287208D01*
X0063300Y0286393D01*
X0063742Y0285327D01*
X0063742Y0284173D01*
X0063300Y0283107D01*
X0063042Y0282849D01*
X0063042Y0282378D01*
X0067279Y0278141D01*
X0067383Y0278393D01*
X0068199Y0279208D01*
X0069265Y0279650D01*
X0070419Y0279650D01*
X0070942Y0279433D01*
X0070942Y0280327D01*
X0071383Y0281393D01*
X0072199Y0282208D01*
X0073265Y0282650D01*
X0073913Y0282650D01*
X0074813Y0283550D01*
X0074925Y0283550D01*
X0079842Y0288467D01*
X0079842Y0307649D01*
X0079383Y0308107D01*
X0078942Y0309173D01*
X0078942Y0310327D01*
X0079383Y0311393D01*
X0080199Y0312208D01*
X0081265Y0312650D01*
X0082419Y0312650D01*
X0083485Y0312208D01*
X0084300Y0311393D01*
X0084742Y0310327D01*
X0084742Y0309173D01*
X0084300Y0308107D01*
X0083842Y0307649D01*
X0083842Y0286810D01*
X0083781Y0286750D01*
X0093241Y0286750D01*
X0093699Y0287208D01*
X0094765Y0287650D01*
X0095919Y0287650D01*
X0096985Y0287208D01*
X0097800Y0286393D01*
X0098242Y0285327D01*
X0098242Y0284173D01*
X0097800Y0283107D01*
X0096985Y0282291D01*
X0095919Y0281850D01*
X0094765Y0281850D01*
X0093699Y0282291D01*
X0093241Y0282750D01*
X0083170Y0282750D01*
X0076970Y0276550D01*
X0091813Y0276550D01*
X0103942Y0288678D01*
X0103942Y0289327D01*
X0104383Y0290393D01*
X0105199Y0291208D01*
X0106265Y0291650D01*
X0107419Y0291650D01*
X0108485Y0291208D01*
X0109300Y0290393D01*
X0109742Y0289327D01*
X0109742Y0288173D01*
X0109300Y0287107D01*
X0108485Y0286291D01*
X0107419Y0285850D01*
X0106770Y0285850D01*
X0095470Y0274550D01*
X0100342Y0269678D01*
X0100342Y0242766D01*
X0101401Y0242328D01*
X0102920Y0240809D01*
X0103742Y0238824D01*
X0103742Y0236676D01*
X0102985Y0234850D01*
X0127229Y0234850D01*
X0126892Y0235663D01*
X0126892Y0236837D01*
X0127341Y0237921D01*
X0128171Y0238751D01*
X0129255Y0239200D01*
X0130429Y0239200D01*
X0131242Y0238863D01*
X0131242Y0317633D01*
X0131242Y0317320D02*
X0131061Y0317320D01*
X0131242Y0316321D02*
X0130304Y0316321D01*
X0131242Y0315323D02*
X0129114Y0315323D01*
X0127676Y0314324D02*
X0131242Y0314324D01*
X0131242Y0313326D02*
X0035442Y0313326D01*
X0035442Y0314324D02*
X0039008Y0314324D01*
X0037569Y0315323D02*
X0035442Y0315323D01*
X0035442Y0316321D02*
X0036379Y0316321D01*
X0035623Y0317320D02*
X0035442Y0317320D01*
X0035442Y0312327D02*
X0080486Y0312327D01*
X0079357Y0311329D02*
X0035442Y0311329D01*
X0035442Y0310330D02*
X0078943Y0310330D01*
X0078942Y0309332D02*
X0035442Y0309332D01*
X0035442Y0308333D02*
X0079290Y0308333D01*
X0079842Y0307335D02*
X0035442Y0307335D01*
X0035442Y0306336D02*
X0079842Y0306336D01*
X0079842Y0305338D02*
X0035442Y0305338D01*
X0035442Y0304339D02*
X0079842Y0304339D01*
X0079842Y0303341D02*
X0035442Y0303341D01*
X0035442Y0302342D02*
X0079842Y0302342D01*
X0079842Y0301344D02*
X0035442Y0301344D01*
X0035442Y0300345D02*
X0079842Y0300345D01*
X0079842Y0299347D02*
X0035442Y0299347D01*
X0035442Y0298348D02*
X0079842Y0298348D01*
X0079842Y0297350D02*
X0035442Y0297350D01*
X0035442Y0296351D02*
X0079842Y0296351D01*
X0079842Y0295353D02*
X0035442Y0295353D01*
X0035442Y0294354D02*
X0079842Y0294354D01*
X0079842Y0293355D02*
X0035442Y0293355D01*
X0035442Y0292357D02*
X0079842Y0292357D01*
X0079842Y0291358D02*
X0035442Y0291358D01*
X0035442Y0290360D02*
X0079842Y0290360D01*
X0079842Y0289361D02*
X0035442Y0289361D01*
X0035442Y0288363D02*
X0079738Y0288363D01*
X0078739Y0287364D02*
X0062108Y0287364D01*
X0063311Y0286366D02*
X0077741Y0286366D01*
X0076742Y0285367D02*
X0063725Y0285367D01*
X0063742Y0284369D02*
X0075744Y0284369D01*
X0074634Y0283370D02*
X0063409Y0283370D01*
X0063048Y0282372D02*
X0072594Y0282372D01*
X0071375Y0281373D02*
X0064047Y0281373D01*
X0065045Y0280375D02*
X0070962Y0280375D01*
X0068604Y0279376D02*
X0066044Y0279376D01*
X0067042Y0278378D02*
X0067377Y0278378D01*
X0063815Y0275382D02*
X0035442Y0275382D01*
X0035442Y0274384D02*
X0064814Y0274384D01*
X0065812Y0273385D02*
X0035442Y0273385D01*
X0035442Y0272387D02*
X0066811Y0272387D01*
X0067809Y0271388D02*
X0035442Y0271388D01*
X0035442Y0270390D02*
X0068808Y0270390D01*
X0069806Y0269391D02*
X0035442Y0269391D01*
X0035442Y0268393D02*
X0070805Y0268393D01*
X0071803Y0267394D02*
X0035442Y0267394D01*
X0035442Y0266396D02*
X0072802Y0266396D01*
X0074559Y0267750D02*
X0060842Y0281467D01*
X0060842Y0284750D01*
X0059576Y0287364D02*
X0035442Y0287364D01*
X0035442Y0286366D02*
X0058372Y0286366D01*
X0057959Y0285367D02*
X0035442Y0285367D01*
X0035442Y0284369D02*
X0057942Y0284369D01*
X0058274Y0283370D02*
X0035442Y0283370D01*
X0035442Y0282372D02*
X0058642Y0282372D01*
X0058642Y0281373D02*
X0035442Y0281373D01*
X0035442Y0280375D02*
X0058823Y0280375D01*
X0059821Y0279376D02*
X0035442Y0279376D01*
X0035442Y0278378D02*
X0060820Y0278378D01*
X0061818Y0277379D02*
X0035442Y0277379D01*
X0035442Y0276381D02*
X0062817Y0276381D01*
X0074559Y0267750D02*
X0083342Y0267750D01*
X0086342Y0264750D01*
X0086342Y0245750D01*
X0078342Y0237750D01*
X0074388Y0241433D02*
X0072013Y0241433D01*
X0072810Y0240434D02*
X0073609Y0240434D01*
X0075533Y0242431D02*
X0070608Y0242431D01*
X0068842Y0242431D02*
X0067842Y0242431D01*
X0067842Y0241433D02*
X0068842Y0241433D01*
X0068842Y0240434D02*
X0067842Y0240434D01*
X0067842Y0239436D02*
X0068842Y0239436D01*
X0068842Y0238437D02*
X0067842Y0238437D01*
X0067842Y0237439D02*
X0049956Y0237439D01*
X0050207Y0238437D02*
X0063186Y0238437D01*
X0063422Y0239436D02*
X0050850Y0239436D01*
X0050650Y0240434D02*
X0063873Y0240434D01*
X0064671Y0241433D02*
X0050037Y0241433D01*
X0044414Y0241433D02*
X0044399Y0241433D01*
X0041052Y0241433D02*
X0040003Y0241433D01*
X0036369Y0241433D02*
X0035442Y0241433D01*
X0035803Y0241106D02*
X0035803Y0241106D01*
X0035442Y0242431D02*
X0066076Y0242431D01*
X0063300Y0236440D02*
X0050622Y0236440D01*
X0050725Y0235442D02*
X0063682Y0235442D01*
X0050654Y0226885D02*
X0052311Y0224015D01*
X0052311Y0224015D01*
X0052887Y0220750D01*
X0052887Y0220750D01*
X0052311Y0217485D01*
X0052311Y0217485D01*
X0050654Y0214615D01*
X0050654Y0214615D01*
X0050654Y0214615D01*
X0048114Y0212484D01*
X0048114Y0212484D01*
X0044999Y0211350D01*
X0041684Y0211350D01*
X0038569Y0212484D01*
X0038569Y0212484D01*
X0036030Y0214615D01*
X0036030Y0214615D01*
X0035442Y0215633D01*
X0035442Y0138481D01*
X0035803Y0139106D01*
X0035803Y0139106D01*
X0037203Y0139915D01*
X0037239Y0139950D01*
X0038108Y0139950D01*
X0038842Y0139950D01*
X0038842Y0139950D01*
X0038842Y0139950D01*
X0038978Y0139950D01*
X0039088Y0139841D01*
X0040182Y0139353D01*
X0040182Y0139353D01*
X0040478Y0139024D01*
X0041775Y0139950D01*
X0043675Y0139950D01*
X0044406Y0139428D01*
X0045384Y0140080D01*
X0047090Y0139739D01*
X0047225Y0139536D01*
X0047360Y0139739D01*
X0049066Y0140080D01*
X0050514Y0139115D01*
X0050855Y0137409D01*
X0049749Y0135750D01*
X0050855Y0134091D01*
X0050607Y0132850D01*
X0064021Y0132850D01*
X0063894Y0133025D01*
X0063523Y0133754D01*
X0063270Y0134532D01*
X0063156Y0135250D01*
X0067842Y0135250D01*
X0067842Y0136250D01*
X0067842Y0140936D01*
X0067124Y0140822D01*
X0066346Y0140569D01*
X0065616Y0140197D01*
X0064954Y0139716D01*
X0064375Y0139138D01*
X0063894Y0138475D01*
X0063523Y0137746D01*
X0063270Y0136968D01*
X0063156Y0136250D01*
X0067842Y0136250D01*
X0068842Y0136250D01*
X0068842Y0140936D01*
X0069559Y0140822D01*
X0070338Y0140569D01*
X0071067Y0140197D01*
X0071729Y0139716D01*
X0072308Y0139138D01*
X0072789Y0138475D01*
X0073161Y0137746D01*
X0073232Y0137526D01*
X0073764Y0138809D01*
X0075283Y0140328D01*
X0077268Y0141150D01*
X0079416Y0141150D01*
X0080275Y0140794D01*
X0084142Y0144661D01*
X0084142Y0161839D01*
X0083131Y0162850D01*
X0082765Y0162850D01*
X0081699Y0163291D01*
X0081441Y0163550D01*
X0073648Y0163550D01*
X0058642Y0178556D01*
X0058642Y0180849D01*
X0058383Y0181107D01*
X0057942Y0182173D01*
X0057942Y0183327D01*
X0058383Y0184393D01*
X0059199Y0185208D01*
X0060265Y0185650D01*
X0061419Y0185650D01*
X0062485Y0185208D01*
X0063300Y0184393D01*
X0063742Y0183327D01*
X0063742Y0182173D01*
X0063300Y0181107D01*
X0063042Y0180849D01*
X0063042Y0180378D01*
X0067279Y0176141D01*
X0067383Y0176393D01*
X0068199Y0177208D01*
X0069265Y0177650D01*
X0070419Y0177650D01*
X0070942Y0177433D01*
X0070942Y0178327D01*
X0071383Y0179393D01*
X0072199Y0180208D01*
X0073265Y0180650D01*
X0073913Y0180650D01*
X0074813Y0181550D01*
X0074925Y0181550D01*
X0079842Y0186467D01*
X0079842Y0205649D01*
X0079383Y0206107D01*
X0078942Y0207173D01*
X0078942Y0208327D01*
X0079383Y0209393D01*
X0080199Y0210208D01*
X0081265Y0210650D01*
X0082419Y0210650D01*
X0083485Y0210208D01*
X0084300Y0209393D01*
X0084742Y0208327D01*
X0084742Y0207173D01*
X0084300Y0206107D01*
X0083842Y0205649D01*
X0083842Y0184810D01*
X0083781Y0184750D01*
X0093241Y0184750D01*
X0093699Y0185208D01*
X0094765Y0185650D01*
X0095919Y0185650D01*
X0096985Y0185208D01*
X0097800Y0184393D01*
X0098242Y0183327D01*
X0098242Y0182173D01*
X0097800Y0181107D01*
X0096985Y0180291D01*
X0095919Y0179850D01*
X0094765Y0179850D01*
X0093699Y0180291D01*
X0093241Y0180750D01*
X0083170Y0180750D01*
X0076970Y0174550D01*
X0091813Y0174550D01*
X0103942Y0186678D01*
X0103942Y0187327D01*
X0104383Y0188393D01*
X0105199Y0189208D01*
X0106265Y0189650D01*
X0107419Y0189650D01*
X0108485Y0189208D01*
X0109300Y0188393D01*
X0109742Y0187327D01*
X0109742Y0186173D01*
X0109300Y0185107D01*
X0108485Y0184291D01*
X0107419Y0183850D01*
X0106770Y0183850D01*
X0095470Y0172550D01*
X0100342Y0167678D01*
X0100342Y0140766D01*
X0101401Y0140328D01*
X0102920Y0138809D01*
X0103742Y0136824D01*
X0103742Y0134676D01*
X0102985Y0132850D01*
X0127229Y0132850D01*
X0126892Y0133663D01*
X0126892Y0134837D01*
X0127341Y0135921D01*
X0128171Y0136751D01*
X0129255Y0137200D01*
X0130429Y0137200D01*
X0131242Y0136863D01*
X0131242Y0215633D01*
X0130654Y0214615D01*
X0130654Y0214615D01*
X0130654Y0214615D01*
X0128114Y0212484D01*
X0128114Y0212484D01*
X0124999Y0211350D01*
X0121684Y0211350D01*
X0118569Y0212484D01*
X0118569Y0212484D01*
X0116030Y0214615D01*
X0116030Y0214615D01*
X0114372Y0217485D01*
X0114372Y0217485D01*
X0113797Y0220750D01*
X0113797Y0220750D01*
X0114372Y0224015D01*
X0114372Y0224015D01*
X0116030Y0226885D01*
X0116030Y0226885D01*
X0116030Y0226885D01*
X0118133Y0228650D01*
X0048551Y0228650D01*
X0050654Y0226885D01*
X0050654Y0226885D01*
X0050902Y0226455D02*
X0115782Y0226455D01*
X0115205Y0225457D02*
X0051479Y0225457D01*
X0052055Y0224458D02*
X0114629Y0224458D01*
X0114275Y0223460D02*
X0052409Y0223460D01*
X0052585Y0222461D02*
X0114099Y0222461D01*
X0113922Y0221463D02*
X0052761Y0221463D01*
X0052836Y0220464D02*
X0113847Y0220464D01*
X0114023Y0219466D02*
X0052660Y0219466D01*
X0052484Y0218467D02*
X0114199Y0218467D01*
X0114382Y0217469D02*
X0052301Y0217469D01*
X0051725Y0216470D02*
X0114959Y0216470D01*
X0115535Y0215472D02*
X0051148Y0215472D01*
X0050485Y0214473D02*
X0116198Y0214473D01*
X0117388Y0213475D02*
X0049295Y0213475D01*
X0048093Y0212476D02*
X0118590Y0212476D01*
X0121334Y0211478D02*
X0045350Y0211478D01*
X0041334Y0211478D02*
X0035442Y0211478D01*
X0035442Y0212476D02*
X0038590Y0212476D01*
X0037388Y0213475D02*
X0035442Y0213475D01*
X0035442Y0214473D02*
X0036198Y0214473D01*
X0035535Y0215472D02*
X0035442Y0215472D01*
X0035442Y0210479D02*
X0080852Y0210479D01*
X0079471Y0209481D02*
X0035442Y0209481D01*
X0035442Y0208482D02*
X0079006Y0208482D01*
X0078942Y0207484D02*
X0035442Y0207484D01*
X0035442Y0206485D02*
X0079227Y0206485D01*
X0079842Y0205487D02*
X0035442Y0205487D01*
X0035442Y0204488D02*
X0079842Y0204488D01*
X0079842Y0203489D02*
X0035442Y0203489D01*
X0035442Y0202491D02*
X0079842Y0202491D01*
X0079842Y0201492D02*
X0035442Y0201492D01*
X0035442Y0200494D02*
X0079842Y0200494D01*
X0079842Y0199495D02*
X0035442Y0199495D01*
X0035442Y0198497D02*
X0079842Y0198497D01*
X0079842Y0197498D02*
X0035442Y0197498D01*
X0035442Y0196500D02*
X0079842Y0196500D01*
X0079842Y0195501D02*
X0035442Y0195501D01*
X0035442Y0194503D02*
X0079842Y0194503D01*
X0079842Y0193504D02*
X0035442Y0193504D01*
X0035442Y0192506D02*
X0079842Y0192506D01*
X0079842Y0191507D02*
X0035442Y0191507D01*
X0035442Y0190509D02*
X0079842Y0190509D01*
X0079842Y0189510D02*
X0035442Y0189510D01*
X0035442Y0188512D02*
X0079842Y0188512D01*
X0079842Y0187513D02*
X0035442Y0187513D01*
X0035442Y0186515D02*
X0079842Y0186515D01*
X0078891Y0185516D02*
X0061741Y0185516D01*
X0063175Y0184518D02*
X0077892Y0184518D01*
X0076894Y0183519D02*
X0063662Y0183519D01*
X0063742Y0182521D02*
X0075895Y0182521D01*
X0074786Y0181522D02*
X0063472Y0181522D01*
X0063042Y0180524D02*
X0072960Y0180524D01*
X0071516Y0179525D02*
X0063895Y0179525D01*
X0064894Y0178527D02*
X0071025Y0178527D01*
X0070942Y0177528D02*
X0070713Y0177528D01*
X0068971Y0177528D02*
X0065892Y0177528D01*
X0066891Y0176530D02*
X0067520Y0176530D01*
X0063664Y0173534D02*
X0035442Y0173534D01*
X0035442Y0172536D02*
X0064662Y0172536D01*
X0065661Y0171537D02*
X0035442Y0171537D01*
X0035442Y0170539D02*
X0066659Y0170539D01*
X0067658Y0169540D02*
X0035442Y0169540D01*
X0035442Y0168542D02*
X0068656Y0168542D01*
X0069655Y0167543D02*
X0035442Y0167543D01*
X0035442Y0166545D02*
X0070653Y0166545D01*
X0071652Y0165546D02*
X0035442Y0165546D01*
X0035442Y0164548D02*
X0072650Y0164548D01*
X0074559Y0165750D02*
X0060842Y0179467D01*
X0060842Y0182750D01*
X0058211Y0181522D02*
X0035442Y0181522D01*
X0035442Y0180524D02*
X0058642Y0180524D01*
X0058642Y0179525D02*
X0035442Y0179525D01*
X0035442Y0178527D02*
X0058671Y0178527D01*
X0059669Y0177528D02*
X0035442Y0177528D01*
X0035442Y0176530D02*
X0060668Y0176530D01*
X0061667Y0175531D02*
X0035442Y0175531D01*
X0035442Y0174533D02*
X0062665Y0174533D01*
X0057942Y0182521D02*
X0035442Y0182521D01*
X0035442Y0183519D02*
X0058022Y0183519D01*
X0058508Y0184518D02*
X0035442Y0184518D01*
X0035442Y0185516D02*
X0059942Y0185516D01*
X0077951Y0175531D02*
X0092795Y0175531D01*
X0093793Y0176530D02*
X0078950Y0176530D01*
X0079948Y0177528D02*
X0094792Y0177528D01*
X0095790Y0178527D02*
X0080947Y0178527D01*
X0081945Y0179525D02*
X0096789Y0179525D01*
X0096336Y0180350D02*
X0098342Y0182356D01*
X0098342Y0185750D01*
X0097675Y0184518D02*
X0101781Y0184518D01*
X0102780Y0185516D02*
X0096241Y0185516D01*
X0094442Y0185516D02*
X0083842Y0185516D01*
X0083842Y0186515D02*
X0103778Y0186515D01*
X0104019Y0187513D02*
X0083842Y0187513D01*
X0083842Y0188512D02*
X0104502Y0188512D01*
X0105928Y0189510D02*
X0083842Y0189510D01*
X0083842Y0190509D02*
X0131242Y0190509D01*
X0131242Y0191507D02*
X0083842Y0191507D01*
X0083842Y0192506D02*
X0131242Y0192506D01*
X0131242Y0193504D02*
X0083842Y0193504D01*
X0083842Y0194503D02*
X0131242Y0194503D01*
X0131242Y0195501D02*
X0083842Y0195501D01*
X0083842Y0196500D02*
X0131242Y0196500D01*
X0131242Y0197498D02*
X0083842Y0197498D01*
X0083842Y0198497D02*
X0131242Y0198497D01*
X0131242Y0199495D02*
X0083842Y0199495D01*
X0083842Y0200494D02*
X0131242Y0200494D01*
X0131242Y0201492D02*
X0083842Y0201492D01*
X0083842Y0202491D02*
X0131242Y0202491D01*
X0131242Y0203489D02*
X0083842Y0203489D01*
X0083842Y0204488D02*
X0131242Y0204488D01*
X0131242Y0205487D02*
X0083842Y0205487D01*
X0084457Y0206485D02*
X0131242Y0206485D01*
X0131242Y0207484D02*
X0084742Y0207484D01*
X0084678Y0208482D02*
X0131242Y0208482D01*
X0131242Y0209481D02*
X0084212Y0209481D01*
X0082831Y0210479D02*
X0131242Y0210479D01*
X0131242Y0211478D02*
X0125350Y0211478D01*
X0128093Y0212476D02*
X0131242Y0212476D01*
X0131242Y0213475D02*
X0129295Y0213475D01*
X0130485Y0214473D02*
X0131242Y0214473D01*
X0131242Y0215472D02*
X0131148Y0215472D01*
X0117897Y0228452D02*
X0048786Y0228452D01*
X0049976Y0227454D02*
X0116707Y0227454D01*
X0126983Y0235442D02*
X0103231Y0235442D01*
X0103644Y0236440D02*
X0126892Y0236440D01*
X0127141Y0237439D02*
X0103742Y0237439D01*
X0103742Y0238437D02*
X0127857Y0238437D01*
X0131242Y0239436D02*
X0103488Y0239436D01*
X0103075Y0240434D02*
X0131242Y0240434D01*
X0131242Y0241433D02*
X0102296Y0241433D01*
X0101151Y0242431D02*
X0131242Y0242431D01*
X0131242Y0243430D02*
X0100342Y0243430D01*
X0100342Y0244428D02*
X0131242Y0244428D01*
X0131242Y0245427D02*
X0100342Y0245427D01*
X0100342Y0246425D02*
X0131242Y0246425D01*
X0131242Y0247424D02*
X0100342Y0247424D01*
X0100342Y0248422D02*
X0131242Y0248422D01*
X0131242Y0249421D02*
X0100342Y0249421D01*
X0100342Y0250420D02*
X0131242Y0250420D01*
X0131242Y0251418D02*
X0100342Y0251418D01*
X0100342Y0252417D02*
X0131242Y0252417D01*
X0131242Y0253415D02*
X0100342Y0253415D01*
X0100342Y0254414D02*
X0131242Y0254414D01*
X0131242Y0255412D02*
X0100342Y0255412D01*
X0100342Y0256411D02*
X0131242Y0256411D01*
X0131242Y0257409D02*
X0100342Y0257409D01*
X0100342Y0258408D02*
X0131242Y0258408D01*
X0131242Y0259406D02*
X0100342Y0259406D01*
X0100342Y0260405D02*
X0131242Y0260405D01*
X0131242Y0261403D02*
X0100342Y0261403D01*
X0100342Y0262402D02*
X0131242Y0262402D01*
X0131242Y0263400D02*
X0100342Y0263400D01*
X0100342Y0264399D02*
X0131242Y0264399D01*
X0131242Y0265397D02*
X0100342Y0265397D01*
X0100342Y0266396D02*
X0131242Y0266396D01*
X0131242Y0267394D02*
X0100342Y0267394D01*
X0100342Y0268393D02*
X0131242Y0268393D01*
X0131242Y0269391D02*
X0100342Y0269391D01*
X0099630Y0270390D02*
X0131242Y0270390D01*
X0131242Y0271388D02*
X0098632Y0271388D01*
X0097633Y0272387D02*
X0131242Y0272387D01*
X0131242Y0273385D02*
X0096635Y0273385D01*
X0095636Y0274384D02*
X0131242Y0274384D01*
X0131242Y0275382D02*
X0096303Y0275382D01*
X0097301Y0276381D02*
X0131242Y0276381D01*
X0131242Y0277379D02*
X0098300Y0277379D01*
X0099298Y0278378D02*
X0131242Y0278378D01*
X0131242Y0279376D02*
X0100297Y0279376D01*
X0101295Y0280375D02*
X0131242Y0280375D01*
X0131242Y0281373D02*
X0102294Y0281373D01*
X0103292Y0282372D02*
X0131242Y0282372D01*
X0131242Y0283370D02*
X0104291Y0283370D01*
X0105289Y0284369D02*
X0131242Y0284369D01*
X0131242Y0285367D02*
X0106288Y0285367D01*
X0108559Y0286366D02*
X0131242Y0286366D01*
X0131242Y0287364D02*
X0109407Y0287364D01*
X0109742Y0288363D02*
X0131242Y0288363D01*
X0131242Y0289361D02*
X0109727Y0289361D01*
X0109314Y0290360D02*
X0131242Y0290360D01*
X0131242Y0291358D02*
X0108122Y0291358D01*
X0105561Y0291358D02*
X0083842Y0291358D01*
X0083842Y0290360D02*
X0104370Y0290360D01*
X0103956Y0289361D02*
X0083842Y0289361D01*
X0083842Y0288363D02*
X0103626Y0288363D01*
X0102628Y0287364D02*
X0096608Y0287364D01*
X0097811Y0286366D02*
X0101629Y0286366D01*
X0100631Y0285367D02*
X0098225Y0285367D01*
X0098242Y0284369D02*
X0099632Y0284369D01*
X0098342Y0284356D02*
X0098342Y0287750D01*
X0098342Y0284356D02*
X0096336Y0282350D01*
X0093542Y0282350D01*
X0090892Y0279700D01*
X0092643Y0277379D02*
X0077800Y0277379D01*
X0078798Y0278378D02*
X0093641Y0278378D01*
X0094640Y0279376D02*
X0079797Y0279376D01*
X0080795Y0280375D02*
X0095638Y0280375D01*
X0096637Y0281373D02*
X0081794Y0281373D01*
X0082792Y0282372D02*
X0093619Y0282372D01*
X0097065Y0282372D02*
X0097635Y0282372D01*
X0097909Y0283370D02*
X0098634Y0283370D01*
X0094076Y0287364D02*
X0083842Y0287364D01*
X0083842Y0292357D02*
X0131242Y0292357D01*
X0131242Y0293355D02*
X0083842Y0293355D01*
X0083842Y0294354D02*
X0131242Y0294354D01*
X0131242Y0295353D02*
X0083842Y0295353D01*
X0083842Y0296351D02*
X0131242Y0296351D01*
X0131242Y0297350D02*
X0083842Y0297350D01*
X0083842Y0298348D02*
X0131242Y0298348D01*
X0131242Y0299347D02*
X0083842Y0299347D01*
X0083842Y0300345D02*
X0131242Y0300345D01*
X0131242Y0301344D02*
X0083842Y0301344D01*
X0083842Y0302342D02*
X0131242Y0302342D01*
X0131242Y0303341D02*
X0083842Y0303341D01*
X0083842Y0304339D02*
X0131242Y0304339D01*
X0131242Y0305338D02*
X0083842Y0305338D01*
X0083842Y0306336D02*
X0131242Y0306336D01*
X0131242Y0307335D02*
X0083842Y0307335D01*
X0084394Y0308333D02*
X0131242Y0308333D01*
X0131242Y0309332D02*
X0084742Y0309332D01*
X0084740Y0310330D02*
X0131242Y0310330D01*
X0131242Y0311329D02*
X0084327Y0311329D01*
X0083198Y0312327D02*
X0131242Y0312327D01*
X0119008Y0314324D02*
X0047676Y0314324D01*
X0049114Y0315323D02*
X0117569Y0315323D01*
X0116379Y0316321D02*
X0050304Y0316321D01*
X0051061Y0317320D02*
X0115623Y0317320D01*
X0115046Y0318318D02*
X0051637Y0318318D01*
X0052214Y0319317D02*
X0114470Y0319317D01*
X0114226Y0320315D02*
X0052457Y0320315D01*
X0052634Y0321314D02*
X0114050Y0321314D01*
X0113874Y0322312D02*
X0052810Y0322312D01*
X0052788Y0323311D02*
X0113896Y0323311D01*
X0114072Y0324309D02*
X0052612Y0324309D01*
X0052436Y0325308D02*
X0114248Y0325308D01*
X0114541Y0326306D02*
X0052143Y0326306D01*
X0051566Y0327305D02*
X0115117Y0327305D01*
X0115694Y0328303D02*
X0050990Y0328303D01*
X0050157Y0329302D02*
X0116526Y0329302D01*
X0117716Y0330300D02*
X0048967Y0330300D01*
X0084481Y0272550D02*
X0091813Y0272550D01*
X0096342Y0268022D01*
X0096342Y0242766D01*
X0095283Y0242328D01*
X0093764Y0240809D01*
X0093342Y0239790D01*
X0092920Y0240809D01*
X0091401Y0242328D01*
X0090342Y0242766D01*
X0090342Y0266690D01*
X0084481Y0272550D01*
X0084645Y0272387D02*
X0091977Y0272387D01*
X0092975Y0271388D02*
X0085643Y0271388D01*
X0086642Y0270390D02*
X0093974Y0270390D01*
X0094972Y0269391D02*
X0087640Y0269391D01*
X0088639Y0268393D02*
X0095971Y0268393D01*
X0096342Y0267394D02*
X0089637Y0267394D01*
X0090342Y0266396D02*
X0096342Y0266396D01*
X0096342Y0265397D02*
X0090342Y0265397D01*
X0090342Y0264399D02*
X0096342Y0264399D01*
X0096342Y0263400D02*
X0090342Y0263400D01*
X0090342Y0262402D02*
X0096342Y0262402D01*
X0096342Y0261403D02*
X0090342Y0261403D01*
X0090342Y0260405D02*
X0096342Y0260405D01*
X0096342Y0259406D02*
X0090342Y0259406D01*
X0090342Y0258408D02*
X0096342Y0258408D01*
X0096342Y0257409D02*
X0090342Y0257409D01*
X0090342Y0256411D02*
X0096342Y0256411D01*
X0096342Y0255412D02*
X0090342Y0255412D01*
X0090342Y0254414D02*
X0096342Y0254414D01*
X0096342Y0253415D02*
X0090342Y0253415D01*
X0090342Y0252417D02*
X0096342Y0252417D01*
X0096342Y0251418D02*
X0090342Y0251418D01*
X0090342Y0250420D02*
X0096342Y0250420D01*
X0096342Y0249421D02*
X0090342Y0249421D01*
X0090342Y0248422D02*
X0096342Y0248422D01*
X0096342Y0247424D02*
X0090342Y0247424D01*
X0090342Y0246425D02*
X0096342Y0246425D01*
X0096342Y0245427D02*
X0090342Y0245427D01*
X0090342Y0244428D02*
X0096342Y0244428D01*
X0096342Y0243430D02*
X0090342Y0243430D01*
X0091151Y0242431D02*
X0095533Y0242431D01*
X0094388Y0241433D02*
X0092296Y0241433D01*
X0093075Y0240434D02*
X0093609Y0240434D01*
X0083906Y0246425D02*
X0035442Y0246425D01*
X0035442Y0245427D02*
X0082907Y0245427D01*
X0081909Y0244428D02*
X0035442Y0244428D01*
X0035442Y0243430D02*
X0080910Y0243430D01*
X0084142Y0247424D02*
X0035442Y0247424D01*
X0035442Y0248422D02*
X0084142Y0248422D01*
X0084142Y0249421D02*
X0035442Y0249421D01*
X0035442Y0250420D02*
X0084142Y0250420D01*
X0084142Y0251418D02*
X0035442Y0251418D01*
X0035442Y0252417D02*
X0084142Y0252417D01*
X0084142Y0253415D02*
X0035442Y0253415D01*
X0035442Y0254414D02*
X0084142Y0254414D01*
X0084142Y0255412D02*
X0035442Y0255412D01*
X0035442Y0256411D02*
X0084142Y0256411D01*
X0084142Y0257409D02*
X0035442Y0257409D01*
X0035442Y0258408D02*
X0084142Y0258408D01*
X0084142Y0259406D02*
X0035442Y0259406D01*
X0035442Y0260405D02*
X0084142Y0260405D01*
X0084142Y0261403D02*
X0035442Y0261403D01*
X0035442Y0262402D02*
X0084142Y0262402D01*
X0084142Y0263400D02*
X0035442Y0263400D01*
X0035442Y0264399D02*
X0083582Y0264399D01*
X0081593Y0265397D02*
X0035442Y0265397D01*
X0107756Y0189510D02*
X0131242Y0189510D01*
X0131242Y0188512D02*
X0109181Y0188512D01*
X0109665Y0187513D02*
X0131242Y0187513D01*
X0131242Y0186515D02*
X0109742Y0186515D01*
X0109470Y0185516D02*
X0131242Y0185516D01*
X0131242Y0184518D02*
X0108711Y0184518D01*
X0106439Y0183519D02*
X0131242Y0183519D01*
X0131242Y0182521D02*
X0105441Y0182521D01*
X0104442Y0181522D02*
X0131242Y0181522D01*
X0131242Y0180524D02*
X0103444Y0180524D01*
X0102445Y0179525D02*
X0131242Y0179525D01*
X0131242Y0178527D02*
X0101447Y0178527D01*
X0100448Y0177528D02*
X0131242Y0177528D01*
X0131242Y0176530D02*
X0099450Y0176530D01*
X0098451Y0175531D02*
X0131242Y0175531D01*
X0131242Y0174533D02*
X0097453Y0174533D01*
X0096454Y0173534D02*
X0131242Y0173534D01*
X0131242Y0172536D02*
X0095485Y0172536D01*
X0096483Y0171537D02*
X0131242Y0171537D01*
X0131242Y0170539D02*
X0097482Y0170539D01*
X0098480Y0169540D02*
X0131242Y0169540D01*
X0131242Y0168542D02*
X0099479Y0168542D01*
X0100342Y0167543D02*
X0131242Y0167543D01*
X0131242Y0166545D02*
X0100342Y0166545D01*
X0100342Y0165546D02*
X0131242Y0165546D01*
X0131242Y0164548D02*
X0100342Y0164548D01*
X0100342Y0163549D02*
X0131242Y0163549D01*
X0131242Y0162551D02*
X0100342Y0162551D01*
X0100342Y0161552D02*
X0131242Y0161552D01*
X0131242Y0160553D02*
X0100342Y0160553D01*
X0100342Y0159555D02*
X0131242Y0159555D01*
X0131242Y0158556D02*
X0100342Y0158556D01*
X0100342Y0157558D02*
X0131242Y0157558D01*
X0131242Y0156559D02*
X0100342Y0156559D01*
X0100342Y0155561D02*
X0131242Y0155561D01*
X0131242Y0154562D02*
X0100342Y0154562D01*
X0100342Y0153564D02*
X0131242Y0153564D01*
X0131242Y0152565D02*
X0100342Y0152565D01*
X0100342Y0151567D02*
X0131242Y0151567D01*
X0131242Y0150568D02*
X0100342Y0150568D01*
X0100342Y0149570D02*
X0131242Y0149570D01*
X0131242Y0148571D02*
X0100342Y0148571D01*
X0100342Y0147573D02*
X0131242Y0147573D01*
X0131242Y0146574D02*
X0100342Y0146574D01*
X0100342Y0145576D02*
X0131242Y0145576D01*
X0131242Y0144577D02*
X0100342Y0144577D01*
X0100342Y0143579D02*
X0131242Y0143579D01*
X0131242Y0142580D02*
X0100342Y0142580D01*
X0100342Y0141582D02*
X0131242Y0141582D01*
X0131242Y0140583D02*
X0100784Y0140583D01*
X0102144Y0139585D02*
X0131242Y0139585D01*
X0131242Y0138586D02*
X0103012Y0138586D01*
X0103426Y0137588D02*
X0131242Y0137588D01*
X0128009Y0136589D02*
X0103742Y0136589D01*
X0103742Y0135591D02*
X0127204Y0135591D01*
X0126892Y0134592D02*
X0103707Y0134592D01*
X0103294Y0133594D02*
X0126921Y0133594D01*
X0118133Y0126650D02*
X0116030Y0124885D01*
X0114372Y0122015D01*
X0114372Y0122015D01*
X0113797Y0118750D01*
X0114372Y0115485D01*
X0116030Y0112615D01*
X0116030Y0112615D01*
X0118569Y0110484D01*
X0118569Y0110484D01*
X0121684Y0109350D01*
X0124999Y0109350D01*
X0128114Y0110484D01*
X0128114Y0110484D01*
X0130654Y0112615D01*
X0131242Y0113633D01*
X0131242Y0034863D01*
X0130429Y0035200D01*
X0129255Y0035200D01*
X0128171Y0034751D01*
X0127341Y0033921D01*
X0126892Y0032837D01*
X0126892Y0031663D01*
X0127229Y0030850D01*
X0102985Y0030850D01*
X0103742Y0032676D01*
X0103742Y0034824D01*
X0102920Y0036809D01*
X0101401Y0038328D01*
X0100342Y0038766D01*
X0100342Y0065678D01*
X0095470Y0070550D01*
X0106770Y0081850D01*
X0107419Y0081850D01*
X0108485Y0082291D01*
X0109300Y0083107D01*
X0109742Y0084173D01*
X0109742Y0085327D01*
X0109300Y0086393D01*
X0108485Y0087208D01*
X0107419Y0087650D01*
X0106265Y0087650D01*
X0105199Y0087208D01*
X0104383Y0086393D01*
X0103942Y0085327D01*
X0103942Y0084678D01*
X0091813Y0072550D01*
X0076970Y0072550D01*
X0083170Y0078750D01*
X0093241Y0078750D01*
X0093699Y0078291D01*
X0094765Y0077850D01*
X0095919Y0077850D01*
X0096985Y0078291D01*
X0097800Y0079107D01*
X0098242Y0080173D01*
X0098242Y0081327D01*
X0097800Y0082393D01*
X0096985Y0083208D01*
X0095919Y0083650D01*
X0094765Y0083650D01*
X0093699Y0083208D01*
X0093241Y0082750D01*
X0083781Y0082750D01*
X0083842Y0082810D01*
X0083842Y0103649D01*
X0084300Y0104107D01*
X0084742Y0105173D01*
X0084742Y0106327D01*
X0084300Y0107393D01*
X0083485Y0108208D01*
X0082419Y0108650D01*
X0081265Y0108650D01*
X0080199Y0108208D01*
X0079383Y0107393D01*
X0078942Y0106327D01*
X0078942Y0105173D01*
X0079383Y0104107D01*
X0079842Y0103649D01*
X0079842Y0084467D01*
X0074925Y0079550D01*
X0074813Y0079550D01*
X0073913Y0078650D01*
X0073265Y0078650D01*
X0072199Y0078208D01*
X0071383Y0077393D01*
X0070942Y0076327D01*
X0070942Y0075433D01*
X0070419Y0075650D01*
X0069265Y0075650D01*
X0068199Y0075208D01*
X0067383Y0074393D01*
X0067279Y0074141D01*
X0063042Y0078378D01*
X0063042Y0078849D01*
X0063300Y0079107D01*
X0063742Y0080173D01*
X0063742Y0081327D01*
X0063300Y0082393D01*
X0062485Y0083208D01*
X0061419Y0083650D01*
X0060265Y0083650D01*
X0059199Y0083208D01*
X0058383Y0082393D01*
X0057942Y0081327D01*
X0057942Y0080173D01*
X0058383Y0079107D01*
X0058642Y0078849D01*
X0058642Y0076556D01*
X0073648Y0061550D01*
X0081441Y0061550D01*
X0081699Y0061291D01*
X0082765Y0060850D01*
X0083131Y0060850D01*
X0084142Y0059839D01*
X0084142Y0042661D01*
X0080275Y0038794D01*
X0079416Y0039150D01*
X0077268Y0039150D01*
X0075283Y0038328D01*
X0073764Y0036809D01*
X0073232Y0035526D01*
X0073161Y0035746D01*
X0072789Y0036475D01*
X0072308Y0037138D01*
X0071729Y0037716D01*
X0071067Y0038197D01*
X0070338Y0038569D01*
X0069559Y0038822D01*
X0068842Y0038936D01*
X0068842Y0034250D01*
X0067842Y0034250D01*
X0067842Y0038936D01*
X0067124Y0038822D01*
X0066346Y0038569D01*
X0065616Y0038197D01*
X0064954Y0037716D01*
X0064375Y0037138D01*
X0063894Y0036475D01*
X0063523Y0035746D01*
X0063270Y0034968D01*
X0063156Y0034250D01*
X0067842Y0034250D01*
X0067842Y0033250D01*
X0063156Y0033250D01*
X0063270Y0032532D01*
X0063523Y0031754D01*
X0063894Y0031025D01*
X0064021Y0030850D01*
X0050607Y0030850D01*
X0050855Y0032091D01*
X0049749Y0033750D01*
X0050855Y0035409D01*
X0050514Y0037115D01*
X0049066Y0038080D01*
X0047360Y0037739D01*
X0047225Y0037536D01*
X0047090Y0037739D01*
X0045384Y0038080D01*
X0044406Y0037428D01*
X0043675Y0037950D01*
X0041775Y0037950D01*
X0040478Y0037024D01*
X0040182Y0037353D01*
X0039088Y0037841D01*
X0038978Y0037950D01*
X0038842Y0037950D01*
X0038108Y0037950D01*
X0037239Y0037950D01*
X0037203Y0037915D01*
X0035803Y0037106D01*
X0035803Y0037106D01*
X0035442Y0036481D01*
X0035442Y0113633D01*
X0036030Y0112615D01*
X0036030Y0112615D01*
X0038569Y0110484D01*
X0038569Y0110484D01*
X0041684Y0109350D01*
X0044999Y0109350D01*
X0048114Y0110484D01*
X0050654Y0112615D01*
X0052311Y0115485D01*
X0052887Y0118750D01*
X0052311Y0122015D01*
X0050654Y0124885D01*
X0048551Y0126650D01*
X0118133Y0126650D01*
X0118078Y0126604D02*
X0048605Y0126604D01*
X0049795Y0125606D02*
X0116888Y0125606D01*
X0116030Y0124885D02*
X0116030Y0124885D01*
X0115869Y0124607D02*
X0050814Y0124607D01*
X0050654Y0124885D02*
X0050654Y0124885D01*
X0051391Y0123609D02*
X0115293Y0123609D01*
X0114716Y0122610D02*
X0051967Y0122610D01*
X0052311Y0122015D02*
X0052311Y0122015D01*
X0052382Y0121612D02*
X0114301Y0121612D01*
X0114125Y0120613D02*
X0052558Y0120613D01*
X0052734Y0119615D02*
X0113949Y0119615D01*
X0113797Y0118750D02*
X0113797Y0118750D01*
X0113820Y0118616D02*
X0052863Y0118616D01*
X0052887Y0118750D02*
X0052887Y0118750D01*
X0052687Y0117618D02*
X0113996Y0117618D01*
X0114173Y0116619D02*
X0052511Y0116619D01*
X0052335Y0115620D02*
X0114349Y0115620D01*
X0114372Y0115485D02*
X0114372Y0115485D01*
X0114871Y0114622D02*
X0051813Y0114622D01*
X0051236Y0113623D02*
X0115447Y0113623D01*
X0116024Y0112625D02*
X0050660Y0112625D01*
X0050654Y0112615D02*
X0050654Y0112615D01*
X0049476Y0111626D02*
X0117208Y0111626D01*
X0118397Y0110628D02*
X0048286Y0110628D01*
X0048114Y0110484D02*
X0048114Y0110484D01*
X0045767Y0109629D02*
X0120917Y0109629D01*
X0125767Y0109629D02*
X0131242Y0109629D01*
X0131242Y0108631D02*
X0082465Y0108631D01*
X0081219Y0108631D02*
X0035442Y0108631D01*
X0035442Y0109629D02*
X0040917Y0109629D01*
X0038397Y0110628D02*
X0035442Y0110628D01*
X0035442Y0111626D02*
X0037208Y0111626D01*
X0036024Y0112625D02*
X0035442Y0112625D01*
X0035442Y0113623D02*
X0035447Y0113623D01*
X0035442Y0107632D02*
X0079623Y0107632D01*
X0079069Y0106634D02*
X0035442Y0106634D01*
X0035442Y0105635D02*
X0078942Y0105635D01*
X0079164Y0104637D02*
X0035442Y0104637D01*
X0035442Y0103638D02*
X0079842Y0103638D01*
X0079842Y0102640D02*
X0035442Y0102640D01*
X0035442Y0101641D02*
X0079842Y0101641D01*
X0079842Y0100643D02*
X0035442Y0100643D01*
X0035442Y0099644D02*
X0079842Y0099644D01*
X0079842Y0098646D02*
X0035442Y0098646D01*
X0035442Y0097647D02*
X0079842Y0097647D01*
X0079842Y0096649D02*
X0035442Y0096649D01*
X0035442Y0095650D02*
X0079842Y0095650D01*
X0079842Y0094652D02*
X0035442Y0094652D01*
X0035442Y0093653D02*
X0079842Y0093653D01*
X0079842Y0092655D02*
X0035442Y0092655D01*
X0035442Y0091656D02*
X0079842Y0091656D01*
X0079842Y0090658D02*
X0035442Y0090658D01*
X0035442Y0089659D02*
X0079842Y0089659D01*
X0079842Y0088661D02*
X0035442Y0088661D01*
X0035442Y0087662D02*
X0079842Y0087662D01*
X0079842Y0086664D02*
X0035442Y0086664D01*
X0035442Y0085665D02*
X0079842Y0085665D01*
X0079842Y0084667D02*
X0035442Y0084667D01*
X0035442Y0083668D02*
X0079043Y0083668D01*
X0078044Y0082670D02*
X0063023Y0082670D01*
X0063599Y0081671D02*
X0077046Y0081671D01*
X0076047Y0080673D02*
X0063742Y0080673D01*
X0063535Y0079674D02*
X0075049Y0079674D01*
X0073939Y0078676D02*
X0063042Y0078676D01*
X0063743Y0077677D02*
X0071668Y0077677D01*
X0071087Y0076679D02*
X0064742Y0076679D01*
X0065740Y0075680D02*
X0070942Y0075680D01*
X0067672Y0074682D02*
X0066739Y0074682D01*
X0063512Y0071686D02*
X0035442Y0071686D01*
X0035442Y0072684D02*
X0062513Y0072684D01*
X0061515Y0073683D02*
X0035442Y0073683D01*
X0035442Y0074682D02*
X0060516Y0074682D01*
X0059518Y0075680D02*
X0035442Y0075680D01*
X0035442Y0076679D02*
X0058642Y0076679D01*
X0058642Y0077677D02*
X0035442Y0077677D01*
X0035442Y0078676D02*
X0058642Y0078676D01*
X0058149Y0079674D02*
X0035442Y0079674D01*
X0035442Y0080673D02*
X0057942Y0080673D01*
X0058084Y0081671D02*
X0035442Y0081671D01*
X0035442Y0082670D02*
X0058660Y0082670D01*
X0060842Y0080750D02*
X0060842Y0077467D01*
X0074559Y0063750D01*
X0083342Y0063750D01*
X0086342Y0060750D01*
X0086342Y0041750D01*
X0078342Y0033750D01*
X0076266Y0038735D02*
X0069827Y0038735D01*
X0068842Y0038735D02*
X0067842Y0038735D01*
X0066857Y0038735D02*
X0035442Y0038735D01*
X0035442Y0037737D02*
X0036895Y0037737D01*
X0035803Y0037106D02*
X0035803Y0037106D01*
X0035590Y0036738D02*
X0035442Y0036738D01*
X0035442Y0039734D02*
X0081214Y0039734D01*
X0082213Y0040732D02*
X0035442Y0040732D01*
X0035442Y0041731D02*
X0083211Y0041731D01*
X0084142Y0042729D02*
X0035442Y0042729D01*
X0035442Y0043728D02*
X0084142Y0043728D01*
X0084142Y0044726D02*
X0035442Y0044726D01*
X0035442Y0045725D02*
X0084142Y0045725D01*
X0084142Y0046723D02*
X0035442Y0046723D01*
X0035442Y0047722D02*
X0084142Y0047722D01*
X0084142Y0048720D02*
X0035442Y0048720D01*
X0035442Y0049719D02*
X0084142Y0049719D01*
X0084142Y0050717D02*
X0035442Y0050717D01*
X0035442Y0051716D02*
X0084142Y0051716D01*
X0084142Y0052714D02*
X0035442Y0052714D01*
X0035442Y0053713D02*
X0084142Y0053713D01*
X0084142Y0054711D02*
X0035442Y0054711D01*
X0035442Y0055710D02*
X0084142Y0055710D01*
X0084142Y0056708D02*
X0035442Y0056708D01*
X0035442Y0057707D02*
X0084142Y0057707D01*
X0084142Y0058705D02*
X0035442Y0058705D01*
X0035442Y0059704D02*
X0084142Y0059704D01*
X0083278Y0060702D02*
X0035442Y0060702D01*
X0035442Y0061701D02*
X0073497Y0061701D01*
X0072498Y0062699D02*
X0035442Y0062699D01*
X0035442Y0063698D02*
X0071500Y0063698D01*
X0070501Y0064696D02*
X0035442Y0064696D01*
X0035442Y0065695D02*
X0069503Y0065695D01*
X0068504Y0066693D02*
X0035442Y0066693D01*
X0035442Y0067692D02*
X0067506Y0067692D01*
X0066507Y0068690D02*
X0035442Y0068690D01*
X0035442Y0069689D02*
X0065509Y0069689D01*
X0064510Y0070687D02*
X0035442Y0070687D01*
X0038842Y0037950D02*
X0038842Y0037950D01*
X0038842Y0037950D01*
X0039321Y0037737D02*
X0041477Y0037737D01*
X0040182Y0037353D02*
X0040182Y0037353D01*
X0043974Y0037737D02*
X0044869Y0037737D01*
X0047091Y0037737D02*
X0047359Y0037737D01*
X0049581Y0037737D02*
X0064982Y0037737D01*
X0064085Y0036738D02*
X0050589Y0036738D01*
X0050789Y0035740D02*
X0063521Y0035740D01*
X0063234Y0034741D02*
X0050410Y0034741D01*
X0049754Y0033743D02*
X0067842Y0033743D01*
X0067842Y0034741D02*
X0068842Y0034741D01*
X0068842Y0035740D02*
X0067842Y0035740D01*
X0067842Y0036738D02*
X0068842Y0036738D01*
X0068842Y0037737D02*
X0067842Y0037737D01*
X0071701Y0037737D02*
X0074692Y0037737D01*
X0073735Y0036738D02*
X0072598Y0036738D01*
X0073163Y0035740D02*
X0073321Y0035740D01*
X0063236Y0032744D02*
X0050420Y0032744D01*
X0050786Y0031746D02*
X0063527Y0031746D01*
X0090342Y0038766D02*
X0090342Y0062690D01*
X0084481Y0068550D01*
X0091813Y0068550D01*
X0096342Y0064022D01*
X0096342Y0038766D01*
X0095283Y0038328D01*
X0093764Y0036809D01*
X0093342Y0035790D01*
X0092920Y0036809D01*
X0091401Y0038328D01*
X0090342Y0038766D01*
X0090418Y0038735D02*
X0096266Y0038735D01*
X0096342Y0039734D02*
X0090342Y0039734D01*
X0090342Y0040732D02*
X0096342Y0040732D01*
X0096342Y0041731D02*
X0090342Y0041731D01*
X0090342Y0042729D02*
X0096342Y0042729D01*
X0096342Y0043728D02*
X0090342Y0043728D01*
X0090342Y0044726D02*
X0096342Y0044726D01*
X0096342Y0045725D02*
X0090342Y0045725D01*
X0090342Y0046723D02*
X0096342Y0046723D01*
X0096342Y0047722D02*
X0090342Y0047722D01*
X0090342Y0048720D02*
X0096342Y0048720D01*
X0096342Y0049719D02*
X0090342Y0049719D01*
X0090342Y0050717D02*
X0096342Y0050717D01*
X0096342Y0051716D02*
X0090342Y0051716D01*
X0090342Y0052714D02*
X0096342Y0052714D01*
X0096342Y0053713D02*
X0090342Y0053713D01*
X0090342Y0054711D02*
X0096342Y0054711D01*
X0096342Y0055710D02*
X0090342Y0055710D01*
X0090342Y0056708D02*
X0096342Y0056708D01*
X0096342Y0057707D02*
X0090342Y0057707D01*
X0090342Y0058705D02*
X0096342Y0058705D01*
X0096342Y0059704D02*
X0090342Y0059704D01*
X0090342Y0060702D02*
X0096342Y0060702D01*
X0096342Y0061701D02*
X0090342Y0061701D01*
X0090332Y0062699D02*
X0096342Y0062699D01*
X0096342Y0063698D02*
X0089334Y0063698D01*
X0088335Y0064696D02*
X0095667Y0064696D01*
X0094668Y0065695D02*
X0087337Y0065695D01*
X0086338Y0066693D02*
X0093670Y0066693D01*
X0092671Y0067692D02*
X0085340Y0067692D01*
X0091948Y0072684D02*
X0077105Y0072684D01*
X0078103Y0073683D02*
X0092946Y0073683D01*
X0093945Y0074682D02*
X0079102Y0074682D01*
X0080100Y0075680D02*
X0094943Y0075680D01*
X0095942Y0076679D02*
X0081099Y0076679D01*
X0082097Y0077677D02*
X0096940Y0077677D01*
X0096336Y0078350D02*
X0098342Y0080356D01*
X0098342Y0083750D01*
X0097523Y0082670D02*
X0101933Y0082670D01*
X0102932Y0083668D02*
X0083842Y0083668D01*
X0083842Y0084667D02*
X0103930Y0084667D01*
X0104082Y0085665D02*
X0083842Y0085665D01*
X0083842Y0086664D02*
X0104654Y0086664D01*
X0109029Y0086664D02*
X0131242Y0086664D01*
X0131242Y0087662D02*
X0083842Y0087662D01*
X0083842Y0088661D02*
X0131242Y0088661D01*
X0131242Y0089659D02*
X0083842Y0089659D01*
X0083842Y0090658D02*
X0131242Y0090658D01*
X0131242Y0091656D02*
X0083842Y0091656D01*
X0083842Y0092655D02*
X0131242Y0092655D01*
X0131242Y0093653D02*
X0083842Y0093653D01*
X0083842Y0094652D02*
X0131242Y0094652D01*
X0131242Y0095650D02*
X0083842Y0095650D01*
X0083842Y0096649D02*
X0131242Y0096649D01*
X0131242Y0097647D02*
X0083842Y0097647D01*
X0083842Y0098646D02*
X0131242Y0098646D01*
X0131242Y0099644D02*
X0083842Y0099644D01*
X0083842Y0100643D02*
X0131242Y0100643D01*
X0131242Y0101641D02*
X0083842Y0101641D01*
X0083842Y0102640D02*
X0131242Y0102640D01*
X0131242Y0103638D02*
X0083842Y0103638D01*
X0084520Y0104637D02*
X0131242Y0104637D01*
X0131242Y0105635D02*
X0084742Y0105635D01*
X0084615Y0106634D02*
X0131242Y0106634D01*
X0131242Y0107632D02*
X0084061Y0107632D01*
X0109602Y0085665D02*
X0131242Y0085665D01*
X0131242Y0084667D02*
X0109742Y0084667D01*
X0109533Y0083668D02*
X0131242Y0083668D01*
X0131242Y0082670D02*
X0108863Y0082670D01*
X0106591Y0081671D02*
X0131242Y0081671D01*
X0131242Y0080673D02*
X0105593Y0080673D01*
X0104594Y0079674D02*
X0131242Y0079674D01*
X0131242Y0078676D02*
X0103596Y0078676D01*
X0102597Y0077677D02*
X0131242Y0077677D01*
X0131242Y0076679D02*
X0101599Y0076679D01*
X0100600Y0075680D02*
X0131242Y0075680D01*
X0131242Y0074682D02*
X0099602Y0074682D01*
X0098603Y0073683D02*
X0131242Y0073683D01*
X0131242Y0072684D02*
X0097605Y0072684D01*
X0096606Y0071686D02*
X0131242Y0071686D01*
X0131242Y0070687D02*
X0095608Y0070687D01*
X0096331Y0069689D02*
X0131242Y0069689D01*
X0131242Y0068690D02*
X0097330Y0068690D01*
X0098328Y0067692D02*
X0131242Y0067692D01*
X0131242Y0066693D02*
X0099327Y0066693D01*
X0100325Y0065695D02*
X0131242Y0065695D01*
X0131242Y0064696D02*
X0100342Y0064696D01*
X0100342Y0063698D02*
X0131242Y0063698D01*
X0131242Y0062699D02*
X0100342Y0062699D01*
X0100342Y0061701D02*
X0131242Y0061701D01*
X0131242Y0060702D02*
X0100342Y0060702D01*
X0100342Y0059704D02*
X0131242Y0059704D01*
X0131242Y0058705D02*
X0100342Y0058705D01*
X0100342Y0057707D02*
X0131242Y0057707D01*
X0131242Y0056708D02*
X0100342Y0056708D01*
X0100342Y0055710D02*
X0131242Y0055710D01*
X0131242Y0054711D02*
X0100342Y0054711D01*
X0100342Y0053713D02*
X0131242Y0053713D01*
X0131242Y0052714D02*
X0100342Y0052714D01*
X0100342Y0051716D02*
X0131242Y0051716D01*
X0131242Y0050717D02*
X0100342Y0050717D01*
X0100342Y0049719D02*
X0131242Y0049719D01*
X0131242Y0048720D02*
X0100342Y0048720D01*
X0100342Y0047722D02*
X0131242Y0047722D01*
X0131242Y0046723D02*
X0100342Y0046723D01*
X0100342Y0045725D02*
X0131242Y0045725D01*
X0131242Y0044726D02*
X0100342Y0044726D01*
X0100342Y0043728D02*
X0131242Y0043728D01*
X0131242Y0042729D02*
X0100342Y0042729D01*
X0100342Y0041731D02*
X0131242Y0041731D01*
X0131242Y0040732D02*
X0100342Y0040732D01*
X0100342Y0039734D02*
X0131242Y0039734D01*
X0131242Y0038735D02*
X0100418Y0038735D01*
X0101992Y0037737D02*
X0131242Y0037737D01*
X0131242Y0036738D02*
X0102949Y0036738D01*
X0103363Y0035740D02*
X0131242Y0035740D01*
X0128161Y0034741D02*
X0103742Y0034741D01*
X0103742Y0033743D02*
X0127267Y0033743D01*
X0126892Y0032744D02*
X0103742Y0032744D01*
X0103356Y0031746D02*
X0126892Y0031746D01*
X0137442Y0036481D02*
X0137442Y0113633D01*
X0138030Y0112615D01*
X0140569Y0110484D01*
X0143684Y0109350D01*
X0146999Y0109350D01*
X0150114Y0110484D01*
X0150114Y0110484D01*
X0152654Y0112615D01*
X0154311Y0115485D01*
X0154311Y0115485D01*
X0154887Y0118750D01*
X0154311Y0122015D01*
X0152654Y0124885D01*
X0150551Y0126650D01*
X0220133Y0126650D01*
X0218030Y0124885D01*
X0216372Y0122015D01*
X0216372Y0122015D01*
X0215797Y0118750D01*
X0216372Y0115485D01*
X0218030Y0112615D01*
X0218030Y0112615D01*
X0220569Y0110484D01*
X0220569Y0110484D01*
X0223684Y0109350D01*
X0226999Y0109350D01*
X0230114Y0110484D01*
X0230114Y0110484D01*
X0232654Y0112615D01*
X0233242Y0113633D01*
X0233242Y0034863D01*
X0232429Y0035200D01*
X0231255Y0035200D01*
X0230171Y0034751D01*
X0229341Y0033921D01*
X0228892Y0032837D01*
X0228892Y0031663D01*
X0229229Y0030850D01*
X0204985Y0030850D01*
X0205742Y0032676D01*
X0205742Y0034824D01*
X0204920Y0036809D01*
X0203401Y0038328D01*
X0202342Y0038766D01*
X0202342Y0065678D01*
X0197470Y0070550D01*
X0208770Y0081850D01*
X0209419Y0081850D01*
X0210485Y0082291D01*
X0211300Y0083107D01*
X0211742Y0084173D01*
X0211742Y0085327D01*
X0211300Y0086393D01*
X0210485Y0087208D01*
X0209419Y0087650D01*
X0208265Y0087650D01*
X0207199Y0087208D01*
X0206383Y0086393D01*
X0205942Y0085327D01*
X0205942Y0084678D01*
X0193813Y0072550D01*
X0178970Y0072550D01*
X0185170Y0078750D01*
X0195241Y0078750D01*
X0195699Y0078291D01*
X0196765Y0077850D01*
X0197919Y0077850D01*
X0198985Y0078291D01*
X0199800Y0079107D01*
X0200242Y0080173D01*
X0200242Y0081327D01*
X0199800Y0082393D01*
X0198985Y0083208D01*
X0197919Y0083650D01*
X0196765Y0083650D01*
X0195699Y0083208D01*
X0195241Y0082750D01*
X0185781Y0082750D01*
X0185842Y0082810D01*
X0185842Y0103649D01*
X0186300Y0104107D01*
X0186742Y0105173D01*
X0186742Y0106327D01*
X0186300Y0107393D01*
X0185485Y0108208D01*
X0184419Y0108650D01*
X0183265Y0108650D01*
X0182199Y0108208D01*
X0181383Y0107393D01*
X0180942Y0106327D01*
X0180942Y0105173D01*
X0181383Y0104107D01*
X0181842Y0103649D01*
X0181842Y0084467D01*
X0176925Y0079550D01*
X0176813Y0079550D01*
X0175913Y0078650D01*
X0175265Y0078650D01*
X0174199Y0078208D01*
X0173383Y0077393D01*
X0172942Y0076327D01*
X0172942Y0075433D01*
X0172419Y0075650D01*
X0171265Y0075650D01*
X0170199Y0075208D01*
X0169383Y0074393D01*
X0169279Y0074141D01*
X0165042Y0078378D01*
X0165042Y0078849D01*
X0165300Y0079107D01*
X0165742Y0080173D01*
X0165742Y0081327D01*
X0165300Y0082393D01*
X0164485Y0083208D01*
X0163419Y0083650D01*
X0162265Y0083650D01*
X0161199Y0083208D01*
X0160383Y0082393D01*
X0159942Y0081327D01*
X0159942Y0080173D01*
X0160383Y0079107D01*
X0160642Y0078849D01*
X0160642Y0076556D01*
X0175648Y0061550D01*
X0183441Y0061550D01*
X0183699Y0061291D01*
X0184765Y0060850D01*
X0185131Y0060850D01*
X0186142Y0059839D01*
X0186142Y0042661D01*
X0182275Y0038794D01*
X0181416Y0039150D01*
X0179268Y0039150D01*
X0177283Y0038328D01*
X0175764Y0036809D01*
X0175232Y0035526D01*
X0175161Y0035746D01*
X0174789Y0036475D01*
X0174308Y0037138D01*
X0173729Y0037716D01*
X0173067Y0038197D01*
X0172338Y0038569D01*
X0171559Y0038822D01*
X0170842Y0038936D01*
X0170842Y0034250D01*
X0169842Y0034250D01*
X0169842Y0038936D01*
X0169124Y0038822D01*
X0168346Y0038569D01*
X0167616Y0038197D01*
X0166954Y0037716D01*
X0166375Y0037138D01*
X0165894Y0036475D01*
X0165523Y0035746D01*
X0165270Y0034968D01*
X0165156Y0034250D01*
X0169842Y0034250D01*
X0169842Y0033250D01*
X0165156Y0033250D01*
X0165270Y0032532D01*
X0165523Y0031754D01*
X0165894Y0031025D01*
X0166021Y0030850D01*
X0152607Y0030850D01*
X0152855Y0032091D01*
X0151749Y0033750D01*
X0152855Y0035409D01*
X0152514Y0037115D01*
X0151066Y0038080D01*
X0149360Y0037739D01*
X0149225Y0037536D01*
X0149090Y0037739D01*
X0147384Y0038080D01*
X0146406Y0037428D01*
X0145675Y0037950D01*
X0143775Y0037950D01*
X0142478Y0037024D01*
X0142182Y0037353D01*
X0141088Y0037841D01*
X0140978Y0037950D01*
X0140108Y0037950D01*
X0139264Y0037950D01*
X0139239Y0037950D01*
X0139203Y0037915D01*
X0137803Y0037106D01*
X0137803Y0037106D01*
X0137442Y0036481D01*
X0137442Y0036738D02*
X0137590Y0036738D01*
X0137803Y0037106D02*
X0137803Y0037106D01*
X0137442Y0037737D02*
X0138895Y0037737D01*
X0137442Y0038735D02*
X0168857Y0038735D01*
X0169842Y0038735D02*
X0170842Y0038735D01*
X0171827Y0038735D02*
X0178266Y0038735D01*
X0176692Y0037737D02*
X0173701Y0037737D01*
X0174598Y0036738D02*
X0175735Y0036738D01*
X0175321Y0035740D02*
X0175163Y0035740D01*
X0170842Y0035740D02*
X0169842Y0035740D01*
X0169842Y0036738D02*
X0170842Y0036738D01*
X0170842Y0037737D02*
X0169842Y0037737D01*
X0166982Y0037737D02*
X0151581Y0037737D01*
X0152589Y0036738D02*
X0166085Y0036738D01*
X0165521Y0035740D02*
X0152789Y0035740D01*
X0152410Y0034741D02*
X0165234Y0034741D01*
X0165236Y0032744D02*
X0152420Y0032744D01*
X0152786Y0031746D02*
X0165527Y0031746D01*
X0169842Y0033743D02*
X0151754Y0033743D01*
X0149359Y0037737D02*
X0149091Y0037737D01*
X0146869Y0037737D02*
X0145974Y0037737D01*
X0143477Y0037737D02*
X0141321Y0037737D01*
X0142182Y0037353D02*
X0142182Y0037353D01*
X0142182Y0037353D01*
X0137442Y0039734D02*
X0183214Y0039734D01*
X0184213Y0040732D02*
X0137442Y0040732D01*
X0137442Y0041731D02*
X0185211Y0041731D01*
X0186142Y0042729D02*
X0137442Y0042729D01*
X0137442Y0043728D02*
X0186142Y0043728D01*
X0186142Y0044726D02*
X0137442Y0044726D01*
X0137442Y0045725D02*
X0186142Y0045725D01*
X0186142Y0046723D02*
X0137442Y0046723D01*
X0137442Y0047722D02*
X0186142Y0047722D01*
X0186142Y0048720D02*
X0137442Y0048720D01*
X0137442Y0049719D02*
X0186142Y0049719D01*
X0186142Y0050717D02*
X0137442Y0050717D01*
X0137442Y0051716D02*
X0186142Y0051716D01*
X0186142Y0052714D02*
X0137442Y0052714D01*
X0137442Y0053713D02*
X0186142Y0053713D01*
X0186142Y0054711D02*
X0137442Y0054711D01*
X0137442Y0055710D02*
X0186142Y0055710D01*
X0186142Y0056708D02*
X0137442Y0056708D01*
X0137442Y0057707D02*
X0186142Y0057707D01*
X0186142Y0058705D02*
X0137442Y0058705D01*
X0137442Y0059704D02*
X0186142Y0059704D01*
X0185278Y0060702D02*
X0137442Y0060702D01*
X0137442Y0061701D02*
X0175497Y0061701D01*
X0174498Y0062699D02*
X0137442Y0062699D01*
X0137442Y0063698D02*
X0173500Y0063698D01*
X0172501Y0064696D02*
X0137442Y0064696D01*
X0137442Y0065695D02*
X0171503Y0065695D01*
X0170504Y0066693D02*
X0137442Y0066693D01*
X0137442Y0067692D02*
X0169506Y0067692D01*
X0168507Y0068690D02*
X0137442Y0068690D01*
X0137442Y0069689D02*
X0167509Y0069689D01*
X0166510Y0070687D02*
X0137442Y0070687D01*
X0137442Y0071686D02*
X0165512Y0071686D01*
X0164513Y0072684D02*
X0137442Y0072684D01*
X0137442Y0073683D02*
X0163515Y0073683D01*
X0162516Y0074682D02*
X0137442Y0074682D01*
X0137442Y0075680D02*
X0161518Y0075680D01*
X0160642Y0076679D02*
X0137442Y0076679D01*
X0137442Y0077677D02*
X0160642Y0077677D01*
X0160642Y0078676D02*
X0137442Y0078676D01*
X0137442Y0079674D02*
X0160149Y0079674D01*
X0159942Y0080673D02*
X0137442Y0080673D01*
X0137442Y0081671D02*
X0160084Y0081671D01*
X0160660Y0082670D02*
X0137442Y0082670D01*
X0137442Y0083668D02*
X0181043Y0083668D01*
X0181842Y0084667D02*
X0137442Y0084667D01*
X0137442Y0085665D02*
X0181842Y0085665D01*
X0181842Y0086664D02*
X0137442Y0086664D01*
X0137442Y0087662D02*
X0181842Y0087662D01*
X0181842Y0088661D02*
X0137442Y0088661D01*
X0137442Y0089659D02*
X0181842Y0089659D01*
X0181842Y0090658D02*
X0137442Y0090658D01*
X0137442Y0091656D02*
X0181842Y0091656D01*
X0181842Y0092655D02*
X0137442Y0092655D01*
X0137442Y0093653D02*
X0181842Y0093653D01*
X0181842Y0094652D02*
X0137442Y0094652D01*
X0137442Y0095650D02*
X0181842Y0095650D01*
X0181842Y0096649D02*
X0137442Y0096649D01*
X0137442Y0097647D02*
X0181842Y0097647D01*
X0181842Y0098646D02*
X0137442Y0098646D01*
X0137442Y0099644D02*
X0181842Y0099644D01*
X0181842Y0100643D02*
X0137442Y0100643D01*
X0137442Y0101641D02*
X0181842Y0101641D01*
X0181842Y0102640D02*
X0137442Y0102640D01*
X0137442Y0103638D02*
X0181842Y0103638D01*
X0181164Y0104637D02*
X0137442Y0104637D01*
X0137442Y0105635D02*
X0180942Y0105635D01*
X0181069Y0106634D02*
X0137442Y0106634D01*
X0137442Y0107632D02*
X0181623Y0107632D01*
X0183219Y0108631D02*
X0137442Y0108631D01*
X0137442Y0109629D02*
X0142917Y0109629D01*
X0140569Y0110484D02*
X0140569Y0110484D01*
X0140398Y0110628D02*
X0137442Y0110628D01*
X0137442Y0111626D02*
X0139208Y0111626D01*
X0138024Y0112625D02*
X0137442Y0112625D01*
X0137442Y0113623D02*
X0137447Y0113623D01*
X0131242Y0113623D02*
X0131236Y0113623D01*
X0131242Y0112625D02*
X0130660Y0112625D01*
X0130654Y0112615D02*
X0130654Y0112615D01*
X0130654Y0112615D01*
X0131242Y0111626D02*
X0129476Y0111626D01*
X0128286Y0110628D02*
X0131242Y0110628D01*
X0147767Y0109629D02*
X0222917Y0109629D01*
X0220397Y0110628D02*
X0150286Y0110628D01*
X0151476Y0111626D02*
X0219208Y0111626D01*
X0218024Y0112625D02*
X0152660Y0112625D01*
X0152654Y0112615D02*
X0152654Y0112615D01*
X0152654Y0112615D01*
X0153236Y0113623D02*
X0217447Y0113623D01*
X0216871Y0114622D02*
X0153813Y0114622D01*
X0154335Y0115620D02*
X0216349Y0115620D01*
X0216372Y0115485D02*
X0216372Y0115485D01*
X0216173Y0116619D02*
X0154511Y0116619D01*
X0154687Y0117618D02*
X0215996Y0117618D01*
X0215820Y0118616D02*
X0154863Y0118616D01*
X0154887Y0118750D02*
X0154887Y0118750D01*
X0154734Y0119615D02*
X0215949Y0119615D01*
X0215797Y0118750D02*
X0215797Y0118750D01*
X0216125Y0120613D02*
X0154558Y0120613D01*
X0154382Y0121612D02*
X0216301Y0121612D01*
X0216716Y0122610D02*
X0153967Y0122610D01*
X0154311Y0122015D02*
X0154311Y0122015D01*
X0153391Y0123609D02*
X0217293Y0123609D01*
X0217869Y0124607D02*
X0152814Y0124607D01*
X0152654Y0124885D02*
X0152654Y0124885D01*
X0151795Y0125606D02*
X0218888Y0125606D01*
X0218030Y0124885D02*
X0218030Y0124885D01*
X0218030Y0124885D01*
X0220078Y0126604D02*
X0150605Y0126604D01*
X0152755Y0133594D02*
X0165604Y0133594D01*
X0165260Y0134592D02*
X0152521Y0134592D01*
X0151855Y0135591D02*
X0169842Y0135591D01*
X0169842Y0136589D02*
X0170842Y0136589D01*
X0170842Y0137588D02*
X0169842Y0137588D01*
X0169842Y0138586D02*
X0170842Y0138586D01*
X0170842Y0139585D02*
X0169842Y0139585D01*
X0169842Y0140583D02*
X0170842Y0140583D01*
X0172294Y0140583D02*
X0177899Y0140583D01*
X0176540Y0139585D02*
X0173861Y0139585D01*
X0174709Y0138586D02*
X0175672Y0138586D01*
X0175258Y0137588D02*
X0175212Y0137588D01*
X0180342Y0135750D02*
X0188342Y0143750D01*
X0188342Y0162750D01*
X0185342Y0165750D01*
X0176559Y0165750D01*
X0183442Y0163549D02*
X0137442Y0163549D01*
X0137442Y0162551D02*
X0185430Y0162551D01*
X0186142Y0161552D02*
X0137442Y0161552D01*
X0137442Y0160553D02*
X0186142Y0160553D01*
X0186142Y0159555D02*
X0137442Y0159555D01*
X0137442Y0158556D02*
X0186142Y0158556D01*
X0186142Y0157558D02*
X0137442Y0157558D01*
X0137442Y0156559D02*
X0186142Y0156559D01*
X0186142Y0155561D02*
X0137442Y0155561D01*
X0137442Y0154562D02*
X0186142Y0154562D01*
X0186142Y0153564D02*
X0137442Y0153564D01*
X0137442Y0152565D02*
X0186142Y0152565D01*
X0186142Y0151567D02*
X0137442Y0151567D01*
X0137442Y0150568D02*
X0186142Y0150568D01*
X0186142Y0149570D02*
X0137442Y0149570D01*
X0137442Y0148571D02*
X0186142Y0148571D01*
X0186142Y0147573D02*
X0137442Y0147573D01*
X0137442Y0146574D02*
X0186142Y0146574D01*
X0186142Y0145576D02*
X0137442Y0145576D01*
X0137442Y0144577D02*
X0186058Y0144577D01*
X0185059Y0143579D02*
X0137442Y0143579D01*
X0137442Y0142580D02*
X0184061Y0142580D01*
X0183062Y0141582D02*
X0137442Y0141582D01*
X0137442Y0140583D02*
X0168390Y0140583D01*
X0166823Y0139585D02*
X0151809Y0139585D01*
X0152619Y0138586D02*
X0165975Y0138586D01*
X0165471Y0137588D02*
X0152819Y0137588D01*
X0152308Y0136589D02*
X0165210Y0136589D01*
X0149258Y0139585D02*
X0149192Y0139585D01*
X0146641Y0139585D02*
X0146186Y0139585D01*
X0143264Y0139585D02*
X0141662Y0139585D01*
X0138632Y0139585D02*
X0137442Y0139585D01*
X0137803Y0139106D02*
X0137803Y0139106D01*
X0137502Y0138586D02*
X0137442Y0138586D01*
X0096342Y0140766D02*
X0095283Y0140328D01*
X0093764Y0138809D01*
X0093342Y0137790D01*
X0092920Y0138809D01*
X0091401Y0140328D01*
X0090342Y0140766D01*
X0090342Y0164690D01*
X0084481Y0170550D01*
X0091813Y0170550D01*
X0096342Y0166022D01*
X0096342Y0140766D01*
X0095900Y0140583D02*
X0090784Y0140583D01*
X0090342Y0141582D02*
X0096342Y0141582D01*
X0096342Y0142580D02*
X0090342Y0142580D01*
X0090342Y0143579D02*
X0096342Y0143579D01*
X0096342Y0144577D02*
X0090342Y0144577D01*
X0090342Y0145576D02*
X0096342Y0145576D01*
X0096342Y0146574D02*
X0090342Y0146574D01*
X0090342Y0147573D02*
X0096342Y0147573D01*
X0096342Y0148571D02*
X0090342Y0148571D01*
X0090342Y0149570D02*
X0096342Y0149570D01*
X0096342Y0150568D02*
X0090342Y0150568D01*
X0090342Y0151567D02*
X0096342Y0151567D01*
X0096342Y0152565D02*
X0090342Y0152565D01*
X0090342Y0153564D02*
X0096342Y0153564D01*
X0096342Y0154562D02*
X0090342Y0154562D01*
X0090342Y0155561D02*
X0096342Y0155561D01*
X0096342Y0156559D02*
X0090342Y0156559D01*
X0090342Y0157558D02*
X0096342Y0157558D01*
X0096342Y0158556D02*
X0090342Y0158556D01*
X0090342Y0159555D02*
X0096342Y0159555D01*
X0096342Y0160553D02*
X0090342Y0160553D01*
X0090342Y0161552D02*
X0096342Y0161552D01*
X0096342Y0162551D02*
X0090342Y0162551D01*
X0090342Y0163549D02*
X0096342Y0163549D01*
X0096342Y0164548D02*
X0090342Y0164548D01*
X0089485Y0165546D02*
X0096342Y0165546D01*
X0095819Y0166545D02*
X0088487Y0166545D01*
X0087488Y0167543D02*
X0094820Y0167543D01*
X0093822Y0168542D02*
X0086490Y0168542D01*
X0085491Y0169540D02*
X0092823Y0169540D01*
X0091825Y0170539D02*
X0084493Y0170539D01*
X0083342Y0165750D02*
X0086342Y0162750D01*
X0086342Y0143750D01*
X0078342Y0135750D01*
X0074540Y0139585D02*
X0071861Y0139585D01*
X0072709Y0138586D02*
X0073672Y0138586D01*
X0073258Y0137588D02*
X0073212Y0137588D01*
X0075899Y0140583D02*
X0070294Y0140583D01*
X0068842Y0140583D02*
X0067842Y0140583D01*
X0067842Y0139585D02*
X0068842Y0139585D01*
X0068842Y0138586D02*
X0067842Y0138586D01*
X0067842Y0137588D02*
X0068842Y0137588D01*
X0068842Y0136589D02*
X0067842Y0136589D01*
X0067842Y0135591D02*
X0049855Y0135591D01*
X0050308Y0136589D02*
X0063210Y0136589D01*
X0063471Y0137588D02*
X0050819Y0137588D01*
X0050619Y0138586D02*
X0063975Y0138586D01*
X0064823Y0139585D02*
X0049809Y0139585D01*
X0047258Y0139585D02*
X0047192Y0139585D01*
X0044641Y0139585D02*
X0044186Y0139585D01*
X0041264Y0139585D02*
X0039662Y0139585D01*
X0036632Y0139585D02*
X0035442Y0139585D01*
X0035803Y0139106D02*
X0035803Y0139106D01*
X0035502Y0138586D02*
X0035442Y0138586D01*
X0035442Y0140583D02*
X0066390Y0140583D01*
X0063260Y0134592D02*
X0050521Y0134592D01*
X0050755Y0133594D02*
X0063604Y0133594D01*
X0081062Y0141582D02*
X0035442Y0141582D01*
X0035442Y0142580D02*
X0082061Y0142580D01*
X0083059Y0143579D02*
X0035442Y0143579D01*
X0035442Y0144577D02*
X0084058Y0144577D01*
X0084142Y0145576D02*
X0035442Y0145576D01*
X0035442Y0146574D02*
X0084142Y0146574D01*
X0084142Y0147573D02*
X0035442Y0147573D01*
X0035442Y0148571D02*
X0084142Y0148571D01*
X0084142Y0149570D02*
X0035442Y0149570D01*
X0035442Y0150568D02*
X0084142Y0150568D01*
X0084142Y0151567D02*
X0035442Y0151567D01*
X0035442Y0152565D02*
X0084142Y0152565D01*
X0084142Y0153564D02*
X0035442Y0153564D01*
X0035442Y0154562D02*
X0084142Y0154562D01*
X0084142Y0155561D02*
X0035442Y0155561D01*
X0035442Y0156559D02*
X0084142Y0156559D01*
X0084142Y0157558D02*
X0035442Y0157558D01*
X0035442Y0158556D02*
X0084142Y0158556D01*
X0084142Y0159555D02*
X0035442Y0159555D01*
X0035442Y0160553D02*
X0084142Y0160553D01*
X0084142Y0161552D02*
X0035442Y0161552D01*
X0035442Y0162551D02*
X0083430Y0162551D01*
X0081442Y0163549D02*
X0035442Y0163549D01*
X0074559Y0165750D02*
X0083342Y0165750D01*
X0090892Y0177700D02*
X0093542Y0180350D01*
X0096336Y0180350D01*
X0097217Y0180524D02*
X0097787Y0180524D01*
X0097972Y0181522D02*
X0098786Y0181522D01*
X0098242Y0182521D02*
X0099784Y0182521D01*
X0100783Y0183519D02*
X0098162Y0183519D01*
X0093467Y0180524D02*
X0082944Y0180524D01*
X0092144Y0139585D02*
X0094540Y0139585D01*
X0093672Y0138586D02*
X0093012Y0138586D01*
X0098099Y0081671D02*
X0100934Y0081671D01*
X0099936Y0080673D02*
X0098242Y0080673D01*
X0098035Y0079674D02*
X0098937Y0079674D01*
X0097939Y0078676D02*
X0097369Y0078676D01*
X0096336Y0078350D02*
X0093542Y0078350D01*
X0090892Y0075700D01*
X0093315Y0078676D02*
X0083096Y0078676D01*
X0091992Y0037737D02*
X0094692Y0037737D01*
X0093735Y0036738D02*
X0092949Y0036738D01*
X0162842Y0077467D02*
X0176559Y0063750D01*
X0185342Y0063750D01*
X0188342Y0060750D01*
X0188342Y0041750D01*
X0180342Y0033750D01*
X0170842Y0034741D02*
X0169842Y0034741D01*
X0192342Y0038766D02*
X0192342Y0062690D01*
X0186481Y0068550D01*
X0193813Y0068550D01*
X0198342Y0064022D01*
X0198342Y0038766D01*
X0197283Y0038328D01*
X0195764Y0036809D01*
X0195342Y0035790D01*
X0194920Y0036809D01*
X0193401Y0038328D01*
X0192342Y0038766D01*
X0192418Y0038735D02*
X0198266Y0038735D01*
X0198342Y0039734D02*
X0192342Y0039734D01*
X0192342Y0040732D02*
X0198342Y0040732D01*
X0198342Y0041731D02*
X0192342Y0041731D01*
X0192342Y0042729D02*
X0198342Y0042729D01*
X0198342Y0043728D02*
X0192342Y0043728D01*
X0192342Y0044726D02*
X0198342Y0044726D01*
X0198342Y0045725D02*
X0192342Y0045725D01*
X0192342Y0046723D02*
X0198342Y0046723D01*
X0198342Y0047722D02*
X0192342Y0047722D01*
X0192342Y0048720D02*
X0198342Y0048720D01*
X0198342Y0049719D02*
X0192342Y0049719D01*
X0192342Y0050717D02*
X0198342Y0050717D01*
X0198342Y0051716D02*
X0192342Y0051716D01*
X0192342Y0052714D02*
X0198342Y0052714D01*
X0198342Y0053713D02*
X0192342Y0053713D01*
X0192342Y0054711D02*
X0198342Y0054711D01*
X0198342Y0055710D02*
X0192342Y0055710D01*
X0192342Y0056708D02*
X0198342Y0056708D01*
X0198342Y0057707D02*
X0192342Y0057707D01*
X0192342Y0058705D02*
X0198342Y0058705D01*
X0198342Y0059704D02*
X0192342Y0059704D01*
X0192342Y0060702D02*
X0198342Y0060702D01*
X0198342Y0061701D02*
X0192342Y0061701D01*
X0192332Y0062699D02*
X0198342Y0062699D01*
X0198342Y0063698D02*
X0191334Y0063698D01*
X0190335Y0064696D02*
X0197667Y0064696D01*
X0196668Y0065695D02*
X0189337Y0065695D01*
X0188338Y0066693D02*
X0195670Y0066693D01*
X0194671Y0067692D02*
X0187340Y0067692D01*
X0193948Y0072684D02*
X0179105Y0072684D01*
X0180103Y0073683D02*
X0194946Y0073683D01*
X0195945Y0074682D02*
X0181102Y0074682D01*
X0182100Y0075680D02*
X0196943Y0075680D01*
X0197942Y0076679D02*
X0183099Y0076679D01*
X0184097Y0077677D02*
X0198940Y0077677D01*
X0198336Y0078350D02*
X0200342Y0080356D01*
X0200342Y0083750D01*
X0199523Y0082670D02*
X0203933Y0082670D01*
X0204932Y0083668D02*
X0185842Y0083668D01*
X0185842Y0084667D02*
X0205930Y0084667D01*
X0206082Y0085665D02*
X0185842Y0085665D01*
X0185842Y0086664D02*
X0206654Y0086664D01*
X0211029Y0086664D02*
X0233242Y0086664D01*
X0233242Y0087662D02*
X0185842Y0087662D01*
X0185842Y0088661D02*
X0233242Y0088661D01*
X0233242Y0089659D02*
X0185842Y0089659D01*
X0185842Y0090658D02*
X0233242Y0090658D01*
X0233242Y0091656D02*
X0185842Y0091656D01*
X0185842Y0092655D02*
X0233242Y0092655D01*
X0233242Y0093653D02*
X0185842Y0093653D01*
X0185842Y0094652D02*
X0233242Y0094652D01*
X0233242Y0095650D02*
X0185842Y0095650D01*
X0185842Y0096649D02*
X0233242Y0096649D01*
X0233242Y0097647D02*
X0185842Y0097647D01*
X0185842Y0098646D02*
X0233242Y0098646D01*
X0233242Y0099644D02*
X0185842Y0099644D01*
X0185842Y0100643D02*
X0233242Y0100643D01*
X0233242Y0101641D02*
X0185842Y0101641D01*
X0185842Y0102640D02*
X0233242Y0102640D01*
X0233242Y0103638D02*
X0185842Y0103638D01*
X0186520Y0104637D02*
X0233242Y0104637D01*
X0233242Y0105635D02*
X0186742Y0105635D01*
X0186615Y0106634D02*
X0233242Y0106634D01*
X0233242Y0107632D02*
X0186061Y0107632D01*
X0184465Y0108631D02*
X0233242Y0108631D01*
X0233242Y0109629D02*
X0227767Y0109629D01*
X0230286Y0110628D02*
X0233242Y0110628D01*
X0233242Y0111626D02*
X0231476Y0111626D01*
X0232654Y0112615D02*
X0232654Y0112615D01*
X0232654Y0112615D01*
X0232660Y0112625D02*
X0233242Y0112625D01*
X0233236Y0113623D02*
X0233242Y0113623D01*
X0239442Y0113623D02*
X0239447Y0113623D01*
X0239442Y0113633D02*
X0240030Y0112615D01*
X0240030Y0112615D01*
X0242569Y0110484D01*
X0242569Y0110484D01*
X0245684Y0109350D01*
X0248999Y0109350D01*
X0252114Y0110484D01*
X0252114Y0110484D01*
X0254654Y0112615D01*
X0256311Y0115485D01*
X0256311Y0115485D01*
X0256887Y0118750D01*
X0256311Y0122015D01*
X0254654Y0124885D01*
X0252551Y0126650D01*
X0322133Y0126650D01*
X0320030Y0124885D01*
X0318372Y0122015D01*
X0318372Y0122015D01*
X0317797Y0118750D01*
X0318372Y0115485D01*
X0320030Y0112615D01*
X0320030Y0112615D01*
X0322569Y0110484D01*
X0322569Y0110484D01*
X0325684Y0109350D01*
X0328999Y0109350D01*
X0332114Y0110484D01*
X0332114Y0110484D01*
X0334654Y0112615D01*
X0335242Y0113633D01*
X0335242Y0034863D01*
X0334429Y0035200D01*
X0333255Y0035200D01*
X0332171Y0034751D01*
X0331341Y0033921D01*
X0330892Y0032837D01*
X0330892Y0031663D01*
X0331229Y0030850D01*
X0306985Y0030850D01*
X0307742Y0032676D01*
X0307742Y0034824D01*
X0306920Y0036809D01*
X0305401Y0038328D01*
X0304342Y0038766D01*
X0304342Y0065678D01*
X0299470Y0070550D01*
X0310770Y0081850D01*
X0311419Y0081850D01*
X0312485Y0082291D01*
X0313300Y0083107D01*
X0313742Y0084173D01*
X0313742Y0085327D01*
X0313300Y0086393D01*
X0312485Y0087208D01*
X0311419Y0087650D01*
X0310265Y0087650D01*
X0309199Y0087208D01*
X0308383Y0086393D01*
X0307942Y0085327D01*
X0307942Y0084678D01*
X0295813Y0072550D01*
X0280970Y0072550D01*
X0287170Y0078750D01*
X0297241Y0078750D01*
X0297699Y0078291D01*
X0298765Y0077850D01*
X0299919Y0077850D01*
X0300985Y0078291D01*
X0301800Y0079107D01*
X0302242Y0080173D01*
X0302242Y0081327D01*
X0301800Y0082393D01*
X0300985Y0083208D01*
X0299919Y0083650D01*
X0298765Y0083650D01*
X0297699Y0083208D01*
X0297241Y0082750D01*
X0287781Y0082750D01*
X0287842Y0082810D01*
X0287842Y0103649D01*
X0288300Y0104107D01*
X0288742Y0105173D01*
X0288742Y0106327D01*
X0288300Y0107393D01*
X0287485Y0108208D01*
X0286419Y0108650D01*
X0285265Y0108650D01*
X0284199Y0108208D01*
X0283383Y0107393D01*
X0282942Y0106327D01*
X0282942Y0105173D01*
X0283383Y0104107D01*
X0283842Y0103649D01*
X0283842Y0084467D01*
X0278925Y0079550D01*
X0278813Y0079550D01*
X0277913Y0078650D01*
X0277265Y0078650D01*
X0276199Y0078208D01*
X0275383Y0077393D01*
X0274942Y0076327D01*
X0274942Y0075433D01*
X0274419Y0075650D01*
X0273265Y0075650D01*
X0272199Y0075208D01*
X0271383Y0074393D01*
X0271279Y0074141D01*
X0267042Y0078378D01*
X0267042Y0078849D01*
X0267300Y0079107D01*
X0267742Y0080173D01*
X0267742Y0081327D01*
X0267300Y0082393D01*
X0266485Y0083208D01*
X0265419Y0083650D01*
X0264265Y0083650D01*
X0263199Y0083208D01*
X0262383Y0082393D01*
X0261942Y0081327D01*
X0261942Y0080173D01*
X0262383Y0079107D01*
X0262642Y0078849D01*
X0262642Y0076556D01*
X0277648Y0061550D01*
X0285441Y0061550D01*
X0285699Y0061291D01*
X0286765Y0060850D01*
X0287131Y0060850D01*
X0288142Y0059839D01*
X0288142Y0042661D01*
X0284275Y0038794D01*
X0283416Y0039150D01*
X0281268Y0039150D01*
X0279283Y0038328D01*
X0277764Y0036809D01*
X0277232Y0035526D01*
X0277161Y0035746D01*
X0276789Y0036475D01*
X0276308Y0037138D01*
X0275729Y0037716D01*
X0275067Y0038197D01*
X0274338Y0038569D01*
X0273559Y0038822D01*
X0272842Y0038936D01*
X0272842Y0034250D01*
X0271842Y0034250D01*
X0271842Y0038936D01*
X0271124Y0038822D01*
X0270346Y0038569D01*
X0269616Y0038197D01*
X0268954Y0037716D01*
X0268375Y0037138D01*
X0267894Y0036475D01*
X0267523Y0035746D01*
X0267270Y0034968D01*
X0267156Y0034250D01*
X0271842Y0034250D01*
X0271842Y0033250D01*
X0267156Y0033250D01*
X0267270Y0032532D01*
X0267523Y0031754D01*
X0267894Y0031025D01*
X0268021Y0030850D01*
X0254607Y0030850D01*
X0254855Y0032091D01*
X0253749Y0033750D01*
X0254855Y0035409D01*
X0254514Y0037115D01*
X0253066Y0038080D01*
X0251360Y0037739D01*
X0251225Y0037536D01*
X0251090Y0037739D01*
X0249384Y0038080D01*
X0248406Y0037428D01*
X0247675Y0037950D01*
X0245775Y0037950D01*
X0244478Y0037024D01*
X0244182Y0037353D01*
X0243088Y0037841D01*
X0242978Y0037950D01*
X0242842Y0037950D01*
X0242108Y0037950D01*
X0241239Y0037950D01*
X0241203Y0037915D01*
X0239803Y0037106D01*
X0239803Y0037106D01*
X0239442Y0036481D01*
X0239442Y0113633D01*
X0239442Y0112625D02*
X0240024Y0112625D01*
X0239442Y0111626D02*
X0241208Y0111626D01*
X0242397Y0110628D02*
X0239442Y0110628D01*
X0239442Y0109629D02*
X0244917Y0109629D01*
X0249767Y0109629D02*
X0324917Y0109629D01*
X0322397Y0110628D02*
X0252286Y0110628D01*
X0253476Y0111626D02*
X0321208Y0111626D01*
X0320024Y0112625D02*
X0254660Y0112625D01*
X0254654Y0112615D02*
X0254654Y0112615D01*
X0254654Y0112615D01*
X0255236Y0113623D02*
X0319447Y0113623D01*
X0318871Y0114622D02*
X0255813Y0114622D01*
X0256335Y0115620D02*
X0318349Y0115620D01*
X0318372Y0115485D02*
X0318372Y0115485D01*
X0318173Y0116619D02*
X0256511Y0116619D01*
X0256687Y0117618D02*
X0317996Y0117618D01*
X0317820Y0118616D02*
X0256863Y0118616D01*
X0256887Y0118750D02*
X0256887Y0118750D01*
X0256734Y0119615D02*
X0317949Y0119615D01*
X0317797Y0118750D02*
X0317797Y0118750D01*
X0318125Y0120613D02*
X0256558Y0120613D01*
X0256382Y0121612D02*
X0318301Y0121612D01*
X0318716Y0122610D02*
X0255967Y0122610D01*
X0256311Y0122015D02*
X0256311Y0122015D01*
X0255391Y0123609D02*
X0319293Y0123609D01*
X0319869Y0124607D02*
X0254814Y0124607D01*
X0254654Y0124885D02*
X0254654Y0124885D01*
X0253795Y0125606D02*
X0320888Y0125606D01*
X0320030Y0124885D02*
X0320030Y0124885D01*
X0320030Y0124885D01*
X0322078Y0126604D02*
X0252605Y0126604D01*
X0254755Y0133594D02*
X0267604Y0133594D01*
X0267260Y0134592D02*
X0254521Y0134592D01*
X0253855Y0135591D02*
X0271842Y0135591D01*
X0271842Y0136589D02*
X0272842Y0136589D01*
X0272842Y0137588D02*
X0271842Y0137588D01*
X0271842Y0138586D02*
X0272842Y0138586D01*
X0272842Y0139585D02*
X0271842Y0139585D01*
X0271842Y0140583D02*
X0272842Y0140583D01*
X0274294Y0140583D02*
X0279899Y0140583D01*
X0278540Y0139585D02*
X0275861Y0139585D01*
X0276709Y0138586D02*
X0277672Y0138586D01*
X0277258Y0137588D02*
X0277212Y0137588D01*
X0270390Y0140583D02*
X0239442Y0140583D01*
X0239442Y0139585D02*
X0240632Y0139585D01*
X0239803Y0139106D02*
X0239803Y0139106D01*
X0239502Y0138586D02*
X0239442Y0138586D01*
X0239442Y0141582D02*
X0285062Y0141582D01*
X0286061Y0142580D02*
X0239442Y0142580D01*
X0239442Y0143579D02*
X0287059Y0143579D01*
X0288058Y0144577D02*
X0239442Y0144577D01*
X0239442Y0145576D02*
X0288142Y0145576D01*
X0288142Y0146574D02*
X0239442Y0146574D01*
X0239442Y0147573D02*
X0288142Y0147573D01*
X0288142Y0148571D02*
X0239442Y0148571D01*
X0239442Y0149570D02*
X0288142Y0149570D01*
X0288142Y0150568D02*
X0239442Y0150568D01*
X0239442Y0151567D02*
X0288142Y0151567D01*
X0288142Y0152565D02*
X0239442Y0152565D01*
X0239442Y0153564D02*
X0288142Y0153564D01*
X0288142Y0154562D02*
X0239442Y0154562D01*
X0239442Y0155561D02*
X0288142Y0155561D01*
X0288142Y0156559D02*
X0239442Y0156559D01*
X0239442Y0157558D02*
X0288142Y0157558D01*
X0288142Y0158556D02*
X0239442Y0158556D01*
X0239442Y0159555D02*
X0288142Y0159555D01*
X0288142Y0160553D02*
X0239442Y0160553D01*
X0239442Y0161552D02*
X0288142Y0161552D01*
X0287430Y0162551D02*
X0239442Y0162551D01*
X0239442Y0163549D02*
X0285442Y0163549D01*
X0287342Y0165750D02*
X0278559Y0165750D01*
X0287342Y0165750D02*
X0290342Y0162750D01*
X0290342Y0143750D01*
X0282342Y0135750D01*
X0294342Y0140766D02*
X0294342Y0164690D01*
X0288481Y0170550D01*
X0295813Y0170550D01*
X0300342Y0166022D01*
X0300342Y0140766D01*
X0299283Y0140328D01*
X0297764Y0138809D01*
X0297342Y0137790D01*
X0296920Y0138809D01*
X0295401Y0140328D01*
X0294342Y0140766D01*
X0294784Y0140583D02*
X0299900Y0140583D01*
X0300342Y0141582D02*
X0294342Y0141582D01*
X0294342Y0142580D02*
X0300342Y0142580D01*
X0300342Y0143579D02*
X0294342Y0143579D01*
X0294342Y0144577D02*
X0300342Y0144577D01*
X0300342Y0145576D02*
X0294342Y0145576D01*
X0294342Y0146574D02*
X0300342Y0146574D01*
X0300342Y0147573D02*
X0294342Y0147573D01*
X0294342Y0148571D02*
X0300342Y0148571D01*
X0300342Y0149570D02*
X0294342Y0149570D01*
X0294342Y0150568D02*
X0300342Y0150568D01*
X0300342Y0151567D02*
X0294342Y0151567D01*
X0294342Y0152565D02*
X0300342Y0152565D01*
X0300342Y0153564D02*
X0294342Y0153564D01*
X0294342Y0154562D02*
X0300342Y0154562D01*
X0300342Y0155561D02*
X0294342Y0155561D01*
X0294342Y0156559D02*
X0300342Y0156559D01*
X0300342Y0157558D02*
X0294342Y0157558D01*
X0294342Y0158556D02*
X0300342Y0158556D01*
X0300342Y0159555D02*
X0294342Y0159555D01*
X0294342Y0160553D02*
X0300342Y0160553D01*
X0300342Y0161552D02*
X0294342Y0161552D01*
X0294342Y0162551D02*
X0300342Y0162551D01*
X0300342Y0163549D02*
X0294342Y0163549D01*
X0294342Y0164548D02*
X0300342Y0164548D01*
X0300342Y0165546D02*
X0293485Y0165546D01*
X0292487Y0166545D02*
X0299819Y0166545D01*
X0298820Y0167543D02*
X0291488Y0167543D01*
X0290490Y0168542D02*
X0297822Y0168542D01*
X0296823Y0169540D02*
X0289491Y0169540D01*
X0288493Y0170539D02*
X0295825Y0170539D01*
X0299485Y0172536D02*
X0335242Y0172536D01*
X0335242Y0173534D02*
X0300454Y0173534D01*
X0301453Y0174533D02*
X0335242Y0174533D01*
X0335242Y0175531D02*
X0302451Y0175531D01*
X0303450Y0176530D02*
X0335242Y0176530D01*
X0335242Y0177528D02*
X0304448Y0177528D01*
X0305447Y0178527D02*
X0335242Y0178527D01*
X0335242Y0179525D02*
X0306445Y0179525D01*
X0307444Y0180524D02*
X0335242Y0180524D01*
X0335242Y0181522D02*
X0308442Y0181522D01*
X0309441Y0182521D02*
X0335242Y0182521D01*
X0335242Y0183519D02*
X0310439Y0183519D01*
X0312711Y0184518D02*
X0335242Y0184518D01*
X0335242Y0185516D02*
X0313470Y0185516D01*
X0313742Y0186515D02*
X0335242Y0186515D01*
X0335242Y0187513D02*
X0313665Y0187513D01*
X0313181Y0188512D02*
X0335242Y0188512D01*
X0335242Y0189510D02*
X0311756Y0189510D01*
X0304783Y0183519D02*
X0302162Y0183519D01*
X0302242Y0182521D02*
X0303784Y0182521D01*
X0302786Y0181522D02*
X0301972Y0181522D01*
X0301787Y0180524D02*
X0301217Y0180524D01*
X0300336Y0180350D02*
X0297542Y0180350D01*
X0294892Y0177700D01*
X0297467Y0180524D02*
X0286944Y0180524D01*
X0300483Y0171537D02*
X0335242Y0171537D01*
X0335242Y0170539D02*
X0301482Y0170539D01*
X0302480Y0169540D02*
X0335242Y0169540D01*
X0335242Y0168542D02*
X0303479Y0168542D01*
X0304342Y0167543D02*
X0335242Y0167543D01*
X0335242Y0166545D02*
X0304342Y0166545D01*
X0304342Y0165546D02*
X0335242Y0165546D01*
X0335242Y0164548D02*
X0304342Y0164548D01*
X0304342Y0163549D02*
X0335242Y0163549D01*
X0335242Y0162551D02*
X0304342Y0162551D01*
X0304342Y0161552D02*
X0335242Y0161552D01*
X0335242Y0160553D02*
X0304342Y0160553D01*
X0304342Y0159555D02*
X0335242Y0159555D01*
X0335242Y0158556D02*
X0304342Y0158556D01*
X0304342Y0157558D02*
X0335242Y0157558D01*
X0335242Y0156559D02*
X0304342Y0156559D01*
X0304342Y0155561D02*
X0335242Y0155561D01*
X0335242Y0154562D02*
X0304342Y0154562D01*
X0304342Y0153564D02*
X0335242Y0153564D01*
X0335242Y0152565D02*
X0304342Y0152565D01*
X0304342Y0151567D02*
X0335242Y0151567D01*
X0335242Y0150568D02*
X0304342Y0150568D01*
X0304342Y0149570D02*
X0335242Y0149570D01*
X0335242Y0148571D02*
X0304342Y0148571D01*
X0304342Y0147573D02*
X0335242Y0147573D01*
X0335242Y0146574D02*
X0304342Y0146574D01*
X0304342Y0145576D02*
X0335242Y0145576D01*
X0335242Y0144577D02*
X0304342Y0144577D01*
X0304342Y0143579D02*
X0335242Y0143579D01*
X0335242Y0142580D02*
X0304342Y0142580D01*
X0304342Y0141582D02*
X0335242Y0141582D01*
X0335242Y0140583D02*
X0304784Y0140583D01*
X0306144Y0139585D02*
X0335242Y0139585D01*
X0335242Y0138586D02*
X0307012Y0138586D01*
X0307426Y0137588D02*
X0335242Y0137588D01*
X0332009Y0136589D02*
X0307742Y0136589D01*
X0307742Y0135591D02*
X0331204Y0135591D01*
X0330892Y0134592D02*
X0307707Y0134592D01*
X0307294Y0133594D02*
X0330921Y0133594D01*
X0335236Y0113623D02*
X0335242Y0113623D01*
X0335242Y0112625D02*
X0334660Y0112625D01*
X0334654Y0112615D02*
X0334654Y0112615D01*
X0334654Y0112615D01*
X0335242Y0111626D02*
X0333476Y0111626D01*
X0332286Y0110628D02*
X0335242Y0110628D01*
X0335242Y0109629D02*
X0329767Y0109629D01*
X0335242Y0108631D02*
X0286465Y0108631D01*
X0285219Y0108631D02*
X0239442Y0108631D01*
X0239442Y0107632D02*
X0283623Y0107632D01*
X0283069Y0106634D02*
X0239442Y0106634D01*
X0239442Y0105635D02*
X0282942Y0105635D01*
X0283164Y0104637D02*
X0239442Y0104637D01*
X0239442Y0103638D02*
X0283842Y0103638D01*
X0283842Y0102640D02*
X0239442Y0102640D01*
X0239442Y0101641D02*
X0283842Y0101641D01*
X0283842Y0100643D02*
X0239442Y0100643D01*
X0239442Y0099644D02*
X0283842Y0099644D01*
X0283842Y0098646D02*
X0239442Y0098646D01*
X0239442Y0097647D02*
X0283842Y0097647D01*
X0283842Y0096649D02*
X0239442Y0096649D01*
X0239442Y0095650D02*
X0283842Y0095650D01*
X0283842Y0094652D02*
X0239442Y0094652D01*
X0239442Y0093653D02*
X0283842Y0093653D01*
X0283842Y0092655D02*
X0239442Y0092655D01*
X0239442Y0091656D02*
X0283842Y0091656D01*
X0283842Y0090658D02*
X0239442Y0090658D01*
X0239442Y0089659D02*
X0283842Y0089659D01*
X0283842Y0088661D02*
X0239442Y0088661D01*
X0239442Y0087662D02*
X0283842Y0087662D01*
X0283842Y0086664D02*
X0239442Y0086664D01*
X0239442Y0085665D02*
X0283842Y0085665D01*
X0283842Y0084667D02*
X0239442Y0084667D01*
X0239442Y0083668D02*
X0283043Y0083668D01*
X0282044Y0082670D02*
X0267023Y0082670D01*
X0267599Y0081671D02*
X0281046Y0081671D01*
X0280047Y0080673D02*
X0267742Y0080673D01*
X0267535Y0079674D02*
X0279049Y0079674D01*
X0277939Y0078676D02*
X0267042Y0078676D01*
X0267743Y0077677D02*
X0275668Y0077677D01*
X0275087Y0076679D02*
X0268742Y0076679D01*
X0269740Y0075680D02*
X0274942Y0075680D01*
X0271672Y0074682D02*
X0270739Y0074682D01*
X0267512Y0071686D02*
X0239442Y0071686D01*
X0239442Y0072684D02*
X0266513Y0072684D01*
X0265515Y0073683D02*
X0239442Y0073683D01*
X0239442Y0074682D02*
X0264516Y0074682D01*
X0263518Y0075680D02*
X0239442Y0075680D01*
X0239442Y0076679D02*
X0262642Y0076679D01*
X0262642Y0077677D02*
X0239442Y0077677D01*
X0239442Y0078676D02*
X0262642Y0078676D01*
X0262149Y0079674D02*
X0239442Y0079674D01*
X0239442Y0080673D02*
X0261942Y0080673D01*
X0262084Y0081671D02*
X0239442Y0081671D01*
X0239442Y0082670D02*
X0262660Y0082670D01*
X0264842Y0080750D02*
X0264842Y0077467D01*
X0278559Y0063750D01*
X0287342Y0063750D01*
X0290342Y0060750D01*
X0290342Y0041750D01*
X0282342Y0033750D01*
X0280266Y0038735D02*
X0273827Y0038735D01*
X0272842Y0038735D02*
X0271842Y0038735D01*
X0270857Y0038735D02*
X0239442Y0038735D01*
X0239442Y0037737D02*
X0240895Y0037737D01*
X0239803Y0037106D02*
X0239803Y0037106D01*
X0239590Y0036738D02*
X0239442Y0036738D01*
X0239442Y0039734D02*
X0285214Y0039734D01*
X0286213Y0040732D02*
X0239442Y0040732D01*
X0239442Y0041731D02*
X0287211Y0041731D01*
X0288142Y0042729D02*
X0239442Y0042729D01*
X0239442Y0043728D02*
X0288142Y0043728D01*
X0288142Y0044726D02*
X0239442Y0044726D01*
X0239442Y0045725D02*
X0288142Y0045725D01*
X0288142Y0046723D02*
X0239442Y0046723D01*
X0239442Y0047722D02*
X0288142Y0047722D01*
X0288142Y0048720D02*
X0239442Y0048720D01*
X0239442Y0049719D02*
X0288142Y0049719D01*
X0288142Y0050717D02*
X0239442Y0050717D01*
X0239442Y0051716D02*
X0288142Y0051716D01*
X0288142Y0052714D02*
X0239442Y0052714D01*
X0239442Y0053713D02*
X0288142Y0053713D01*
X0288142Y0054711D02*
X0239442Y0054711D01*
X0239442Y0055710D02*
X0288142Y0055710D01*
X0288142Y0056708D02*
X0239442Y0056708D01*
X0239442Y0057707D02*
X0288142Y0057707D01*
X0288142Y0058705D02*
X0239442Y0058705D01*
X0239442Y0059704D02*
X0288142Y0059704D01*
X0287278Y0060702D02*
X0239442Y0060702D01*
X0239442Y0061701D02*
X0277497Y0061701D01*
X0276498Y0062699D02*
X0239442Y0062699D01*
X0239442Y0063698D02*
X0275500Y0063698D01*
X0274501Y0064696D02*
X0239442Y0064696D01*
X0239442Y0065695D02*
X0273503Y0065695D01*
X0272504Y0066693D02*
X0239442Y0066693D01*
X0239442Y0067692D02*
X0271506Y0067692D01*
X0270507Y0068690D02*
X0239442Y0068690D01*
X0239442Y0069689D02*
X0269509Y0069689D01*
X0268510Y0070687D02*
X0239442Y0070687D01*
X0233242Y0070687D02*
X0197608Y0070687D01*
X0198331Y0069689D02*
X0233242Y0069689D01*
X0233242Y0068690D02*
X0199330Y0068690D01*
X0200328Y0067692D02*
X0233242Y0067692D01*
X0233242Y0066693D02*
X0201327Y0066693D01*
X0202325Y0065695D02*
X0233242Y0065695D01*
X0233242Y0064696D02*
X0202342Y0064696D01*
X0202342Y0063698D02*
X0233242Y0063698D01*
X0233242Y0062699D02*
X0202342Y0062699D01*
X0202342Y0061701D02*
X0233242Y0061701D01*
X0233242Y0060702D02*
X0202342Y0060702D01*
X0202342Y0059704D02*
X0233242Y0059704D01*
X0233242Y0058705D02*
X0202342Y0058705D01*
X0202342Y0057707D02*
X0233242Y0057707D01*
X0233242Y0056708D02*
X0202342Y0056708D01*
X0202342Y0055710D02*
X0233242Y0055710D01*
X0233242Y0054711D02*
X0202342Y0054711D01*
X0202342Y0053713D02*
X0233242Y0053713D01*
X0233242Y0052714D02*
X0202342Y0052714D01*
X0202342Y0051716D02*
X0233242Y0051716D01*
X0233242Y0050717D02*
X0202342Y0050717D01*
X0202342Y0049719D02*
X0233242Y0049719D01*
X0233242Y0048720D02*
X0202342Y0048720D01*
X0202342Y0047722D02*
X0233242Y0047722D01*
X0233242Y0046723D02*
X0202342Y0046723D01*
X0202342Y0045725D02*
X0233242Y0045725D01*
X0233242Y0044726D02*
X0202342Y0044726D01*
X0202342Y0043728D02*
X0233242Y0043728D01*
X0233242Y0042729D02*
X0202342Y0042729D01*
X0202342Y0041731D02*
X0233242Y0041731D01*
X0233242Y0040732D02*
X0202342Y0040732D01*
X0202342Y0039734D02*
X0233242Y0039734D01*
X0233242Y0038735D02*
X0202418Y0038735D01*
X0203992Y0037737D02*
X0233242Y0037737D01*
X0233242Y0036738D02*
X0204949Y0036738D01*
X0205363Y0035740D02*
X0233242Y0035740D01*
X0230161Y0034741D02*
X0205742Y0034741D01*
X0205742Y0033743D02*
X0229267Y0033743D01*
X0228892Y0032744D02*
X0205742Y0032744D01*
X0205356Y0031746D02*
X0228892Y0031746D01*
X0243321Y0037737D02*
X0245477Y0037737D01*
X0244182Y0037353D02*
X0244182Y0037353D01*
X0247974Y0037737D02*
X0248869Y0037737D01*
X0251091Y0037737D02*
X0251359Y0037737D01*
X0253581Y0037737D02*
X0268982Y0037737D01*
X0268085Y0036738D02*
X0254589Y0036738D01*
X0254789Y0035740D02*
X0267521Y0035740D01*
X0267234Y0034741D02*
X0254410Y0034741D01*
X0253754Y0033743D02*
X0271842Y0033743D01*
X0271842Y0034741D02*
X0272842Y0034741D01*
X0272842Y0035740D02*
X0271842Y0035740D01*
X0271842Y0036738D02*
X0272842Y0036738D01*
X0272842Y0037737D02*
X0271842Y0037737D01*
X0275701Y0037737D02*
X0278692Y0037737D01*
X0277735Y0036738D02*
X0276598Y0036738D01*
X0277163Y0035740D02*
X0277321Y0035740D01*
X0267236Y0032744D02*
X0254420Y0032744D01*
X0254786Y0031746D02*
X0267527Y0031746D01*
X0294342Y0038766D02*
X0294342Y0062690D01*
X0288481Y0068550D01*
X0295813Y0068550D01*
X0300342Y0064022D01*
X0300342Y0038766D01*
X0299283Y0038328D01*
X0297764Y0036809D01*
X0297342Y0035790D01*
X0296920Y0036809D01*
X0295401Y0038328D01*
X0294342Y0038766D01*
X0294418Y0038735D02*
X0300266Y0038735D01*
X0300342Y0039734D02*
X0294342Y0039734D01*
X0294342Y0040732D02*
X0300342Y0040732D01*
X0300342Y0041731D02*
X0294342Y0041731D01*
X0294342Y0042729D02*
X0300342Y0042729D01*
X0300342Y0043728D02*
X0294342Y0043728D01*
X0294342Y0044726D02*
X0300342Y0044726D01*
X0300342Y0045725D02*
X0294342Y0045725D01*
X0294342Y0046723D02*
X0300342Y0046723D01*
X0300342Y0047722D02*
X0294342Y0047722D01*
X0294342Y0048720D02*
X0300342Y0048720D01*
X0300342Y0049719D02*
X0294342Y0049719D01*
X0294342Y0050717D02*
X0300342Y0050717D01*
X0300342Y0051716D02*
X0294342Y0051716D01*
X0294342Y0052714D02*
X0300342Y0052714D01*
X0300342Y0053713D02*
X0294342Y0053713D01*
X0294342Y0054711D02*
X0300342Y0054711D01*
X0300342Y0055710D02*
X0294342Y0055710D01*
X0294342Y0056708D02*
X0300342Y0056708D01*
X0300342Y0057707D02*
X0294342Y0057707D01*
X0294342Y0058705D02*
X0300342Y0058705D01*
X0300342Y0059704D02*
X0294342Y0059704D01*
X0294342Y0060702D02*
X0300342Y0060702D01*
X0300342Y0061701D02*
X0294342Y0061701D01*
X0294332Y0062699D02*
X0300342Y0062699D01*
X0300342Y0063698D02*
X0293334Y0063698D01*
X0292335Y0064696D02*
X0299667Y0064696D01*
X0298668Y0065695D02*
X0291337Y0065695D01*
X0290338Y0066693D02*
X0297670Y0066693D01*
X0296671Y0067692D02*
X0289340Y0067692D01*
X0295948Y0072684D02*
X0281105Y0072684D01*
X0282103Y0073683D02*
X0296946Y0073683D01*
X0297945Y0074682D02*
X0283102Y0074682D01*
X0284100Y0075680D02*
X0298943Y0075680D01*
X0299942Y0076679D02*
X0285099Y0076679D01*
X0286097Y0077677D02*
X0300940Y0077677D01*
X0300336Y0078350D02*
X0302342Y0080356D01*
X0302342Y0083750D01*
X0301523Y0082670D02*
X0305933Y0082670D01*
X0306932Y0083668D02*
X0287842Y0083668D01*
X0287842Y0084667D02*
X0307930Y0084667D01*
X0308082Y0085665D02*
X0287842Y0085665D01*
X0287842Y0086664D02*
X0308654Y0086664D01*
X0313029Y0086664D02*
X0335242Y0086664D01*
X0335242Y0087662D02*
X0287842Y0087662D01*
X0287842Y0088661D02*
X0335242Y0088661D01*
X0335242Y0089659D02*
X0287842Y0089659D01*
X0287842Y0090658D02*
X0335242Y0090658D01*
X0335242Y0091656D02*
X0287842Y0091656D01*
X0287842Y0092655D02*
X0335242Y0092655D01*
X0335242Y0093653D02*
X0287842Y0093653D01*
X0287842Y0094652D02*
X0335242Y0094652D01*
X0335242Y0095650D02*
X0287842Y0095650D01*
X0287842Y0096649D02*
X0335242Y0096649D01*
X0335242Y0097647D02*
X0287842Y0097647D01*
X0287842Y0098646D02*
X0335242Y0098646D01*
X0335242Y0099644D02*
X0287842Y0099644D01*
X0287842Y0100643D02*
X0335242Y0100643D01*
X0335242Y0101641D02*
X0287842Y0101641D01*
X0287842Y0102640D02*
X0335242Y0102640D01*
X0335242Y0103638D02*
X0287842Y0103638D01*
X0288520Y0104637D02*
X0335242Y0104637D01*
X0335242Y0105635D02*
X0288742Y0105635D01*
X0288615Y0106634D02*
X0335242Y0106634D01*
X0335242Y0107632D02*
X0288061Y0107632D01*
X0302099Y0081671D02*
X0304934Y0081671D01*
X0303936Y0080673D02*
X0302242Y0080673D01*
X0302035Y0079674D02*
X0302937Y0079674D01*
X0301939Y0078676D02*
X0301369Y0078676D01*
X0300336Y0078350D02*
X0297542Y0078350D01*
X0294892Y0075700D01*
X0297315Y0078676D02*
X0287096Y0078676D01*
X0299608Y0070687D02*
X0335242Y0070687D01*
X0335242Y0069689D02*
X0300331Y0069689D01*
X0301330Y0068690D02*
X0335242Y0068690D01*
X0335242Y0067692D02*
X0302328Y0067692D01*
X0303327Y0066693D02*
X0335242Y0066693D01*
X0335242Y0065695D02*
X0304325Y0065695D01*
X0304342Y0064696D02*
X0335242Y0064696D01*
X0335242Y0063698D02*
X0304342Y0063698D01*
X0304342Y0062699D02*
X0335242Y0062699D01*
X0335242Y0061701D02*
X0304342Y0061701D01*
X0304342Y0060702D02*
X0335242Y0060702D01*
X0335242Y0059704D02*
X0304342Y0059704D01*
X0304342Y0058705D02*
X0335242Y0058705D01*
X0335242Y0057707D02*
X0304342Y0057707D01*
X0304342Y0056708D02*
X0335242Y0056708D01*
X0335242Y0055710D02*
X0304342Y0055710D01*
X0304342Y0054711D02*
X0335242Y0054711D01*
X0335242Y0053713D02*
X0304342Y0053713D01*
X0304342Y0052714D02*
X0335242Y0052714D01*
X0335242Y0051716D02*
X0304342Y0051716D01*
X0304342Y0050717D02*
X0335242Y0050717D01*
X0335242Y0049719D02*
X0304342Y0049719D01*
X0304342Y0048720D02*
X0335242Y0048720D01*
X0335242Y0047722D02*
X0304342Y0047722D01*
X0304342Y0046723D02*
X0335242Y0046723D01*
X0335242Y0045725D02*
X0304342Y0045725D01*
X0304342Y0044726D02*
X0335242Y0044726D01*
X0335242Y0043728D02*
X0304342Y0043728D01*
X0304342Y0042729D02*
X0335242Y0042729D01*
X0335242Y0041731D02*
X0304342Y0041731D01*
X0304342Y0040732D02*
X0335242Y0040732D01*
X0335242Y0039734D02*
X0304342Y0039734D01*
X0304418Y0038735D02*
X0335242Y0038735D01*
X0335242Y0037737D02*
X0305992Y0037737D01*
X0306949Y0036738D02*
X0335242Y0036738D01*
X0335242Y0035740D02*
X0307363Y0035740D01*
X0307742Y0034741D02*
X0332161Y0034741D01*
X0331267Y0033743D02*
X0307742Y0033743D01*
X0307742Y0032744D02*
X0330892Y0032744D01*
X0330892Y0031746D02*
X0307356Y0031746D01*
X0298692Y0037737D02*
X0295992Y0037737D01*
X0296949Y0036738D02*
X0297735Y0036738D01*
X0300606Y0071686D02*
X0335242Y0071686D01*
X0335242Y0072684D02*
X0301605Y0072684D01*
X0302603Y0073683D02*
X0335242Y0073683D01*
X0335242Y0074682D02*
X0303602Y0074682D01*
X0304600Y0075680D02*
X0335242Y0075680D01*
X0335242Y0076679D02*
X0305599Y0076679D01*
X0306597Y0077677D02*
X0335242Y0077677D01*
X0335242Y0078676D02*
X0307596Y0078676D01*
X0308594Y0079674D02*
X0335242Y0079674D01*
X0335242Y0080673D02*
X0309593Y0080673D01*
X0310591Y0081671D02*
X0335242Y0081671D01*
X0335242Y0082670D02*
X0312863Y0082670D01*
X0313533Y0083668D02*
X0335242Y0083668D01*
X0335242Y0084667D02*
X0313742Y0084667D01*
X0313602Y0085665D02*
X0335242Y0085665D01*
X0297672Y0138586D02*
X0297012Y0138586D01*
X0296144Y0139585D02*
X0298540Y0139585D01*
X0268823Y0139585D02*
X0253809Y0139585D01*
X0254619Y0138586D02*
X0267975Y0138586D01*
X0267471Y0137588D02*
X0254819Y0137588D01*
X0254308Y0136589D02*
X0267210Y0136589D01*
X0251258Y0139585D02*
X0251192Y0139585D01*
X0248641Y0139585D02*
X0248186Y0139585D01*
X0245264Y0139585D02*
X0243662Y0139585D01*
X0244182Y0139353D02*
X0244182Y0139353D01*
X0233242Y0139585D02*
X0204144Y0139585D01*
X0205012Y0138586D02*
X0233242Y0138586D01*
X0233242Y0137588D02*
X0205426Y0137588D01*
X0205742Y0136589D02*
X0230009Y0136589D01*
X0229204Y0135591D02*
X0205742Y0135591D01*
X0205707Y0134592D02*
X0228892Y0134592D01*
X0228921Y0133594D02*
X0205294Y0133594D01*
X0202784Y0140583D02*
X0233242Y0140583D01*
X0233242Y0141582D02*
X0202342Y0141582D01*
X0202342Y0142580D02*
X0233242Y0142580D01*
X0233242Y0143579D02*
X0202342Y0143579D01*
X0202342Y0144577D02*
X0233242Y0144577D01*
X0233242Y0145576D02*
X0202342Y0145576D01*
X0202342Y0146574D02*
X0233242Y0146574D01*
X0233242Y0147573D02*
X0202342Y0147573D01*
X0202342Y0148571D02*
X0233242Y0148571D01*
X0233242Y0149570D02*
X0202342Y0149570D01*
X0202342Y0150568D02*
X0233242Y0150568D01*
X0233242Y0151567D02*
X0202342Y0151567D01*
X0202342Y0152565D02*
X0233242Y0152565D01*
X0233242Y0153564D02*
X0202342Y0153564D01*
X0202342Y0154562D02*
X0233242Y0154562D01*
X0233242Y0155561D02*
X0202342Y0155561D01*
X0202342Y0156559D02*
X0233242Y0156559D01*
X0233242Y0157558D02*
X0202342Y0157558D01*
X0202342Y0158556D02*
X0233242Y0158556D01*
X0233242Y0159555D02*
X0202342Y0159555D01*
X0202342Y0160553D02*
X0233242Y0160553D01*
X0233242Y0161552D02*
X0202342Y0161552D01*
X0202342Y0162551D02*
X0233242Y0162551D01*
X0233242Y0163549D02*
X0202342Y0163549D01*
X0202342Y0164548D02*
X0233242Y0164548D01*
X0233242Y0165546D02*
X0202342Y0165546D01*
X0202342Y0166545D02*
X0233242Y0166545D01*
X0233242Y0167543D02*
X0202342Y0167543D01*
X0201479Y0168542D02*
X0233242Y0168542D01*
X0233242Y0169540D02*
X0200480Y0169540D01*
X0199482Y0170539D02*
X0233242Y0170539D01*
X0233242Y0171537D02*
X0198483Y0171537D01*
X0197485Y0172536D02*
X0233242Y0172536D01*
X0233242Y0173534D02*
X0198454Y0173534D01*
X0199453Y0174533D02*
X0233242Y0174533D01*
X0233242Y0175531D02*
X0200451Y0175531D01*
X0201450Y0176530D02*
X0233242Y0176530D01*
X0233242Y0177528D02*
X0202448Y0177528D01*
X0203447Y0178527D02*
X0233242Y0178527D01*
X0233242Y0179525D02*
X0204445Y0179525D01*
X0205444Y0180524D02*
X0233242Y0180524D01*
X0233242Y0181522D02*
X0206442Y0181522D01*
X0207441Y0182521D02*
X0233242Y0182521D01*
X0233242Y0183519D02*
X0208439Y0183519D01*
X0210711Y0184518D02*
X0233242Y0184518D01*
X0233242Y0185516D02*
X0211470Y0185516D01*
X0211742Y0186515D02*
X0233242Y0186515D01*
X0233242Y0187513D02*
X0211665Y0187513D01*
X0211181Y0188512D02*
X0233242Y0188512D01*
X0233242Y0189510D02*
X0209756Y0189510D01*
X0202783Y0183519D02*
X0200162Y0183519D01*
X0200242Y0182521D02*
X0201784Y0182521D01*
X0200786Y0181522D02*
X0199972Y0181522D01*
X0199787Y0180524D02*
X0199217Y0180524D01*
X0198336Y0180350D02*
X0195542Y0180350D01*
X0192892Y0177700D01*
X0195467Y0180524D02*
X0184944Y0180524D01*
X0186481Y0170550D02*
X0193813Y0170550D01*
X0198342Y0166022D01*
X0198342Y0140766D01*
X0197283Y0140328D01*
X0195764Y0138809D01*
X0195342Y0137790D01*
X0194920Y0138809D01*
X0193401Y0140328D01*
X0192342Y0140766D01*
X0192342Y0164690D01*
X0186481Y0170550D01*
X0186493Y0170539D02*
X0193825Y0170539D01*
X0194823Y0169540D02*
X0187491Y0169540D01*
X0188490Y0168542D02*
X0195822Y0168542D01*
X0196820Y0167543D02*
X0189488Y0167543D01*
X0190487Y0166545D02*
X0197819Y0166545D01*
X0198342Y0165546D02*
X0191485Y0165546D01*
X0192342Y0164548D02*
X0198342Y0164548D01*
X0198342Y0163549D02*
X0192342Y0163549D01*
X0192342Y0162551D02*
X0198342Y0162551D01*
X0198342Y0161552D02*
X0192342Y0161552D01*
X0192342Y0160553D02*
X0198342Y0160553D01*
X0198342Y0159555D02*
X0192342Y0159555D01*
X0192342Y0158556D02*
X0198342Y0158556D01*
X0198342Y0157558D02*
X0192342Y0157558D01*
X0192342Y0156559D02*
X0198342Y0156559D01*
X0198342Y0155561D02*
X0192342Y0155561D01*
X0192342Y0154562D02*
X0198342Y0154562D01*
X0198342Y0153564D02*
X0192342Y0153564D01*
X0192342Y0152565D02*
X0198342Y0152565D01*
X0198342Y0151567D02*
X0192342Y0151567D01*
X0192342Y0150568D02*
X0198342Y0150568D01*
X0198342Y0149570D02*
X0192342Y0149570D01*
X0192342Y0148571D02*
X0198342Y0148571D01*
X0198342Y0147573D02*
X0192342Y0147573D01*
X0192342Y0146574D02*
X0198342Y0146574D01*
X0198342Y0145576D02*
X0192342Y0145576D01*
X0192342Y0144577D02*
X0198342Y0144577D01*
X0198342Y0143579D02*
X0192342Y0143579D01*
X0192342Y0142580D02*
X0198342Y0142580D01*
X0198342Y0141582D02*
X0192342Y0141582D01*
X0192784Y0140583D02*
X0197899Y0140583D01*
X0196540Y0139585D02*
X0194144Y0139585D01*
X0195012Y0138586D02*
X0195672Y0138586D01*
X0211602Y0085665D02*
X0233242Y0085665D01*
X0233242Y0084667D02*
X0211742Y0084667D01*
X0211533Y0083668D02*
X0233242Y0083668D01*
X0233242Y0082670D02*
X0210863Y0082670D01*
X0208591Y0081671D02*
X0233242Y0081671D01*
X0233242Y0080673D02*
X0207593Y0080673D01*
X0206594Y0079674D02*
X0233242Y0079674D01*
X0233242Y0078676D02*
X0205596Y0078676D01*
X0204597Y0077677D02*
X0233242Y0077677D01*
X0233242Y0076679D02*
X0203599Y0076679D01*
X0202600Y0075680D02*
X0233242Y0075680D01*
X0233242Y0074682D02*
X0201602Y0074682D01*
X0200603Y0073683D02*
X0233242Y0073683D01*
X0233242Y0072684D02*
X0199605Y0072684D01*
X0198606Y0071686D02*
X0233242Y0071686D01*
X0202934Y0081671D02*
X0200099Y0081671D01*
X0200242Y0080673D02*
X0201936Y0080673D01*
X0200937Y0079674D02*
X0200035Y0079674D01*
X0199939Y0078676D02*
X0199369Y0078676D01*
X0198336Y0078350D02*
X0195542Y0078350D01*
X0192892Y0075700D01*
X0195315Y0078676D02*
X0185096Y0078676D01*
X0180044Y0082670D02*
X0165023Y0082670D01*
X0165599Y0081671D02*
X0179046Y0081671D01*
X0178047Y0080673D02*
X0165742Y0080673D01*
X0165535Y0079674D02*
X0177049Y0079674D01*
X0175939Y0078676D02*
X0165042Y0078676D01*
X0165743Y0077677D02*
X0173668Y0077677D01*
X0173087Y0076679D02*
X0166742Y0076679D01*
X0167740Y0075680D02*
X0172942Y0075680D01*
X0169672Y0074682D02*
X0168739Y0074682D01*
X0162842Y0077467D02*
X0162842Y0080750D01*
X0193992Y0037737D02*
X0196692Y0037737D01*
X0195735Y0036738D02*
X0194949Y0036738D01*
X0195342Y0239790D02*
X0194920Y0240809D01*
X0193401Y0242328D01*
X0192342Y0242766D01*
X0192342Y0266690D01*
X0186481Y0272550D01*
X0193813Y0272550D01*
X0198342Y0268022D01*
X0198342Y0242766D01*
X0197283Y0242328D01*
X0195764Y0240809D01*
X0195342Y0239790D01*
X0195075Y0240434D02*
X0195609Y0240434D01*
X0196388Y0241433D02*
X0194296Y0241433D01*
X0193151Y0242431D02*
X0197533Y0242431D01*
X0198342Y0243430D02*
X0192342Y0243430D01*
X0192342Y0244428D02*
X0198342Y0244428D01*
X0198342Y0245427D02*
X0192342Y0245427D01*
X0192342Y0246425D02*
X0198342Y0246425D01*
X0198342Y0247424D02*
X0192342Y0247424D01*
X0192342Y0248422D02*
X0198342Y0248422D01*
X0198342Y0249421D02*
X0192342Y0249421D01*
X0192342Y0250420D02*
X0198342Y0250420D01*
X0198342Y0251418D02*
X0192342Y0251418D01*
X0192342Y0252417D02*
X0198342Y0252417D01*
X0198342Y0253415D02*
X0192342Y0253415D01*
X0192342Y0254414D02*
X0198342Y0254414D01*
X0198342Y0255412D02*
X0192342Y0255412D01*
X0192342Y0256411D02*
X0198342Y0256411D01*
X0198342Y0257409D02*
X0192342Y0257409D01*
X0192342Y0258408D02*
X0198342Y0258408D01*
X0198342Y0259406D02*
X0192342Y0259406D01*
X0192342Y0260405D02*
X0198342Y0260405D01*
X0198342Y0261403D02*
X0192342Y0261403D01*
X0192342Y0262402D02*
X0198342Y0262402D01*
X0198342Y0263400D02*
X0192342Y0263400D01*
X0192342Y0264399D02*
X0198342Y0264399D01*
X0198342Y0265397D02*
X0192342Y0265397D01*
X0192342Y0266396D02*
X0198342Y0266396D01*
X0198342Y0267394D02*
X0191637Y0267394D01*
X0190639Y0268393D02*
X0197971Y0268393D01*
X0196972Y0269391D02*
X0189640Y0269391D01*
X0188642Y0270390D02*
X0195974Y0270390D01*
X0194975Y0271388D02*
X0187643Y0271388D01*
X0186645Y0272387D02*
X0193977Y0272387D01*
X0185582Y0264399D02*
X0137442Y0264399D01*
X0137442Y0265397D02*
X0183593Y0265397D01*
X0186142Y0263400D02*
X0137442Y0263400D01*
X0137442Y0262402D02*
X0186142Y0262402D01*
X0186142Y0261403D02*
X0137442Y0261403D01*
X0137442Y0260405D02*
X0186142Y0260405D01*
X0186142Y0259406D02*
X0137442Y0259406D01*
X0137442Y0258408D02*
X0186142Y0258408D01*
X0186142Y0257409D02*
X0137442Y0257409D01*
X0137442Y0256411D02*
X0186142Y0256411D01*
X0186142Y0255412D02*
X0137442Y0255412D01*
X0137442Y0254414D02*
X0186142Y0254414D01*
X0186142Y0253415D02*
X0137442Y0253415D01*
X0137442Y0252417D02*
X0186142Y0252417D01*
X0186142Y0251418D02*
X0137442Y0251418D01*
X0137442Y0250420D02*
X0186142Y0250420D01*
X0186142Y0249421D02*
X0137442Y0249421D01*
X0137442Y0248422D02*
X0186142Y0248422D01*
X0186142Y0247424D02*
X0137442Y0247424D01*
X0137442Y0246425D02*
X0185906Y0246425D01*
X0184908Y0245427D02*
X0137442Y0245427D01*
X0137442Y0244428D02*
X0183909Y0244428D01*
X0182910Y0243430D02*
X0137442Y0243430D01*
X0251676Y0314324D02*
X0323008Y0314324D01*
X0321569Y0315323D02*
X0253114Y0315323D01*
X0254304Y0316321D02*
X0320379Y0316321D01*
X0319623Y0317320D02*
X0255061Y0317320D01*
X0254654Y0316615D02*
X0254654Y0316615D01*
X0254654Y0316615D01*
X0255637Y0318318D02*
X0319046Y0318318D01*
X0318470Y0319317D02*
X0256214Y0319317D01*
X0256457Y0320315D02*
X0318226Y0320315D01*
X0318372Y0319485D02*
X0318372Y0319485D01*
X0318050Y0321314D02*
X0256634Y0321314D01*
X0256810Y0322312D02*
X0317874Y0322312D01*
X0317797Y0322750D02*
X0317797Y0322750D01*
X0317896Y0323311D02*
X0256788Y0323311D01*
X0256887Y0322750D02*
X0256887Y0322750D01*
X0256612Y0324309D02*
X0318072Y0324309D01*
X0318248Y0325308D02*
X0256436Y0325308D01*
X0256311Y0326015D02*
X0256311Y0326015D01*
X0256143Y0326306D02*
X0318541Y0326306D01*
X0319117Y0327305D02*
X0255566Y0327305D01*
X0254990Y0328303D02*
X0319694Y0328303D01*
X0320030Y0328885D02*
X0320030Y0328885D01*
X0320030Y0328885D01*
X0320526Y0329302D02*
X0254157Y0329302D01*
X0254654Y0328885D02*
X0254654Y0328885D01*
X0252967Y0330300D02*
X0321716Y0330300D01*
X0335061Y0317320D02*
X0335242Y0317320D01*
X0334654Y0316615D02*
X0334654Y0316615D01*
X0334654Y0316615D01*
X0334304Y0316321D02*
X0335242Y0316321D01*
X0335242Y0315323D02*
X0333114Y0315323D01*
X0331676Y0314324D02*
X0335242Y0314324D01*
X0295813Y0272550D02*
X0288481Y0272550D01*
X0294342Y0266690D01*
X0294342Y0242766D01*
X0295401Y0242328D01*
X0296920Y0240809D01*
X0297342Y0239790D01*
X0297764Y0240809D01*
X0299283Y0242328D01*
X0300342Y0242766D01*
X0300342Y0268022D01*
X0295813Y0272550D01*
X0295977Y0272387D02*
X0288645Y0272387D01*
X0289643Y0271388D02*
X0296975Y0271388D01*
X0297974Y0270390D02*
X0290642Y0270390D01*
X0291640Y0269391D02*
X0298972Y0269391D01*
X0299971Y0268393D02*
X0292639Y0268393D01*
X0293637Y0267394D02*
X0300342Y0267394D01*
X0300342Y0266396D02*
X0294342Y0266396D01*
X0294342Y0265397D02*
X0300342Y0265397D01*
X0300342Y0264399D02*
X0294342Y0264399D01*
X0294342Y0263400D02*
X0300342Y0263400D01*
X0300342Y0262402D02*
X0294342Y0262402D01*
X0294342Y0261403D02*
X0300342Y0261403D01*
X0300342Y0260405D02*
X0294342Y0260405D01*
X0294342Y0259406D02*
X0300342Y0259406D01*
X0300342Y0258408D02*
X0294342Y0258408D01*
X0294342Y0257409D02*
X0300342Y0257409D01*
X0300342Y0256411D02*
X0294342Y0256411D01*
X0294342Y0255412D02*
X0300342Y0255412D01*
X0300342Y0254414D02*
X0294342Y0254414D01*
X0294342Y0253415D02*
X0300342Y0253415D01*
X0300342Y0252417D02*
X0294342Y0252417D01*
X0294342Y0251418D02*
X0300342Y0251418D01*
X0300342Y0250420D02*
X0294342Y0250420D01*
X0294342Y0249421D02*
X0300342Y0249421D01*
X0300342Y0248422D02*
X0294342Y0248422D01*
X0294342Y0247424D02*
X0300342Y0247424D01*
X0300342Y0246425D02*
X0294342Y0246425D01*
X0294342Y0245427D02*
X0300342Y0245427D01*
X0300342Y0244428D02*
X0294342Y0244428D01*
X0294342Y0243430D02*
X0300342Y0243430D01*
X0299533Y0242431D02*
X0295151Y0242431D01*
X0296296Y0241433D02*
X0298388Y0241433D01*
X0297609Y0240434D02*
X0297075Y0240434D01*
X0290342Y0245750D02*
X0290342Y0264750D01*
X0287342Y0267750D01*
X0278559Y0267750D01*
X0264842Y0281467D01*
X0264842Y0284750D01*
X0266108Y0287364D02*
X0282739Y0287364D01*
X0281741Y0286366D02*
X0267311Y0286366D01*
X0267725Y0285367D02*
X0280742Y0285367D01*
X0279744Y0284369D02*
X0267742Y0284369D01*
X0267409Y0283370D02*
X0278634Y0283370D01*
X0276594Y0282372D02*
X0267048Y0282372D01*
X0268047Y0281373D02*
X0275375Y0281373D01*
X0274962Y0280375D02*
X0269045Y0280375D01*
X0270044Y0279376D02*
X0272604Y0279376D01*
X0271377Y0278378D02*
X0271042Y0278378D01*
X0290342Y0245750D02*
X0282342Y0237750D01*
D15*
X0292342Y0237750D02*
X0292342Y0265861D01*
X0286355Y0271849D01*
X0276440Y0271849D01*
X0273842Y0274447D01*
X0273842Y0276750D01*
X0278342Y0276750D01*
X0286342Y0284750D01*
X0299342Y0284750D01*
X0296642Y0274550D02*
X0302342Y0268850D01*
X0302342Y0237750D01*
X0285842Y0207750D02*
X0285842Y0185639D01*
X0279753Y0179550D01*
X0279642Y0179550D01*
X0277842Y0177750D01*
X0278342Y0174750D02*
X0273842Y0174750D01*
X0273842Y0172447D01*
X0276440Y0169849D01*
X0286355Y0169849D01*
X0292342Y0163861D01*
X0292342Y0135750D01*
X0302342Y0135750D02*
X0302342Y0166850D01*
X0296642Y0172550D01*
X0278342Y0172550D01*
X0278342Y0174750D02*
X0286342Y0182750D01*
X0299342Y0182750D01*
X0296642Y0172550D02*
X0310842Y0186750D01*
X0285842Y0105750D02*
X0285842Y0083639D01*
X0279753Y0077550D01*
X0279642Y0077550D01*
X0277842Y0075750D01*
X0278342Y0072750D02*
X0273842Y0072750D01*
X0273842Y0070447D01*
X0276440Y0067849D01*
X0286355Y0067849D01*
X0292342Y0061861D01*
X0292342Y0033750D01*
X0302342Y0033750D02*
X0302342Y0064850D01*
X0296642Y0070550D01*
X0278342Y0070550D01*
X0278342Y0072750D02*
X0286342Y0080750D01*
X0299342Y0080750D01*
X0296642Y0070550D02*
X0310842Y0084750D01*
X0208842Y0084750D02*
X0194642Y0070550D01*
X0200342Y0064850D01*
X0200342Y0033750D01*
X0190342Y0033750D02*
X0190342Y0061861D01*
X0184355Y0067849D01*
X0174440Y0067849D01*
X0171842Y0070447D01*
X0171842Y0072750D01*
X0176342Y0072750D01*
X0184342Y0080750D01*
X0197342Y0080750D01*
X0194642Y0070550D02*
X0176342Y0070550D01*
X0175842Y0075750D02*
X0177642Y0077550D01*
X0177753Y0077550D01*
X0183842Y0083639D01*
X0183842Y0105750D01*
X0190342Y0135750D02*
X0190342Y0163861D01*
X0184355Y0169849D01*
X0174440Y0169849D01*
X0171842Y0172447D01*
X0171842Y0174750D01*
X0176342Y0174750D01*
X0184342Y0182750D01*
X0197342Y0182750D01*
X0194642Y0172550D02*
X0200342Y0166850D01*
X0200342Y0135750D01*
X0194642Y0172550D02*
X0176342Y0172550D01*
X0175842Y0177750D02*
X0177642Y0179550D01*
X0177753Y0179550D01*
X0183842Y0185639D01*
X0183842Y0207750D01*
X0208842Y0186750D02*
X0194642Y0172550D01*
X0190342Y0237750D02*
X0190342Y0265861D01*
X0184355Y0271849D01*
X0174440Y0271849D01*
X0171842Y0274447D01*
X0171842Y0276750D01*
X0176342Y0276750D01*
X0184342Y0284750D01*
X0197342Y0284750D01*
X0194642Y0274550D02*
X0200342Y0268850D01*
X0200342Y0237750D01*
X0194642Y0274550D02*
X0176342Y0274550D01*
X0175842Y0279750D02*
X0177642Y0281550D01*
X0177753Y0281550D01*
X0183842Y0287639D01*
X0183842Y0309750D01*
X0208842Y0288750D02*
X0194642Y0274550D01*
X0277842Y0279750D02*
X0279642Y0281550D01*
X0279753Y0281550D01*
X0285842Y0287639D01*
X0285842Y0309750D01*
X0310842Y0288750D02*
X0296642Y0274550D01*
X0278342Y0274550D01*
X0106842Y0288750D02*
X0092642Y0274550D01*
X0098342Y0268850D01*
X0098342Y0237750D01*
X0088342Y0237750D02*
X0088342Y0265861D01*
X0082355Y0271849D01*
X0072440Y0271849D01*
X0069842Y0274447D01*
X0069842Y0276750D01*
X0074342Y0276750D01*
X0082342Y0284750D01*
X0095342Y0284750D01*
X0092642Y0274550D02*
X0074342Y0274550D01*
X0073842Y0279750D02*
X0075642Y0281550D01*
X0075753Y0281550D01*
X0081842Y0287639D01*
X0081842Y0309750D01*
X0081842Y0207750D02*
X0081842Y0185639D01*
X0075753Y0179550D01*
X0075642Y0179550D01*
X0073842Y0177750D01*
X0074342Y0174750D02*
X0069842Y0174750D01*
X0069842Y0172447D01*
X0072440Y0169849D01*
X0082355Y0169849D01*
X0088342Y0163861D01*
X0088342Y0135750D01*
X0098342Y0135750D02*
X0098342Y0166850D01*
X0092642Y0172550D01*
X0074342Y0172550D01*
X0074342Y0174750D02*
X0082342Y0182750D01*
X0095342Y0182750D01*
X0092642Y0172550D02*
X0106842Y0186750D01*
X0081842Y0105750D02*
X0081842Y0083639D01*
X0075753Y0077550D01*
X0075642Y0077550D01*
X0073842Y0075750D01*
X0074342Y0072750D02*
X0069842Y0072750D01*
X0069842Y0070447D01*
X0072440Y0067849D01*
X0082355Y0067849D01*
X0088342Y0061861D01*
X0088342Y0033750D01*
X0098342Y0033750D02*
X0098342Y0064850D01*
X0092642Y0070550D01*
X0074342Y0070550D01*
X0074342Y0072750D02*
X0082342Y0080750D01*
X0095342Y0080750D01*
X0092642Y0070550D02*
X0106842Y0084750D01*
M02*
