G75*
%MOIN*%
%OFA0B0*%
%FSLAX25Y25*%
%IPPOS*%
%LPD*%
%AMOC8*
5,1,8,0,0,1.08239X$1,22.5*
%
%ADD10C,0.13800*%
%ADD11C,0.08200*%
%ADD12C,0.03300*%
D10*
X0043342Y0118750D03*
X0123342Y0118750D03*
X0145342Y0118750D03*
X0225342Y0118750D03*
X0247342Y0118750D03*
X0327342Y0118750D03*
X0327342Y0220750D03*
X0247342Y0220750D03*
X0225342Y0220750D03*
X0145342Y0220750D03*
X0123342Y0220750D03*
X0043342Y0220750D03*
X0043342Y0322750D03*
X0123342Y0322750D03*
X0145342Y0322750D03*
X0225342Y0322750D03*
X0247342Y0322750D03*
X0327342Y0322750D03*
D11*
X0068342Y0033750D03*
X0078342Y0033750D03*
X0088342Y0033750D03*
X0098342Y0033750D03*
X0170342Y0033750D03*
X0180342Y0033750D03*
X0190342Y0033750D03*
X0200342Y0033750D03*
X0272342Y0033750D03*
X0282342Y0033750D03*
X0292342Y0033750D03*
X0302342Y0033750D03*
X0302342Y0135750D03*
X0292342Y0135750D03*
X0282342Y0135750D03*
X0272342Y0135750D03*
X0200342Y0135750D03*
X0190342Y0135750D03*
X0180342Y0135750D03*
X0170342Y0135750D03*
X0098342Y0135750D03*
X0088342Y0135750D03*
X0078342Y0135750D03*
X0068342Y0135750D03*
X0068342Y0237750D03*
X0078342Y0237750D03*
X0088342Y0237750D03*
X0098342Y0237750D03*
X0170342Y0237750D03*
X0180342Y0237750D03*
X0190342Y0237750D03*
X0200342Y0237750D03*
X0272342Y0237750D03*
X0282342Y0237750D03*
X0292342Y0237750D03*
X0302342Y0237750D03*
D12*
X0333842Y0236250D03*
X0240342Y0227750D03*
X0231842Y0236250D03*
X0138342Y0227750D03*
X0129842Y0236250D03*
X0036342Y0227750D03*
X0129842Y0134250D03*
X0138342Y0125750D03*
X0231842Y0134250D03*
X0240342Y0125750D03*
X0333842Y0134250D03*
X0333842Y0032250D03*
X0231842Y0032250D03*
X0129842Y0032250D03*
X0036342Y0125750D03*
X0036342Y0329750D03*
X0138342Y0329750D03*
X0240342Y0329750D03*
M02*
