%
M48
M72
T01C0.0120
T02C0.0400
T03C0.1300
%
T01
X6684Y6525
X7434Y7055
X6984Y7275
X7384Y7575
X7484Y7975
X6734Y8475
X6084Y8075
X5934Y8475
X8184Y10575
X9084Y8875
X9834Y8375
X9534Y8075
X9089Y7570
X9934Y7275
X10734Y7275
X10684Y8475
X11334Y9375
X8334Y6375
X9334Y5175
X16284Y8075
X16134Y8475
X16934Y8475
X17684Y7975
X17584Y7575
X17184Y7275
X17634Y7055
X16884Y6525
X18534Y6375
X19289Y7570
X19734Y8075
X20034Y8375
X20884Y8475
X21534Y9375
X20934Y7275
X20134Y7275
X19284Y8875
X18384Y10575
X19534Y15375
X18534Y16575
X17634Y17255
X17184Y17475
X17584Y17775
X17684Y18175
X16934Y18675
X16284Y18275
X16134Y18675
X16884Y16725
X19289Y17770
X19734Y18275
X20034Y18575
X20884Y18675
X21534Y19575
X20934Y17475
X20134Y17475
X19284Y19075
X18384Y20775
X19534Y25575
X18534Y26775
X17634Y27455
X17184Y27675
X17584Y27975
X17684Y28375
X16934Y28875
X16284Y28475
X16134Y28875
X16884Y26925
X19289Y27970
X19734Y28475
X20034Y28775
X20884Y28875
X21534Y29775
X19284Y29275
X20134Y27675
X20934Y27675
X18384Y30975
X11334Y29775
X10684Y28875
X9834Y28775
X9534Y28475
X9089Y27970
X9934Y27675
X10734Y27675
X9084Y29275
X7484Y28375
X7384Y27975
X6984Y27675
X7434Y27455
X6684Y26925
X8334Y26775
X9334Y25575
X6734Y28875
X6084Y28475
X5934Y28875
X8184Y30975
X8184Y20775
X9084Y19075
X9834Y18575
X9534Y18275
X9089Y17770
X9934Y17475
X10734Y17475
X10684Y18675
X11334Y19575
X8334Y16575
X7434Y17255
X6984Y17475
X7384Y17775
X7484Y18175
X6734Y18675
X6084Y18275
X5934Y18675
X6684Y16725
X9334Y15375
X19534Y5175
X26334Y8475
X26484Y8075
X27134Y8475
X27884Y7975
X27784Y7575
X27384Y7275
X27834Y7055
X27084Y6525
X28734Y6375
X29489Y7570
X29934Y8075
X30234Y8375
X31084Y8475
X31734Y9375
X31134Y7275
X30334Y7275
X29484Y8875
X28584Y10575
X29734Y15375
X28734Y16575
X27834Y17255
X27384Y17475
X27784Y17775
X27884Y18175
X27134Y18675
X26484Y18275
X26334Y18675
X27084Y16725
X29489Y17770
X29934Y18275
X30234Y18575
X31084Y18675
X31734Y19575
X31134Y17475
X30334Y17475
X29484Y19075
X28584Y20775
X29734Y25575
X28734Y26775
X27834Y27455
X27384Y27675
X27784Y27975
X27884Y28375
X27134Y28875
X26484Y28475
X26334Y28875
X27084Y26925
X29489Y27970
X29934Y28475
X30234Y28775
X31084Y28875
X31734Y29775
X31134Y27675
X30334Y27675
X29484Y29275
X28584Y30975
X29734Y5175
T02
X6834Y3375
X7834Y3375
X8834Y3375
X9834Y3375
X17034Y3375
X18034Y3375
X19034Y3375
X20034Y3375
X27234Y3375
X28234Y3375
X29234Y3375
X30234Y3375
X30234Y13575
X29234Y13575
X28234Y13575
X27234Y13575
X20034Y13575
X19034Y13575
X18034Y13575
X17034Y13575
X9834Y13575
X8834Y13575
X7834Y13575
X6834Y13575
X6834Y23775
X7834Y23775
X8834Y23775
X9834Y23775
X17034Y23775
X18034Y23775
X19034Y23775
X20034Y23775
X27234Y23775
X28234Y23775
X29234Y23775
X30234Y23775
T03
X32734Y22075
X24734Y22075
X22534Y22075
X14534Y22075
X12334Y22075
X4334Y22075
X4334Y32275
X12334Y32275
X14534Y32275
X22534Y32275
X24734Y32275
X32734Y32275
X32734Y11875
X24734Y11875
X22534Y11875
X14534Y11875
X12334Y11875
X4334Y11875
M30
