G75*
%MOIN*%
%OFA0B0*%
%FSLAX25Y25*%
%IPPOS*%
%LPD*%
%AMOC8*
5,1,8,0,0,1.08239X$1,22.5*
%
%ADD10R,0.07874X0.04724*%
%ADD11R,0.05315X0.02362*%
%ADD12R,0.04331X0.03937*%
%ADD13C,0.01181*%
%ADD14R,0.02165X0.01575*%
%ADD15R,0.02362X0.03346*%
%ADD16R,0.02165X0.04724*%
%ADD17R,0.03543X0.03150*%
%ADD18R,0.03937X0.04331*%
D10*
X0038873Y0067726D03*
X0038873Y0089774D03*
X0038873Y0169726D03*
X0038873Y0191774D03*
X0038873Y0271726D03*
X0038873Y0293774D03*
X0127810Y0293774D03*
X0140873Y0293774D03*
X0140873Y0271726D03*
X0127810Y0271726D03*
X0127810Y0191774D03*
X0140873Y0191774D03*
X0140873Y0169726D03*
X0127810Y0169726D03*
X0127810Y0089774D03*
X0140873Y0089774D03*
X0140873Y0067726D03*
X0127810Y0067726D03*
X0229810Y0067726D03*
X0242873Y0067726D03*
X0242873Y0089774D03*
X0229810Y0089774D03*
X0229810Y0169726D03*
X0242873Y0169726D03*
X0242873Y0191774D03*
X0229810Y0191774D03*
X0229810Y0271726D03*
X0242873Y0271726D03*
X0242873Y0293774D03*
X0229810Y0293774D03*
X0331810Y0293774D03*
X0331810Y0271726D03*
X0331810Y0191774D03*
X0331810Y0169726D03*
X0331810Y0089774D03*
X0331810Y0067726D03*
D11*
X0317342Y0072844D03*
X0317342Y0076781D03*
X0317342Y0080719D03*
X0317342Y0084656D03*
X0257342Y0084656D03*
X0257342Y0080719D03*
X0257342Y0076781D03*
X0257342Y0072844D03*
X0215342Y0072844D03*
X0215342Y0076781D03*
X0215342Y0080719D03*
X0215342Y0084656D03*
X0155342Y0084656D03*
X0155342Y0080719D03*
X0155342Y0076781D03*
X0155342Y0072844D03*
X0113342Y0072844D03*
X0113342Y0076781D03*
X0113342Y0080719D03*
X0113342Y0084656D03*
X0053342Y0084656D03*
X0053342Y0080719D03*
X0053342Y0076781D03*
X0053342Y0072844D03*
X0053342Y0174844D03*
X0053342Y0178781D03*
X0053342Y0182719D03*
X0053342Y0186656D03*
X0113342Y0186656D03*
X0113342Y0182719D03*
X0113342Y0178781D03*
X0113342Y0174844D03*
X0155342Y0174844D03*
X0155342Y0178781D03*
X0155342Y0182719D03*
X0155342Y0186656D03*
X0215342Y0186656D03*
X0215342Y0182719D03*
X0215342Y0178781D03*
X0215342Y0174844D03*
X0257342Y0174844D03*
X0257342Y0178781D03*
X0257342Y0182719D03*
X0257342Y0186656D03*
X0317342Y0186656D03*
X0317342Y0182719D03*
X0317342Y0178781D03*
X0317342Y0174844D03*
X0317342Y0276844D03*
X0317342Y0280781D03*
X0317342Y0284719D03*
X0317342Y0288656D03*
X0257342Y0288656D03*
X0257342Y0284719D03*
X0257342Y0280781D03*
X0257342Y0276844D03*
X0215342Y0276844D03*
X0215342Y0280781D03*
X0215342Y0284719D03*
X0215342Y0288656D03*
X0155342Y0288656D03*
X0155342Y0284719D03*
X0155342Y0280781D03*
X0155342Y0276844D03*
X0113342Y0276844D03*
X0113342Y0280781D03*
X0113342Y0284719D03*
X0113342Y0288656D03*
X0053342Y0288656D03*
X0053342Y0284719D03*
X0053342Y0280781D03*
X0053342Y0276844D03*
D12*
X0042495Y0047250D03*
X0049188Y0047250D03*
X0079995Y0088750D03*
X0086688Y0088750D03*
X0144495Y0047250D03*
X0151188Y0047250D03*
X0181995Y0088750D03*
X0188688Y0088750D03*
X0246495Y0047250D03*
X0253188Y0047250D03*
X0283995Y0088750D03*
X0290688Y0088750D03*
X0253188Y0149250D03*
X0246495Y0149250D03*
X0283995Y0190750D03*
X0290688Y0190750D03*
X0253188Y0251250D03*
X0246495Y0251250D03*
X0283995Y0292750D03*
X0290688Y0292750D03*
X0188688Y0292750D03*
X0181995Y0292750D03*
X0151188Y0251250D03*
X0144495Y0251250D03*
X0086688Y0292750D03*
X0079995Y0292750D03*
X0049188Y0251250D03*
X0042495Y0251250D03*
X0079995Y0190750D03*
X0086688Y0190750D03*
X0049188Y0149250D03*
X0042495Y0149250D03*
X0144495Y0149250D03*
X0151188Y0149250D03*
X0181995Y0190750D03*
X0188688Y0190750D03*
D13*
X0149917Y0156128D02*
X0149917Y0153372D01*
X0149917Y0156128D02*
X0152673Y0156128D01*
X0152673Y0153372D01*
X0149917Y0153372D01*
X0149917Y0154494D02*
X0152673Y0154494D01*
X0152673Y0155616D02*
X0149917Y0155616D01*
X0143011Y0156128D02*
X0143011Y0153372D01*
X0143011Y0156128D02*
X0145767Y0156128D01*
X0145767Y0153372D01*
X0143011Y0153372D01*
X0143011Y0154494D02*
X0145767Y0154494D01*
X0145767Y0155616D02*
X0143011Y0155616D01*
X0047917Y0156128D02*
X0047917Y0153372D01*
X0047917Y0156128D02*
X0050673Y0156128D01*
X0050673Y0153372D01*
X0047917Y0153372D01*
X0047917Y0154494D02*
X0050673Y0154494D01*
X0050673Y0155616D02*
X0047917Y0155616D01*
X0041011Y0156128D02*
X0041011Y0153372D01*
X0041011Y0156128D02*
X0043767Y0156128D01*
X0043767Y0153372D01*
X0041011Y0153372D01*
X0041011Y0154494D02*
X0043767Y0154494D01*
X0043767Y0155616D02*
X0041011Y0155616D01*
X0041011Y0255372D02*
X0041011Y0258128D01*
X0043767Y0258128D01*
X0043767Y0255372D01*
X0041011Y0255372D01*
X0041011Y0256494D02*
X0043767Y0256494D01*
X0043767Y0257616D02*
X0041011Y0257616D01*
X0047917Y0258128D02*
X0047917Y0255372D01*
X0047917Y0258128D02*
X0050673Y0258128D01*
X0050673Y0255372D01*
X0047917Y0255372D01*
X0047917Y0256494D02*
X0050673Y0256494D01*
X0050673Y0257616D02*
X0047917Y0257616D01*
X0143011Y0258128D02*
X0143011Y0255372D01*
X0143011Y0258128D02*
X0145767Y0258128D01*
X0145767Y0255372D01*
X0143011Y0255372D01*
X0143011Y0256494D02*
X0145767Y0256494D01*
X0145767Y0257616D02*
X0143011Y0257616D01*
X0149917Y0258128D02*
X0149917Y0255372D01*
X0149917Y0258128D02*
X0152673Y0258128D01*
X0152673Y0255372D01*
X0149917Y0255372D01*
X0149917Y0256494D02*
X0152673Y0256494D01*
X0152673Y0257616D02*
X0149917Y0257616D01*
X0245011Y0258128D02*
X0245011Y0255372D01*
X0245011Y0258128D02*
X0247767Y0258128D01*
X0247767Y0255372D01*
X0245011Y0255372D01*
X0245011Y0256494D02*
X0247767Y0256494D01*
X0247767Y0257616D02*
X0245011Y0257616D01*
X0251917Y0258128D02*
X0251917Y0255372D01*
X0251917Y0258128D02*
X0254673Y0258128D01*
X0254673Y0255372D01*
X0251917Y0255372D01*
X0251917Y0256494D02*
X0254673Y0256494D01*
X0254673Y0257616D02*
X0251917Y0257616D01*
X0251917Y0156128D02*
X0251917Y0153372D01*
X0251917Y0156128D02*
X0254673Y0156128D01*
X0254673Y0153372D01*
X0251917Y0153372D01*
X0251917Y0154494D02*
X0254673Y0154494D01*
X0254673Y0155616D02*
X0251917Y0155616D01*
X0245011Y0156128D02*
X0245011Y0153372D01*
X0245011Y0156128D02*
X0247767Y0156128D01*
X0247767Y0153372D01*
X0245011Y0153372D01*
X0245011Y0154494D02*
X0247767Y0154494D01*
X0247767Y0155616D02*
X0245011Y0155616D01*
X0245011Y0054128D02*
X0245011Y0051372D01*
X0245011Y0054128D02*
X0247767Y0054128D01*
X0247767Y0051372D01*
X0245011Y0051372D01*
X0245011Y0052494D02*
X0247767Y0052494D01*
X0247767Y0053616D02*
X0245011Y0053616D01*
X0251917Y0054128D02*
X0251917Y0051372D01*
X0251917Y0054128D02*
X0254673Y0054128D01*
X0254673Y0051372D01*
X0251917Y0051372D01*
X0251917Y0052494D02*
X0254673Y0052494D01*
X0254673Y0053616D02*
X0251917Y0053616D01*
X0149917Y0054128D02*
X0149917Y0051372D01*
X0149917Y0054128D02*
X0152673Y0054128D01*
X0152673Y0051372D01*
X0149917Y0051372D01*
X0149917Y0052494D02*
X0152673Y0052494D01*
X0152673Y0053616D02*
X0149917Y0053616D01*
X0143011Y0054128D02*
X0143011Y0051372D01*
X0143011Y0054128D02*
X0145767Y0054128D01*
X0145767Y0051372D01*
X0143011Y0051372D01*
X0143011Y0052494D02*
X0145767Y0052494D01*
X0145767Y0053616D02*
X0143011Y0053616D01*
X0047917Y0054128D02*
X0047917Y0051372D01*
X0047917Y0054128D02*
X0050673Y0054128D01*
X0050673Y0051372D01*
X0047917Y0051372D01*
X0047917Y0052494D02*
X0050673Y0052494D01*
X0050673Y0053616D02*
X0047917Y0053616D01*
X0041011Y0054128D02*
X0041011Y0051372D01*
X0041011Y0054128D02*
X0043767Y0054128D01*
X0043767Y0051372D01*
X0041011Y0051372D01*
X0041011Y0052494D02*
X0043767Y0052494D01*
X0043767Y0053616D02*
X0041011Y0053616D01*
D14*
X0078421Y0075600D03*
X0078421Y0078750D03*
X0078421Y0081900D03*
X0088263Y0081900D03*
X0088263Y0078750D03*
X0088263Y0075600D03*
X0180421Y0075600D03*
X0180421Y0078750D03*
X0180421Y0081900D03*
X0190263Y0081900D03*
X0190263Y0078750D03*
X0190263Y0075600D03*
X0282421Y0075600D03*
X0282421Y0078750D03*
X0282421Y0081900D03*
X0292263Y0081900D03*
X0292263Y0078750D03*
X0292263Y0075600D03*
X0292263Y0177600D03*
X0292263Y0180750D03*
X0292263Y0183900D03*
X0282421Y0183900D03*
X0282421Y0180750D03*
X0282421Y0177600D03*
X0190263Y0177600D03*
X0190263Y0180750D03*
X0190263Y0183900D03*
X0180421Y0183900D03*
X0180421Y0180750D03*
X0180421Y0177600D03*
X0088263Y0177600D03*
X0088263Y0180750D03*
X0088263Y0183900D03*
X0078421Y0183900D03*
X0078421Y0180750D03*
X0078421Y0177600D03*
X0078421Y0279600D03*
X0078421Y0282750D03*
X0078421Y0285900D03*
X0088263Y0285900D03*
X0088263Y0282750D03*
X0088263Y0279600D03*
X0180421Y0279600D03*
X0180421Y0282750D03*
X0180421Y0285900D03*
X0190263Y0285900D03*
X0190263Y0282750D03*
X0190263Y0279600D03*
X0282421Y0279600D03*
X0282421Y0282750D03*
X0282421Y0285900D03*
X0292263Y0285900D03*
X0292263Y0282750D03*
X0292263Y0279600D03*
D15*
X0287342Y0282750D03*
X0185342Y0282750D03*
X0083342Y0282750D03*
X0083342Y0180750D03*
X0185342Y0180750D03*
X0287342Y0180750D03*
X0287342Y0078750D03*
X0185342Y0078750D03*
X0083342Y0078750D03*
D16*
X0087082Y0068869D03*
X0079602Y0068869D03*
X0079602Y0058631D03*
X0083342Y0058631D03*
X0087082Y0058631D03*
X0181602Y0058631D03*
X0185342Y0058631D03*
X0189082Y0058631D03*
X0189082Y0068869D03*
X0181602Y0068869D03*
X0181602Y0160631D03*
X0185342Y0160631D03*
X0189082Y0160631D03*
X0189082Y0170869D03*
X0181602Y0170869D03*
X0087082Y0170869D03*
X0079602Y0170869D03*
X0079602Y0160631D03*
X0083342Y0160631D03*
X0087082Y0160631D03*
X0087082Y0262631D03*
X0083342Y0262631D03*
X0079602Y0262631D03*
X0079602Y0272869D03*
X0087082Y0272869D03*
X0181602Y0272869D03*
X0189082Y0272869D03*
X0189082Y0262631D03*
X0185342Y0262631D03*
X0181602Y0262631D03*
X0283602Y0262631D03*
X0287342Y0262631D03*
X0291082Y0262631D03*
X0291082Y0272869D03*
X0283602Y0272869D03*
X0283602Y0170869D03*
X0291082Y0170869D03*
X0291082Y0160631D03*
X0287342Y0160631D03*
X0283602Y0160631D03*
X0283602Y0068869D03*
X0291082Y0068869D03*
X0291082Y0058631D03*
X0287342Y0058631D03*
X0283602Y0058631D03*
D17*
X0276279Y0095010D03*
X0276279Y0102490D03*
X0268011Y0098750D03*
X0298405Y0095010D03*
X0298405Y0102490D03*
X0306673Y0098750D03*
X0204673Y0098750D03*
X0196405Y0095010D03*
X0196405Y0102490D03*
X0174279Y0102490D03*
X0174279Y0095010D03*
X0166011Y0098750D03*
X0102673Y0098750D03*
X0094405Y0095010D03*
X0094405Y0102490D03*
X0072279Y0102490D03*
X0072279Y0095010D03*
X0064011Y0098750D03*
X0072279Y0197010D03*
X0072279Y0204490D03*
X0064011Y0200750D03*
X0094405Y0197010D03*
X0094405Y0204490D03*
X0102673Y0200750D03*
X0166011Y0200750D03*
X0174279Y0197010D03*
X0174279Y0204490D03*
X0196405Y0204490D03*
X0196405Y0197010D03*
X0204673Y0200750D03*
X0268011Y0200750D03*
X0276279Y0197010D03*
X0276279Y0204490D03*
X0298405Y0204490D03*
X0298405Y0197010D03*
X0306673Y0200750D03*
X0298405Y0299010D03*
X0298405Y0306490D03*
X0306673Y0302750D03*
X0276279Y0299010D03*
X0276279Y0306490D03*
X0268011Y0302750D03*
X0204673Y0302750D03*
X0196405Y0299010D03*
X0196405Y0306490D03*
X0174279Y0306490D03*
X0174279Y0299010D03*
X0166011Y0302750D03*
X0102673Y0302750D03*
X0094405Y0299010D03*
X0094405Y0306490D03*
X0072279Y0306490D03*
X0072279Y0299010D03*
X0064011Y0302750D03*
D18*
X0058342Y0299404D03*
X0058342Y0306096D03*
X0078342Y0306096D03*
X0078342Y0299404D03*
X0088342Y0299404D03*
X0088342Y0306096D03*
X0108342Y0306096D03*
X0108342Y0299404D03*
X0093342Y0269096D03*
X0093342Y0262404D03*
X0073342Y0262404D03*
X0073342Y0269096D03*
X0078342Y0204096D03*
X0078342Y0197404D03*
X0088342Y0197404D03*
X0088342Y0204096D03*
X0108342Y0204096D03*
X0108342Y0197404D03*
X0093342Y0167096D03*
X0093342Y0160404D03*
X0073342Y0160404D03*
X0073342Y0167096D03*
X0058342Y0197404D03*
X0058342Y0204096D03*
X0160342Y0204096D03*
X0160342Y0197404D03*
X0180342Y0197404D03*
X0180342Y0204096D03*
X0190342Y0204096D03*
X0190342Y0197404D03*
X0210342Y0197404D03*
X0210342Y0204096D03*
X0195342Y0167096D03*
X0195342Y0160404D03*
X0175342Y0160404D03*
X0175342Y0167096D03*
X0180342Y0102096D03*
X0180342Y0095404D03*
X0190342Y0095404D03*
X0190342Y0102096D03*
X0210342Y0102096D03*
X0210342Y0095404D03*
X0195342Y0065096D03*
X0195342Y0058404D03*
X0175342Y0058404D03*
X0175342Y0065096D03*
X0160342Y0095404D03*
X0160342Y0102096D03*
X0108342Y0102096D03*
X0108342Y0095404D03*
X0088342Y0095404D03*
X0088342Y0102096D03*
X0078342Y0102096D03*
X0078342Y0095404D03*
X0058342Y0095404D03*
X0058342Y0102096D03*
X0073342Y0065096D03*
X0073342Y0058404D03*
X0093342Y0058404D03*
X0093342Y0065096D03*
X0262342Y0095404D03*
X0262342Y0102096D03*
X0282342Y0102096D03*
X0282342Y0095404D03*
X0292342Y0095404D03*
X0292342Y0102096D03*
X0312342Y0102096D03*
X0312342Y0095404D03*
X0297342Y0065096D03*
X0297342Y0058404D03*
X0277342Y0058404D03*
X0277342Y0065096D03*
X0277342Y0160404D03*
X0277342Y0167096D03*
X0297342Y0167096D03*
X0297342Y0160404D03*
X0292342Y0197404D03*
X0292342Y0204096D03*
X0282342Y0204096D03*
X0282342Y0197404D03*
X0262342Y0197404D03*
X0262342Y0204096D03*
X0312342Y0204096D03*
X0312342Y0197404D03*
X0297342Y0262404D03*
X0297342Y0269096D03*
X0277342Y0269096D03*
X0277342Y0262404D03*
X0282342Y0299404D03*
X0282342Y0306096D03*
X0292342Y0306096D03*
X0292342Y0299404D03*
X0312342Y0299404D03*
X0312342Y0306096D03*
X0262342Y0306096D03*
X0262342Y0299404D03*
X0210342Y0299404D03*
X0210342Y0306096D03*
X0190342Y0306096D03*
X0190342Y0299404D03*
X0180342Y0299404D03*
X0180342Y0306096D03*
X0160342Y0306096D03*
X0160342Y0299404D03*
X0175342Y0269096D03*
X0175342Y0262404D03*
X0195342Y0262404D03*
X0195342Y0269096D03*
M02*
